<svg width="340" height="340" viewBox="0 0 340 340" fill="none" xmlns="http://www.w3.org/2000/svg">
<g clip-path="url(#clip0_2_2)">
<path d="M127.222 53.731C127.222 53.731 115.222 34.586 96.335 31.268V38.415C96.335 38.415 82.551 31.778 64.427 39.436C46.303 47.094 36.6 45.818 36.6 45.818C36.6 45.818 42.216 67.518 81.91 64.708C81.91 64.708 82.293 67.515 78.21 71.344C78.21 71.344 87.655 81.555 111.14 77.726L127.222 53.731Z" fill="#56AAFE"/>
<path d="M127.222 53.731C124.038 48.9844 120.209 44.7038 115.845 41.012C115.145 42.148 113.274 45.671 111.493 49.012C110.529 50.8052 108.966 52.2027 107.077 52.9603C105.187 53.718 103.092 53.7876 101.156 53.157C91.856 50.195 80.376 49.201 69.909 49.4C69.502 49.4245 69.1178 49.5961 68.828 49.883C68.5382 50.1698 68.3626 50.5523 68.334 50.959C68.292 51.4141 68.4324 51.8672 68.7244 52.2188C69.0163 52.5704 69.4359 52.7917 69.891 52.834L69.997 52.844C72.265 53.054 94.126 55.751 101.892 62.965C100.723 64.0956 99.4879 65.1549 98.192 66.137C94.1565 69.0966 90.5491 72.5993 87.472 76.546C92.772 78.315 100.517 79.458 111.141 77.726L113.784 73.782C114.445 74.582 114.809 75.068 114.809 75.068L123.404 65.558C123.404 65.558 122.426 64.713 120.712 63.445L127.222 53.731Z" fill="#406BD0"/>
<path d="M118.093 159.554H232.424C232.424 159.554 256.697 247.939 248.09 298.254H118.09L118.093 159.554Z" fill="white"/>
<path d="M235.27 170.751L232.424 159.551H118.093V298.251H137.488C138.167 280.813 139.761 260.39 142.82 247.684C144.39 241.165 146.181 230.938 147.866 218.384C167.681 243.859 195.048 270.503 229.636 284.549C229.73 289.111 229.745 293.689 229.667 298.249H248.09C248.751 294.394 239.666 188.914 235.27 170.751ZM162.636 178.419C174.413 186.438 188.374 190.637 202.621 190.444C202.621 190.444 207.437 188.602 214.121 183.136C214.403 182.902 214.741 182.744 215.102 182.678C215.463 182.613 215.834 182.641 216.181 182.761C216.528 182.881 216.837 183.089 217.081 183.363C217.324 183.638 217.492 183.97 217.569 184.329C219.675 194.316 223.911 216.136 226.782 242.356C208.205 226.838 183.685 204.36 162.636 178.419V178.419Z" fill="#DAE5FC"/>
<path d="M159.937 159.554C170.993 204.507 199.505 219.121 199.505 219.121C211.068 204.109 213.891 179.141 214.069 159.554H159.937Z" fill="#FFCACF"/>
<path d="M167.569 181.464C178.243 187.529 190.345 190.63 202.621 190.444C206.046 188.938 209.263 186.997 212.192 184.67C213.405 176.352 214.032 167.96 214.069 159.554H159.937C161.764 167.088 164.32 174.425 167.569 181.464V181.464Z" fill="#E5838B"/>
<path d="M255.675 150.28C255.675 150.28 299.431 195.325 319.165 241.773C321.145 246.388 322.125 251.371 322.041 256.392C321.957 261.414 320.81 266.361 318.676 270.907C312.852 283.207 302.186 300.677 284.735 312.969L258.168 269.379C258.168 269.379 268.934 256.3 276.668 246.241C276.668 246.241 260.744 222.563 248.106 209.603L239.953 163.629L255.675 150.28Z" fill="#E54C5B"/>
<path d="M264.844 209.268C262.997 204.368 260.596 199.695 257.689 195.339C257.294 194.758 256.724 194.318 256.062 194.082C255.399 193.847 254.679 193.829 254.006 194.031C253.333 194.233 252.742 194.644 252.318 195.205C251.895 195.766 251.661 196.447 251.651 197.15L251.563 202.677L248.109 209.603C260.747 222.563 276.671 246.241 276.671 246.241C268.934 256.3 258.171 269.379 258.171 269.379L263.144 275.447L289.523 246.747C289.523 246.747 267.473 216.235 264.844 209.268Z" fill="#A02A39"/>
<path d="M261.135 272.249C261.135 272.249 261.45 272.264 262.012 272.323C268.628 273.045 274.744 276.188 279.181 281.148C283.619 286.108 286.065 292.534 286.049 299.189V317.706C286.077 321.087 285.507 324.446 284.366 327.629C282.234 333.418 277.466 340.543 266.929 340.543H261.135V272.249Z" fill="#FFCACF"/>
<path d="M124.528 288.328C124.528 288.328 194.401 291.043 249.359 288.328L238.526 340.543H127.226C127.226 340.543 116.973 322.5 124.528 288.328Z" fill="#5B5B81"/>
<path d="M179.56 304.962C184.846 304.645 190.153 304.047 195.431 303.331C198.071 302.969 200.702 302.571 203.324 302.136C205.935 301.7 208.555 301.226 211.042 300.688C211.783 300.527 212.549 300.514 213.295 300.65C214.041 300.785 214.753 301.066 215.391 301.476C216.028 301.887 216.579 302.419 217.011 303.042C217.443 303.666 217.747 304.368 217.908 305.109C218.069 305.85 218.082 306.616 217.946 307.362C217.811 308.108 217.53 308.82 217.119 309.458C216.709 310.095 216.177 310.646 215.554 311.078C214.93 311.51 214.228 311.814 213.487 311.975C213.151 312.048 212.81 312.091 212.467 312.104H212.413C209.55 312.189 206.802 312.173 204.041 312.126C201.28 312.079 198.541 311.984 195.8 311.855C190.317 311.589 184.844 311.203 179.362 310.524C178.671 310.437 178.038 310.096 177.586 309.567C177.133 309.038 176.895 308.359 176.917 307.664C176.939 306.968 177.219 306.306 177.704 305.806C178.189 305.307 178.842 305.006 179.537 304.963L179.56 304.962Z" fill="#333353"/>
<path d="M167.048 310.32H167.006L164.813 310.288C164.017 310.282 163.257 309.96 162.699 309.393C162.14 308.826 161.83 308.06 161.837 307.264C161.843 306.469 162.165 305.708 162.732 305.15C163.299 304.592 164.064 304.282 164.86 304.288H164.908L167.087 304.32C167.883 304.325 168.644 304.646 169.203 305.212C169.762 305.779 170.073 306.544 170.068 307.34C170.062 308.135 169.741 308.896 169.175 309.455C168.609 310.014 167.844 310.325 167.048 310.32Z" fill="#333353"/>
<path d="M185.555 340.543H206.255V289.477C199.202 289.538 192.249 289.547 185.555 289.521V340.543Z" fill="#333353"/>
<path d="M122.314 310.033C125.633 310.164 128.931 310.233 132.228 310.271C138.828 310.33 145.391 310.287 152.028 309.949C152.825 309.907 153.576 309.562 154.126 308.984C154.677 308.406 154.985 307.64 154.988 306.842C154.991 306.044 154.689 305.275 154.143 304.693C153.597 304.11 152.85 303.759 152.053 303.711H152.028C145.635 303.336 139.178 302.673 132.77 301.911C129.57 301.523 126.37 301.102 123.197 300.626L122.46 300.51C122.067 303.888 121.86 307.051 121.785 310.01L122.314 310.033Z" fill="#333353"/>
<path d="M217.6 320.136H217.567C208.455 320.614 199.232 320.674 190.023 320.613C180.814 320.552 171.584 320.319 162.368 319.964C153.152 319.609 143.941 319.14 134.762 318.509C130.471 318.209 126.172 317.874 121.899 317.481C122.088 320.962 122.511 324.427 123.164 327.851C126.864 328.046 130.56 328.21 134.252 328.344C143.573 328.665 152.878 328.82 162.183 328.86C171.488 328.9 180.79 328.808 190.099 328.56C199.408 328.312 208.717 327.928 218.086 327.114C219 327.034 219.846 326.598 220.442 325.901C221.038 325.203 221.336 324.3 221.272 323.384C221.209 322.469 220.788 321.615 220.101 321.007C219.414 320.399 218.516 320.085 217.6 320.132V320.136Z" fill="#333353"/>
<path d="M216.282 338.027L193.474 338.485L192.555 331.392V288.492C192.555 286.416 193.38 284.424 194.849 282.956C196.317 281.488 198.309 280.663 200.385 280.663H208.453C210.529 280.663 212.521 281.488 213.989 282.956C215.457 284.424 216.282 286.416 216.282 288.492V338.027Z" fill="#5B5B81"/>
<path d="M240.009 337.424L216.282 337.124V288.49C216.282 286.414 217.107 284.422 218.575 282.954C220.043 281.486 222.035 280.661 224.111 280.661H242.9L240.009 337.424Z" fill="#5B5B81"/>
<path d="M88.227 114.9C88.3263 116.572 88.7924 118.201 89.5922 119.673C90.392 121.144 91.5058 122.422 92.8547 123.414C94.2036 124.407 95.7545 125.09 97.3972 125.416C99.04 125.742 100.734 125.702 102.36 125.3C137.38 116.616 180.4 98.372 222 90.693C234.994 87.3347 247.383 81.9644 258.717 74.777C260.23 73.7924 261.451 72.4196 262.253 70.802C263.054 69.1843 263.407 67.3811 263.274 65.5807C263.14 63.7803 262.526 62.0487 261.495 60.5668C260.464 59.0848 259.054 57.9069 257.412 57.156C242.287 50.0405 228.512 40.3537 216.7 28.527C210.24 22.0626 202.388 17.1592 193.744 14.191C183.825 10.849 171.16 9.5 158.9 16.482C158.9 16.482 133.581 27.99 119.8 56.682C116.347 63.6956 111.518 69.9426 105.6 75.051C91.906 87.1 87.266 99.219 88.227 114.9Z" fill="#E54C5B"/>
<path d="M207.009 74.271L203.548 94.715C209.708 93.19 215.868 91.824 221.996 90.693C230.836 88.4292 239.403 85.2127 247.549 81.1C254.019 71.471 207.009 74.271 207.009 74.271Z" fill="#A02A39"/>
<path d="M127.955 102.991C127.955 102.991 102.5 117.4 106.812 159.554L168.786 157.964C168.786 157.964 162.189 120.38 127.955 102.991Z" fill="#333353"/>
<path d="M173.809 80.8L207.009 74.269C207.009 74.269 221.516 103.544 220.269 130.249L202.563 135.872L151.544 133.12C151.544 133.12 139.339 99.824 173.809 80.8Z" fill="#FFCACF"/>
<path d="M137.939 288.756C132.112 288.581 124.528 288.328 124.528 288.328C116.973 322.504 127.222 340.543 127.222 340.543H141.122C136.345 323.505 137.736 295.019 137.939 288.756Z" fill="#333353"/>
<path d="M233.115 321.946C233.033 324.505 231.958 326.931 230.118 328.712C228.278 330.492 225.817 331.486 223.257 331.484H216.282V340.543H240.009L242.9 280.661H232.778C233.359 294.438 233.533 308.2 233.115 321.946Z" fill="#333353"/>
<path d="M84.823 154.312C102.051 148.723 119.893 145.243 137.959 143.947C137.959 143.947 142.023 182.435 133.153 223.915C124.283 265.395 127.222 340.543 127.222 340.543H97.522C97.522 340.543 80.24 278.728 97.522 226.878L84.823 154.312Z" fill="#E54C5B"/>
<path d="M118.093 146.287C118.093 146.287 157.6 240.963 245.227 280.661V248.145C245.227 248.145 185.757 212.818 153.241 139.097C141.392 140.787 129.654 143.188 118.093 146.287V146.287Z" fill="#333353"/>
<path d="M212.534 159.39C212.534 159.39 244.689 189.965 238.526 340.543H266.926C266.926 340.543 271.447 247.598 251.795 187.943C250.066 182.625 249.479 177.003 250.072 171.443C250.763 164.13 252.655 156.98 255.672 150.282C255.672 150.282 234.52 141.082 215.487 141.393L212.534 159.39Z" fill="#E54C5B"/>
<path d="M207.009 74.271C192.401 74.482 173.809 80.802 173.809 80.802C164.328 86.034 158.384 92.346 154.74 98.747C158.95 96.815 163.525 94.903 168.456 93.083C173.988 91.0178 180.069 90.9584 185.641 92.915C188.685 93.996 192.129 95.356 195.648 97.015C195.648 97.015 194.948 103.515 203.109 107.022C209.1 109.599 214.899 112.454 218.916 111.365C216.436 92.937 207.009 74.271 207.009 74.271Z" fill="#E5838B"/>
<path d="M97.519 270.515L100.586 273.467C102.759 275.559 104.439 278.108 105.504 280.931C106.569 283.753 106.992 286.777 106.742 289.783L103.071 334.03C102.924 335.806 102.114 337.461 100.803 338.667C99.4923 339.874 97.7756 340.543 95.994 340.543C92.3645 340.539 88.8315 339.374 85.9121 337.217C82.9926 335.061 80.8399 332.027 79.769 328.559C76.897 319.333 74.336 305.104 76.887 287.019L97.519 270.515Z" fill="#FFCACF"/>
<path d="M84.823 154.312C84.823 154.312 110.644 193.451 97.523 226.878L75.885 247.712L97.519 270.512C97.519 270.512 90.86 296.378 68.738 308.971C68.738 308.971 37.57 291.971 20.219 256.677C18.6507 253.445 17.8773 249.884 17.9631 246.293C18.0488 242.701 18.9913 239.182 20.712 236.028C29.9 219 51.51 183.35 84.823 154.312Z" fill="#E54C5B"/>
<path d="M213.554 217.149C210.13 212.926 206.36 208.996 202.282 205.4C200.536 203.82 198.311 202.871 195.962 202.705C193.613 202.538 191.276 203.164 189.325 204.482C182.803 208.958 177.725 215.324 174.484 220.146C173.174 222.089 172.55 224.412 172.709 226.75C172.869 229.087 173.803 231.304 175.365 233.051C179.15 237.235 183.27 241.104 187.684 244.618C189.539 246.097 191.841 246.905 194.213 246.91C196.586 246.916 198.891 246.118 200.753 244.647C206.157 240.285 210.747 235.002 214.311 229.041C215.407 227.216 215.921 225.101 215.786 222.977C215.651 220.853 214.872 218.82 213.554 217.149ZM201.473 227.514C200.432 228.786 199.319 229.998 198.141 231.144C197.223 232.017 196.009 232.51 194.743 232.525C193.477 232.54 192.252 232.076 191.313 231.226C190.311 230.338 189.367 229.386 188.486 228.377C187.709 227.469 187.287 226.312 187.296 225.117C187.306 223.923 187.747 222.772 188.538 221.877C189.57 220.697 190.676 219.551 191.838 218.432C192.752 217.564 193.958 217.072 195.218 217.054C196.478 217.035 197.699 217.491 198.638 218.332C199.582 219.162 200.481 220.043 201.329 220.971C202.134 221.863 202.592 223.015 202.618 224.216C202.644 225.417 202.238 226.588 201.473 227.514V227.514Z" fill="#FCA751"/>
<path d="M193.464 46.225C191.308 44.792 189.175 43.549 187.13 42.467C189.195 40.143 190.706 38.658 190.739 38.625C191.39 37.9737 191.758 37.0923 191.763 36.1716C191.769 35.2509 191.411 34.3651 190.768 33.7063C190.125 33.0474 189.248 32.6684 188.328 32.6515C187.407 32.6346 186.517 32.9812 185.85 33.616C185.674 33.788 183.392 36.032 180.539 39.371C177.971 38.2986 175.342 37.3803 172.665 36.621C171.774 36.3828 170.824 36.5061 170.024 36.9641C169.223 37.4221 168.635 38.1778 168.389 39.0668C168.142 39.9557 168.256 40.9061 168.707 41.7112C169.157 42.5164 169.907 43.1111 170.794 43.366C171.92 43.678 173.743 44.235 176.014 45.099C174.743 46.838 173.56 48.6403 172.471 50.499C172.235 50.8969 172.08 51.3375 172.016 51.7955C171.951 52.2536 171.978 52.7198 172.095 53.1674C172.212 53.6149 172.416 54.0349 172.696 54.403C172.976 54.7711 173.326 55.0801 173.727 55.312C174.127 55.5439 174.569 55.6943 175.028 55.7543C175.486 55.8143 175.952 55.7828 176.399 55.6616C176.845 55.5405 177.263 55.332 177.628 55.0484C177.994 54.7647 178.299 54.4114 178.527 54.009C179.755 51.924 181.109 49.9154 182.58 47.994C184.995 49.2054 187.336 50.5612 189.588 52.054C190.361 52.568 191.306 52.7539 192.217 52.5707C193.127 52.3876 193.927 51.8505 194.441 51.0775C194.955 50.3045 195.14 49.359 194.957 48.449C194.774 47.539 194.237 46.739 193.464 46.225V46.225Z" fill="white"/>
<path d="M205.367 89.038C196.933 85.1636 188.255 81.8416 179.39 79.093C175.968 80.068 173.809 80.802 173.809 80.802C172.245 81.665 170.781 82.558 169.404 83.474C180.709 86.5466 191.747 90.5292 202.41 95.383C203.251 95.7751 204.214 95.8169 205.086 95.4993C205.959 95.1816 206.669 94.5304 207.061 93.689C207.453 92.8476 207.495 91.8849 207.177 91.0127C206.86 90.1404 206.208 89.4301 205.367 89.038V89.038Z" fill="#333353"/>
<path d="M180.454 102.928C180.256 102.928 180.059 102.911 179.864 102.878L176.764 102.352C176.304 102.283 175.863 102.122 175.466 101.88C175.069 101.638 174.724 101.32 174.451 100.943C174.179 100.566 173.984 100.139 173.878 99.6859C173.773 99.233 173.758 98.7636 173.836 98.3052C173.914 97.8467 174.083 97.4084 174.332 97.0158C174.581 96.6232 174.906 96.2841 175.288 96.0185C175.669 95.7529 176.1 95.566 176.555 95.4687C177.009 95.3714 177.479 95.3658 177.936 95.452L181.036 95.978C181.901 96.1243 182.68 96.5902 183.218 97.2835C183.756 97.9767 184.013 98.8467 183.94 99.721C183.867 100.595 183.468 101.41 182.822 102.005C182.177 102.599 181.331 102.929 180.454 102.929V102.928Z" fill="#E8808F"/>
<path d="M123.006 204.251C122.799 204.251 122.593 204.232 122.39 204.196L120.02 203.776C119.106 203.614 118.294 203.095 117.762 202.334C117.231 201.573 117.023 200.632 117.185 199.718C117.348 198.803 117.867 197.991 118.628 197.46C119.389 196.928 120.33 196.721 121.244 196.883L123.614 197.304C124.476 197.456 125.251 197.925 125.784 198.62C126.317 199.315 126.57 200.184 126.494 201.056C126.418 201.928 126.017 202.74 125.371 203.332C124.726 203.923 123.882 204.251 123.006 204.251Z" fill="#A02A39"/>
<path d="M118.753 230.678C118.547 230.678 118.34 230.66 118.137 230.624L115.767 230.203C114.853 230.041 114.041 229.522 113.509 228.761C112.977 228 112.77 227.059 112.932 226.145C113.094 225.231 113.613 224.419 114.374 223.887C115.135 223.355 116.076 223.148 116.99 223.31L119.361 223.731C120.223 223.883 120.998 224.352 121.531 225.047C122.064 225.742 122.317 226.611 122.241 227.483C122.165 228.355 121.764 229.167 121.118 229.759C120.473 230.35 119.629 230.678 118.753 230.678Z" fill="#A02A39"/>
<path d="M115.436 258.485C115.229 258.485 115.023 258.467 114.819 258.431L112.45 258.01C111.536 257.848 110.724 257.329 110.192 256.568C109.661 255.807 109.453 254.866 109.616 253.952C109.778 253.037 110.297 252.225 111.058 251.694C111.819 251.162 112.76 250.955 113.674 251.117L116.044 251.538C116.906 251.69 117.681 252.159 118.214 252.854C118.747 253.549 119 254.418 118.924 255.29C118.848 256.162 118.447 256.974 117.801 257.566C117.156 258.157 116.312 258.485 115.436 258.485Z" fill="#A02A39"/>
<path d="M205.184 83.33C204.301 83.847 203.461 84.4353 202.673 85.089C201.484 86.0791 200.543 87.3325 199.923 88.7498C199.302 90.1671 199.021 91.7094 199.1 93.2543C199.18 94.7993 199.618 96.3046 200.38 97.6507C201.143 98.9969 202.208 100.147 203.492 101.01C206.633 103.105 210.136 104.597 213.823 105.41C214.675 105.6 215.562 105.573 216.4 105.331C217.239 105.088 218.004 104.638 218.623 104.023C219.242 103.407 219.696 102.645 219.944 101.808C220.191 100.971 220.223 100.084 220.038 99.231C219.105 94.8875 217.692 90.6614 215.823 86.631C215.381 85.6791 214.744 84.8304 213.954 84.1396C213.164 83.4488 212.238 82.9312 211.236 82.6202C210.233 82.3092 209.177 82.2117 208.135 82.334C207.092 82.4562 206.087 82.7955 205.184 83.33Z" fill="#333353"/>
<path d="M173.809 80.8C173.809 80.8 149.446 101.8 168.786 130.671L220.269 130.249C220.269 130.249 229.574 162.399 203.707 178.498C201.305 179.979 198.539 180.767 195.717 180.775C186.028 180.842 162.643 178.375 151.974 154.31L144.643 151.493C136.317 147.393 123.604 138.074 121.443 118.845L127.95 102.989C142.071 93.3937 157.521 85.9181 173.809 80.8V80.8Z" fill="#5B5B81"/>
<path d="M173.809 80.8C157.523 85.9185 142.075 93.3942 127.955 102.989C123.38 106.163 120.266 114.289 121.237 121.999C126.102 118.02 140.855 103.96 164.118 94.736C166.339 89.4646 169.641 84.7173 173.809 80.8V80.8Z" fill="#333353"/>
<path d="M145.112 140.6C144.524 144.202 144.367 147.861 144.644 151.5C146.986 152.685 149.441 153.63 151.973 154.32C150.576 149.823 149.469 145.24 148.659 140.601C148.587 140.183 148.369 139.804 148.045 139.531C147.72 139.258 147.31 139.108 146.886 139.108C146.462 139.108 146.051 139.258 145.727 139.531C145.402 139.804 145.185 140.182 145.112 140.6V140.6Z" fill="#333353"/>
<path d="M208.453 280.661H207.483C208.905 282.335 211.401 286.891 211.401 298.256V323.79C211.401 325.806 210.6 327.739 209.175 329.164C207.75 330.589 205.817 331.39 203.801 331.39H192.555V340.541H216.282V288.49C216.282 286.414 215.457 284.422 213.989 282.954C212.521 281.486 210.529 280.661 208.453 280.661V280.661Z" fill="#333353"/>
<path d="M173.859 130.631L171.673 131.272C171.673 131.272 164.383 134.585 157.479 134.585C157.479 134.585 157.887 145.325 169.722 149.638C175.076 151.552 180.901 151.71 186.351 150.09C190.416 148.902 195.113 146.6 197.587 142.146C197.587 142.146 208.265 150.424 221.804 146.787C222.146 141.229 221.628 135.651 220.269 130.251L173.859 130.631Z" fill="#333353"/>
<path d="M214.559 120.02C203.882 112.93 196.18 122.466 196.18 122.466C196.18 122.466 187.228 114.091 177.639 122.594C168.05 131.097 160.812 131.25 160.812 131.25C160.812 131.25 164.477 144.95 179.684 143.888C194.891 142.826 197.053 134.988 197.053 134.988C197.053 134.988 200.283 142.452 215.49 141.388C230.697 140.324 232.424 126.253 232.424 126.253C232.424 126.253 225.236 127.109 214.559 120.02Z" fill="#5B5B81"/>
<path d="M278.37 251.211C284.19 249.213 290.339 248.346 296.485 248.656C296.822 248.68 297.157 248.587 297.434 248.392C297.71 248.197 297.91 247.913 298.001 247.587C298.091 247.261 298.066 246.914 297.929 246.605C297.793 246.295 297.554 246.043 297.252 245.89C292.093 243.226 286.184 242.39 280.489 243.518L278.37 251.211Z" fill="#A02A39"/>
<path d="M100.346 194.946C100.269 194.449 100.01 193.999 99.6189 193.683C99.2283 193.366 98.7339 193.207 98.232 193.234C97.7301 193.262 97.2565 193.476 96.9031 193.833C96.5498 194.191 96.3419 194.667 96.32 195.169C96.244 197.008 96.12 198.731 95.971 200.304C95.4317 206.066 93.1753 211.534 89.494 216L73.66 235.189C73.1131 235.861 72.4091 236.388 71.6102 236.724C70.8112 237.06 69.9419 237.194 69.079 237.114C65.0028 236.728 60.8917 236.958 56.884 237.796C56.4952 237.875 56.148 238.092 55.9062 238.407C55.6643 238.721 55.544 239.113 55.5674 239.509C55.5907 239.905 55.7561 240.279 56.0332 240.563C56.3103 240.847 56.6806 241.022 57.076 241.055C63.8411 241.49 70.3527 243.794 75.885 247.712L97.519 226.878C101.66 216.333 101.924 205.22 100.346 194.946Z" fill="#A02A39"/>
<path d="M177.894 230.939C176.267 229.071 174.089 225.321 177.534 220.989C177.721 220.763 177.954 220.581 178.218 220.455C178.483 220.329 178.771 220.262 179.064 220.259C179.357 220.256 179.646 220.317 179.913 220.437C180.18 220.558 180.418 220.735 180.609 220.956L180.735 221.099C181.025 221.436 181.198 221.858 181.229 222.301C181.259 222.745 181.145 223.186 180.904 223.56C180.429 224.246 180.193 225.07 180.235 225.903C180.276 226.737 180.592 227.533 181.133 228.169C181.312 228.387 181.445 228.64 181.522 228.911C181.599 229.182 181.62 229.467 181.582 229.747C181.545 230.026 181.45 230.295 181.304 230.537C181.158 230.778 180.963 230.987 180.733 231.15L180.565 231.266C180.157 231.549 179.66 231.672 179.167 231.612C178.675 231.551 178.221 231.312 177.894 230.939V230.939Z" fill="white"/>
<path d="M202.282 205.4C200.328 203.65 197.798 202.682 195.175 202.679L195.439 205.286C195.582 206.685 196.002 208.042 196.675 209.277C197.347 210.512 198.259 211.601 199.356 212.48C201.437 214.149 203.427 215.93 205.315 217.815C206.812 219.304 207.711 221.289 207.844 223.396C207.977 225.503 207.334 227.586 206.036 229.251C203.8 232.123 201.275 234.758 198.501 237.115C197.376 238.079 196.469 239.271 195.841 240.612C195.212 241.953 194.877 243.413 194.856 244.894L194.816 246.887C196.98 246.775 199.055 245.993 200.753 244.647C206.157 240.285 210.747 235.002 214.311 229.041C215.407 227.216 215.922 225.101 215.786 222.977C215.651 220.852 214.873 218.819 213.554 217.148C210.13 212.925 206.359 208.996 202.282 205.4V205.4Z" fill="#E87B40"/>
</g>
<defs>
<clipPath id="clip0_2_2">
<rect width="340" height="340" fill="white"/>
</clipPath>
</defs>
</svg>
