<svg width="340" height="340" viewBox="0 0 340 340" fill="none" xmlns="http://www.w3.org/2000/svg">
<g clip-path="url(#clip0_2_50)">
<path d="M274.74 215.34L263.459 209.625C263.459 209.625 263.459 192.14 286.575 180.389C286.575 180.389 300.445 173.732 296.006 160.789C291.439 147.466 278.253 148.028 278.253 148.028C275.47 148.002 272.738 148.771 270.377 150.245C268.017 151.72 266.127 153.838 264.929 156.35C264.929 156.35 261.474 145.14 272.159 138.802C276.59 136.148 281.756 134.987 286.896 135.489C293.477 136.161 302.666 138.766 308.962 148.572C312.381 154.039 313.787 160.527 312.935 166.918C312.026 174.31 308.635 184.618 297.429 190.475C295.449 191.481 293.565 192.666 291.799 194.013C286.59 198.081 276.808 206.689 274.74 215.34Z" fill="#FFB664"/>
<path d="M263.459 209.625C263.459 209.625 263.47 201.768 270.432 193.049C281.801 196.939 297.432 190.473 297.432 190.473C295.452 191.479 293.568 192.664 291.802 194.011C286.593 198.081 276.811 206.689 274.743 215.34L263.459 209.625Z" fill="#E87B40"/>
<path d="M112.658 75.556C112.658 75.556 104.465 87.287 104.465 108.888C104.465 108.888 104.921 130.694 99.5022 151.514C94.8022 169.571 97.5022 181.698 97.5022 181.698H153.253V77.418L112.658 75.556Z" fill="#FFB664"/>
<path d="M136.994 129.525L142.67 156.083H129.933C129.933 156.083 125.472 145.161 128.783 129.483C128.99 128.546 129.513 127.707 130.263 127.108C131.013 126.509 131.946 126.185 132.906 126.19C133.866 126.195 134.795 126.528 135.539 127.135C136.283 127.742 136.797 128.585 136.994 129.525V129.525Z" fill="#E87B40"/>
<path d="M278.981 234.332C278.981 234.332 292.026 213.291 274.561 202.793C256.723 192.069 245.081 213.04 245.081 213.04L278.981 234.332Z" fill="#E87B40"/>
<path d="M201.691 181.7C201.691 181.7 215.638 229.417 223.67 249.821L235.464 232.253L266.525 250.723C266.525 250.723 243.812 291.467 230.489 301.077C217.166 310.687 203.626 298.893 203.626 298.893C203.626 298.893 187.525 221.313 201.691 181.7Z" fill="#5B5B81"/>
<path d="M264.575 255.193L233.048 235.842C231.441 234.853 230.248 233.315 229.69 231.512C229.133 229.709 229.25 227.765 230.018 226.042C231.879 221.773 234.14 217.691 236.773 213.85C237.892 212.256 239.568 211.139 241.471 210.72C243.373 210.301 245.363 210.612 247.048 211.589C254.974 216.2 269.563 224.9 279.691 232.178C281.128 233.21 282.169 234.703 282.639 236.409C283.109 238.114 282.981 239.929 282.275 241.552C280.337 246.037 277.676 250.175 274.4 253.8C273.179 255.136 271.53 256.006 269.738 256.26C267.945 256.515 266.12 256.137 264.575 255.193V255.193Z" fill="#333353"/>
<path d="M219.74 239.093C221.14 243.11 222.47 246.771 223.67 249.819L218.7 256.38C218.491 256.656 218.194 256.851 217.858 256.934C217.522 257.017 217.168 256.982 216.855 256.835C216.542 256.688 216.289 256.439 216.137 256.128C215.986 255.817 215.946 255.463 216.024 255.126L219.74 239.093Z" fill="#333353"/>
<path d="M202.581 219.062C207.5 270.046 219.681 296.372 223.927 304.228C213.06 307.1 203.627 298.893 203.627 298.893C203.627 298.893 194.992 257.281 195.935 219.446C196.004 219.166 196.073 218.883 196.141 218.605C196.327 217.856 196.772 217.198 197.396 216.744C198.02 216.291 198.784 216.073 199.553 216.127C200.323 216.182 201.048 216.506 201.602 217.043C202.156 217.58 202.503 218.295 202.581 219.062V219.062Z" fill="#333353"/>
<path d="M108.187 299.516H188.882L183.985 340.064H114.332L108.187 299.516Z" fill="#333353"/>
<path d="M153.253 77.418V91.177L151.617 91.219C136.737 91.3395 121.865 90.5088 107.091 88.732C109.491 80.099 112.658 75.556 112.658 75.556L153.253 77.418Z" fill="#E87B40"/>
<path d="M181.445 168.831L150.859 147L129.932 156.077C128.084 157.027 126.117 158.071 124.032 159.21L108.187 293.4H190.727C190.727 293.4 190.674 219.624 181.445 168.831Z" fill="white"/>
<path d="M124.029 159.214C126.114 158.073 128.081 157.028 129.929 156.081L135.853 153.511L137.804 162.356L129.93 166.279C129.93 166.279 131.056 222.26 126.002 293.403H108.184L124.029 159.214Z" fill="#DAE5FC"/>
<path d="M190.727 293.4H175.165C175.522 278.827 175.673 261.144 174.875 248.036L163.76 261.371C162.47 262.92 160.67 263.958 158.683 264.301C156.561 264.666 154.657 265.826 153.359 267.544C149.365 272.825 139.559 284.863 127.268 293.4H108.187L108.454 291.145L184.233 186.784C190.681 235.351 190.727 293.4 190.727 293.4Z" fill="#DAE5FC"/>
<path d="M129.933 156.083C143.667 149.025 150.859 147 150.859 147L144.093 175.581C144.093 175.581 135.506 170.373 129.933 156.083Z" fill="#DAE5FC"/>
<path d="M110.703 288.323H190.727V306.808H110.703V288.323Z" fill="#333353"/>
<path d="M145.074 288.323H165.525V306.808H145.074V288.323Z" fill="#FCA751"/>
<path d="M150.859 147L181.445 168.827C181.825 170.918 182.187 173.051 182.537 175.212C173.069 196.552 157.626 207.012 157.626 207.012C142.026 189.564 136.042 166.264 133.87 154.1C145.028 148.648 150.859 147 150.859 147Z" fill="#FFCACF"/>
<path d="M174.208 161.382C174.208 161.382 187.421 250.256 183.981 340.064H217.811C217.811 340.064 213.126 315.347 206.001 286.377C197.941 253.609 201.691 181.698 201.691 181.698C201.691 181.698 187.157 169.045 174.208 161.382Z" fill="#5B5B81"/>
<path d="M181.445 168.831C181.581 169.583 181.713 170.346 181.845 171.108C176.876 175.737 170.897 179.146 164.383 181.067C160.041 178.559 156.041 175.501 152.483 171.967C149.818 173.464 147.002 174.676 144.083 175.583C141.591 173.868 139.381 171.776 137.53 169.383C136.011 164.366 134.786 159.265 133.86 154.105C145.028 148.648 150.859 147 150.859 147L181.445 168.831Z" fill="#E5838B"/>
<path d="M197.062 177.822C197.062 177.822 174.208 248.685 113.538 296.739L114.528 264.725C114.528 264.725 157.897 211.231 178.15 160.651L197.062 177.822Z" fill="#333353"/>
<path d="M133.828 114.408C133.828 114.408 137.29 103.896 143.635 96.647C145.089 94.9536 146.398 93.142 147.55 91.231L162.001 78.886H190.727L190.327 126.972L143.318 133.024C143.318 133.024 133.845 128.152 133.828 114.408Z" fill="#FFCACF"/>
<path d="M158.762 127.849C158.762 127.849 140.84 126.875 133.828 114.408C133.828 114.408 123.959 141.17 141.341 163.414C141.942 164.17 142.691 164.795 143.542 165.251C144.394 165.707 145.329 165.985 146.291 166.067C147.253 166.149 148.222 166.033 149.138 165.728C150.054 165.422 150.898 164.933 151.618 164.29C152 163.953 152.381 163.59 152.755 163.214C155.086 166.09 157.713 168.714 160.591 171.042C162.087 172.224 163.907 172.922 165.81 173.043C167.712 173.164 169.606 172.702 171.239 171.718C179.639 166.634 194.949 153.807 192.461 128.823L174.345 124.923L158.762 127.849Z" fill="#FFB664"/>
<path d="M143.635 96.647C145.089 94.9536 146.398 93.142 147.55 91.231V91.231C149.902 87.3126 151.875 83.1793 153.443 78.887H190.727L190.633 90.237L159.481 91.022C158.086 91.0571 156.715 91.3924 155.461 92.0052C154.207 92.618 153.1 93.4938 152.215 94.573C149.73 97.5752 146.727 100.108 143.349 102.053C140.752 103.613 138.437 105.601 136.502 107.932C138.368 103.87 140.766 100.075 143.635 96.647V96.647Z" fill="#E5838B"/>
<path d="M124.029 159.214C124.029 159.214 123.173 205.414 120.321 232.795C117.469 260.176 114.332 340.064 114.332 340.064H93.7962C93.7962 340.064 89.0382 268.73 91.9882 232.51C92.429 213.126 91.8375 193.732 90.2162 174.41C101.847 170.188 113.149 165.108 124.029 159.214Z" fill="#5B5B81"/>
<path d="M90.2163 174.405C90.2163 174.405 98.1713 204.131 91.9883 232.505C91.9883 232.505 78.2723 245.843 70.3803 256.716C69.3952 258.07 68.8603 259.7 68.8511 261.374C68.842 263.049 69.359 264.684 70.3293 266.049L76.0073 274.029L58.0833 296.729C58.0833 296.729 42.5173 285.977 30.7153 272.889C28.5241 270.443 27.1762 267.357 26.8702 264.087C26.5642 260.817 27.3161 257.536 29.0153 254.725C46.4768 225.835 66.9952 198.907 90.2163 174.405V174.405Z" fill="#5B5B81"/>
<path d="M90.2163 283.168L95.8503 289.501C97.8814 291.784 99.4195 294.462 100.368 297.366C101.317 300.271 101.657 303.34 101.365 306.382L98.1403 340.064H92.8053C90.7355 340.064 88.7395 339.295 87.2042 337.907C85.669 336.519 84.704 334.61 84.4963 332.551L83.2423 320.124C83.076 318.471 82.2752 316.948 81.0083 315.874L74.1163 310.031C78.8564 300.716 84.2359 291.74 90.2163 283.168V283.168Z" fill="#FFCACF"/>
<path d="M133.714 234.494C136.152 230.384 138.929 226.484 142.014 222.835C143.331 221.238 145.144 220.128 147.166 219.682C149.187 219.237 151.3 219.482 153.165 220.379C159.411 223.436 164.638 228.324 168.077 232.103C169.465 233.625 170.306 235.566 170.466 237.619C170.627 239.672 170.098 241.72 168.963 243.439C166.207 247.562 163.118 251.454 159.729 255.075C158.305 256.599 156.407 257.597 154.344 257.906C152.281 258.214 150.174 257.816 148.366 256.775C143.109 253.672 138.442 249.663 134.581 244.935C133.394 243.488 132.675 241.715 132.52 239.85C132.365 237.985 132.782 236.117 133.714 234.494ZM145.548 241.963C146.617 242.936 147.739 243.848 148.91 244.694C149.82 245.336 150.939 245.61 152.042 245.462C153.145 245.313 154.152 244.753 154.859 243.894C155.617 242.993 156.316 242.045 156.953 241.055C157.513 240.166 157.732 239.105 157.571 238.068C157.409 237.03 156.879 236.085 156.076 235.408C155.028 234.514 153.923 233.656 152.761 232.835C151.856 232.198 150.744 231.924 149.646 232.069C148.548 232.214 147.545 232.767 146.836 233.618C146.122 234.461 145.455 235.342 144.836 236.257C144.251 237.135 144.001 238.195 144.131 239.242C144.262 240.29 144.765 241.255 145.548 241.963V241.963Z" fill="#FCA751"/>
<path d="M156.833 143.16C144.594 140.801 140.142 127.651 139.773 121.107C147.894 127.256 158.762 127.849 158.762 127.849L174.345 124.927L192.461 128.827C192.957 133.478 192.779 138.176 191.934 142.777C186.496 142.822 179.975 141.663 176.228 136.656C173.891 139.399 170.851 141.455 167.434 142.6C164.017 143.746 160.352 143.94 156.833 143.16V143.16Z" fill="#E87B40"/>
<path d="M159.302 119.324C168.956 114.144 175.427 120.229 175.427 120.229C175.427 120.229 181.993 113.21 190.406 120.229C198.819 127.248 206.001 118.669 206.001 118.669C206.001 118.669 205.115 136.269 189.901 136.269C189.901 136.269 179.576 136.328 175.427 129.669C171.278 136.331 160.954 136.269 160.954 136.269C145.739 136.269 146.274 117.769 146.274 117.769C146.274 117.769 152.227 123.12 159.302 119.324Z" fill="#FFB664"/>
<path d="M180.629 103.39C180.91 103.39 181.189 103.356 181.461 103.29L184.29 102.601C185.178 102.368 185.939 101.796 186.409 101.008C186.88 100.22 187.021 99.2783 186.804 98.3866C186.587 97.4948 186.028 96.724 185.248 96.2404C184.468 95.7568 183.529 95.599 182.633 95.801L179.804 96.49C178.973 96.693 178.246 97.1932 177.758 97.8962C177.271 98.5992 177.058 99.4562 177.16 100.306C177.261 101.155 177.67 101.938 178.309 102.506C178.949 103.074 179.774 103.389 180.629 103.39V103.39Z" fill="#E8808F"/>
<path d="M166.536 103.5C167.364 103.501 168.165 103.209 168.797 102.675C169.43 102.141 169.853 101.401 169.991 100.585C170.129 99.7686 169.974 98.9301 169.553 98.2179C169.131 97.5056 168.471 96.9657 167.689 96.694L165.037 95.769C164.602 95.6131 164.141 95.5449 163.679 95.5683C163.218 95.5917 162.765 95.7062 162.348 95.9053C161.931 96.1045 161.558 96.3842 161.25 96.7284C160.941 97.0726 160.704 97.4744 160.552 97.9107C160.4 98.347 160.335 98.8092 160.363 99.2705C160.39 99.7318 160.508 100.183 160.711 100.598C160.913 101.014 161.196 101.385 161.543 101.69C161.89 101.996 162.294 102.229 162.731 102.378L165.382 103.303C165.753 103.433 166.143 103.5 166.536 103.5V103.5Z" fill="#E8808F"/>
<path d="M215.106 69.754C215.51 70.6429 215.731 71.6035 215.758 72.5793C215.785 73.5552 215.617 74.5265 215.263 75.4363C214.909 76.346 214.376 77.1758 213.697 77.8767C213.017 78.5777 212.204 79.1357 211.306 79.518C207.912 80.934 202.836 82.11 195.306 82.177C178.797 82.323 120.83 84.703 91.5383 77.822C90.0814 77.4759 88.759 76.7078 87.7366 75.6137C86.7143 74.5196 86.0375 73.1482 85.7908 71.6713C85.5442 70.1943 85.7388 68.6774 86.3503 67.3106C86.9617 65.9437 87.9628 64.7876 89.2282 63.987C94.6439 60.6327 100.525 58.0961 106.681 56.459C118.613 53.214 129.614 47.2087 138.797 38.928C142.397 35.639 146.172 31.984 149.74 28.166C150.463 27.3856 151.354 26.781 152.346 26.3986C153.339 26.0161 154.405 25.866 155.465 25.9596C156.524 26.0533 157.548 26.3882 158.458 26.9388C159.367 27.4894 160.139 28.241 160.713 29.136C165.313 36.2431 169.397 43.6712 172.933 51.363C173.329 52.2593 173.955 53.0351 174.747 53.6116C175.539 54.1882 176.47 54.5451 177.445 54.6461C178.419 54.7471 179.403 54.5886 180.297 54.1868C181.19 53.785 181.962 53.1541 182.533 52.358C186.928 46.3259 190.936 40.0212 194.533 33.482C195.002 32.5969 195.702 31.855 196.557 31.3347C197.413 30.8144 198.394 30.5351 199.396 30.5263C200.397 30.5175 201.383 30.7795 202.248 31.2846C203.112 31.7898 203.825 32.5193 204.309 33.396C207.756 39.4277 210.016 46.064 210.965 52.946C211.503 58.7232 212.899 64.388 215.106 69.754V69.754Z" fill="#69698E"/>
<path d="M307.896 158.12C307.391 158.298 306.837 158.275 306.348 158.058C305.858 157.841 305.47 157.445 305.263 156.951C303.641 152.997 300.835 149.641 297.231 147.344C296.941 147.172 296.688 146.943 296.488 146.671C296.288 146.399 296.145 146.09 296.067 145.762C295.989 145.433 295.978 145.093 296.035 144.76C296.091 144.427 296.214 144.109 296.396 143.825V143.825C296.748 143.276 297.301 142.887 297.936 142.74C298.571 142.592 299.239 142.699 299.796 143.037C302.403 144.644 306.725 148.259 309.188 155.484C309.36 156.005 309.321 156.573 309.079 157.065C308.838 157.558 308.413 157.936 307.896 158.12V158.12Z" fill="white"/>
<path d="M290.632 143.984C289.142 143.984 287.933 142.776 287.933 141.285C287.933 139.794 289.142 138.586 290.632 138.586C292.123 138.586 293.331 139.794 293.331 141.285C293.331 142.776 292.123 143.984 290.632 143.984Z" fill="white"/>
<path d="M76.0072 274.034L69.1342 282.74L61.1902 269.38C59.2397 266.1 58.4067 262.275 58.8166 258.481C59.2265 254.687 60.8571 251.129 63.4632 248.341L80.9522 229.633C86.7871 223.448 90.7579 215.741 92.4082 207.4C92.4749 207.044 92.5416 206.689 92.6082 206.335C92.6463 206.125 92.7611 205.936 92.9304 205.806C93.0996 205.675 93.3113 205.612 93.5243 205.629C93.7373 205.646 93.9364 205.741 94.0831 205.897C94.2298 206.052 94.3136 206.256 94.3182 206.47C94.5495 215.212 93.7679 223.952 91.9892 232.514C91.9892 232.514 78.2732 245.852 70.3812 256.725C69.3961 258.079 68.8612 259.709 68.8521 261.383C68.8429 263.058 69.36 264.693 70.3302 266.058L76.0072 274.034Z" fill="#333353"/>
<path d="M90.7233 274.843C88.9953 273.597 86.8793 272.188 84.3533 270.701C82.7158 269.728 80.7969 269.338 78.9094 269.595C77.0218 269.852 75.277 270.74 73.9593 272.116C68.4753 277.877 59.2143 288.082 53.3193 297.155C52.2673 298.784 51.8113 300.727 52.0287 302.654C52.2462 304.581 53.1237 306.373 54.5123 307.727C57.3987 310.568 60.4524 313.234 63.6573 315.71C64.5092 316.372 65.4941 316.843 66.5445 317.09C67.5949 317.336 68.6863 317.354 69.744 317.14C70.8017 316.927 71.8008 316.487 72.6733 315.853C73.5457 315.218 74.2709 314.402 74.7993 313.461C79.0323 305.881 86.0093 293.887 92.3333 285.32C92.9195 284.528 93.3431 283.627 93.5796 282.671C93.8161 281.714 93.8607 280.72 93.7111 279.746C93.5614 278.772 93.2203 277.837 92.7075 276.996C92.1947 276.154 91.5203 275.423 90.7233 274.843V274.843Z" fill="#333353"/>
<path d="M157.297 304.428H149.94C149.707 304.428 149.475 304.382 149.259 304.293C149.043 304.204 148.847 304.072 148.682 303.907C148.516 303.742 148.385 303.546 148.296 303.33C148.206 303.114 148.16 302.883 148.16 302.649V295.872C148.161 295.626 148.233 295.385 148.367 295.179C148.502 294.973 148.694 294.811 148.92 294.712C149.146 294.614 149.395 294.583 149.638 294.624C149.881 294.665 150.106 294.776 150.287 294.943L158.157 302.233C158.344 302.406 158.474 302.631 158.531 302.879C158.588 303.127 158.569 303.387 158.476 303.624C158.383 303.861 158.221 304.064 158.011 304.208C157.8 304.351 157.552 304.428 157.297 304.428V304.428Z" fill="#E87B40"/>
<path d="M133.714 234.494C136.152 230.384 138.928 226.484 142.014 222.835C142.74 221.968 143.615 221.239 144.599 220.683L144.788 221.374C145.201 222.884 145.266 224.468 144.978 226.007C144.69 227.545 144.056 228.999 143.125 230.257C142.145 231.585 141.031 233.149 139.947 234.784C138.936 236.31 138.501 238.146 138.721 239.964C138.941 241.781 139.801 243.46 141.147 244.701C143.202 246.627 145.447 248.341 147.847 249.815C149.027 250.518 150.057 251.446 150.877 252.548C151.697 253.65 152.291 254.902 152.626 256.234L153.06 258C151.414 258.021 149.792 257.596 148.366 256.772C143.109 253.67 138.443 249.662 134.581 244.935C133.394 243.488 132.675 241.715 132.52 239.85C132.365 237.985 132.782 236.117 133.714 234.494Z" fill="#E87B40"/>
<path d="M165.144 243.668C166.771 241.801 168.95 238.051 165.504 233.718C165.318 233.493 165.084 233.311 164.82 233.185C164.556 233.059 164.267 232.992 163.974 232.989C163.682 232.986 163.392 233.046 163.125 233.167C162.858 233.287 162.621 233.464 162.429 233.685L162.303 233.829C162.013 234.166 161.84 234.587 161.81 235.031C161.779 235.474 161.893 235.916 162.134 236.289C162.61 236.975 162.845 237.799 162.803 238.632C162.762 239.466 162.446 240.262 161.905 240.898C161.726 241.116 161.594 241.369 161.516 241.64C161.439 241.912 161.419 242.196 161.456 242.476C161.494 242.756 161.588 243.025 161.734 243.266C161.881 243.508 162.075 243.717 162.305 243.88L162.481 244C162.889 244.28 163.385 244.401 163.876 244.34C164.367 244.279 164.818 244.04 165.144 243.668Z" fill="white"/>
<path d="M95.6192 33.91C95.7852 30.343 97.5072 24.91 99.4112 20.786C99.5331 20.5221 99.7311 20.3006 99.9798 20.1501C100.228 19.9997 100.516 19.927 100.807 19.9415C101.097 19.956 101.376 20.0571 101.609 20.2316C101.841 20.4062 102.016 20.6462 102.111 20.921C104.066 26.483 109.811 37.48 125.876 44.521C125.236 42.7506 125.031 40.8524 125.276 38.986C125.29 38.8274 125.348 38.6759 125.444 38.5485C125.539 38.421 125.668 38.3228 125.817 38.2647C125.965 38.2066 126.126 38.191 126.283 38.2197C126.44 38.2484 126.585 38.3202 126.703 38.427C131.404 42.6348 136.638 46.2048 142.271 49.045C149.739 52.909 152.919 56.809 154.137 59.966C154.847 61.8109 156.103 63.3951 157.737 64.507C160.085 66.0695 162.272 67.8628 164.263 69.86C164.77 70.4261 165.041 71.1646 165.021 71.9242C165 72.6837 164.69 73.4066 164.154 73.9447C163.617 74.4828 162.895 74.7952 162.136 74.818C161.376 74.8407 160.637 74.572 160.069 74.067C160.069 74.067 155.669 70.646 154.74 70.037L152.201 68.216C150.227 66.7799 147.842 66.0198 145.401 66.049C142.271 66.109 139.086 66.735 136.046 67.099C121.661 68.824 114.146 65.79 108.19 62.65C108.011 62.5571 107.862 62.4136 107.763 62.2373C107.663 62.061 107.618 61.8595 107.631 61.6577C107.645 61.4558 107.718 61.2624 107.84 61.1011C107.962 60.9398 108.129 60.8178 108.319 60.75C109.678 60.3089 110.93 59.5908 111.997 58.641C97.9582 54.09 95.2392 42.073 95.6192 33.91Z" fill="#333353"/>
</g>
<defs>
<clipPath id="clip0_2_50">
<rect width="340" height="340" fill="white"/>
</clipPath>
</defs>
</svg>
