<svg width="340" height="340" viewBox="0 0 340 340" fill="none" xmlns="http://www.w3.org/2000/svg">
<path d="M80.1995 253.423C80.1995 253.423 93.5565 247.823 102.099 254.648L99.2705 297.336L94.0615 298.756C94.0615 298.756 72.5025 301.356 70.5785 270.919L80.1995 253.423Z" fill="#FFCACF"/>
<path d="M100.074 285.189L99.2745 297.336L94.0655 298.756C94.0655 298.756 72.5065 301.356 70.5825 270.919L75.0125 262.864C75.0125 262.864 78.5365 285.309 100.074 285.189Z" fill="#E5838B"/>
<path d="M119.8 98.943C109.371 103.095 98.4861 105.993 87.3736 107.575C86.9414 107.63 86.5262 107.778 86.1567 108.009C85.7871 108.239 85.4719 108.547 85.2326 108.911C84.9934 109.276 84.8358 109.687 84.7707 110.118C84.7056 110.549 84.7346 110.988 84.8556 111.407C86.1476 115.75 89.2426 122.933 95.9396 125.198L113.338 108.514C113.338 108.514 117.69 102.53 119.8 98.943Z" fill="#A02A39"/>
<path d="M117.056 87.269C117.056 87.269 116.5 100.62 99.5196 105.314L109.944 112.863L123.32 96.372L117.056 87.269Z" fill="#A02A39"/>
<path d="M262.146 123.724L261.05 137.722L256.955 161.912L227.978 154.185L230.948 143.12L238.037 120.87L262.146 123.724Z" fill="#FFCACF"/>
<path d="M106.093 226.655L102.034 223.217C102.034 223.217 85.4485 218.608 67.4285 235.578L80.1996 253.423L70.5776 270.923C70.5776 270.923 64.9776 274.946 56.2316 270.923C50.2146 268.155 36.1716 252.974 27.9876 243.764C26.1012 241.638 24.9705 238.947 24.7716 236.112C24.5727 233.276 25.3166 230.454 26.8876 228.085C35.5756 214.952 56.2556 188.442 95.9266 161.053C95.9256 161.049 110.467 184.142 106.093 226.655Z" fill="#DAE5FC"/>
<path d="M181.462 289.693C181.462 289.693 186.983 292.793 188.92 307.041C190.857 321.289 192.609 339.82 192.609 339.82H87.0665C87.0665 339.82 87.0665 304.192 97.5145 293.777L181.462 289.693Z" fill="#333353"/>
<path d="M60.2995 222.221L62.3376 223.464C63.3143 224.063 64.4538 224.341 65.5965 224.26C66.7393 224.179 67.8281 223.743 68.7106 223.012C72.7456 219.648 80.6426 213.923 89.9946 211.612C91.4716 211.237 92.8171 210.463 93.8842 209.375C94.9513 208.287 95.699 206.927 96.0456 205.443C97.2605 200.227 98.0462 194.921 98.3946 189.577C98.4369 188.902 98.7162 188.264 99.1833 187.775C99.6504 187.286 100.275 186.978 100.947 186.904C101.62 186.831 102.296 186.998 102.857 187.375C103.419 187.752 103.829 188.315 104.016 188.965C107.386 201.238 108.095 214.09 106.096 226.66L102.067 224.736C102.067 224.736 85.4516 218.613 67.4316 235.583L58.9316 223.702C58.792 223.51 58.7233 223.275 58.7374 223.038C58.7514 222.8 58.8471 222.575 59.0084 222.401C59.1697 222.226 59.3865 222.113 59.6219 222.08C59.8573 222.047 60.0967 222.097 60.2995 222.221V222.221Z" fill="#8294BE"/>
<path d="M180.342 261.506L181.462 289.693C181.462 289.693 146.976 298.542 97.5145 293.777C97.7755 281.564 99.0883 269.396 101.439 257.409L180.342 261.506Z" fill="#E54C5B"/>
<path d="M190.764 161.049L210.499 183.057L218.667 164.457C218.667 164.457 215.887 155.598 222.792 152.471C224.582 151.7 226.575 151.537 228.466 152.008L260.914 159.524C261.932 159.751 262.891 160.192 263.726 160.817C264.561 161.442 265.254 162.237 265.759 163.149C266.263 164.062 266.569 165.071 266.655 166.111C266.741 167.15 266.605 168.196 266.256 169.179C265.082 172.125 263.14 174.703 260.633 176.646C256.983 179.714 254.037 183.534 251.999 187.845C247.736 196.638 240.789 210.903 235.467 221.522C233.727 224.994 230.762 227.698 227.145 229.111C223.527 230.524 219.514 230.546 215.881 229.173L185.091 217.544C185.091 217.544 185.772 180.561 190.764 161.049Z" fill="#DAE5FC"/>
<path d="M186.373 192.288C191.953 202.216 200.496 210.152 210.807 214.988C213.709 216.29 216.968 216.563 220.046 215.763C223.124 214.963 225.838 213.138 227.74 210.588C233.224 203.352 237.642 195.367 240.859 186.876L243.215 181.225C244.235 178.772 245.958 176.677 248.167 175.202C250.376 173.727 252.972 172.94 255.629 172.938C259.591 172.938 263.958 172.038 266.416 168.675C266.367 168.842 266.323 169.008 266.261 169.175C265.086 172.121 263.144 174.699 260.638 176.642C256.985 179.711 254.038 183.533 252 187.846C247.737 196.638 240.79 210.903 235.468 221.522C233.727 224.994 230.762 227.698 227.145 229.111C223.527 230.524 219.514 230.546 215.882 229.173L185.092 217.544C185.092 217.544 185.307 205.931 186.373 192.288Z" fill="#8294BE"/>
<path d="M190.765 161.049C190.765 161.049 190.678 208.31 184.165 237.212C183.466 240.369 183.755 243.664 184.993 246.651C186.603 250.582 187.422 256.719 180.342 261.506C180.342 261.506 127.715 267.619 101.442 257.406C101.442 257.406 97.5175 251.316 99.9985 245.051C101.368 241.762 102.101 238.242 102.16 234.68C102.16 220.136 101.52 185.68 95.9285 161.046C95.9285 161.046 129.962 148.761 135.634 145.946L156.297 150.758C156.297 150.758 179.412 157.452 190.765 161.049Z" fill="#DAE5FC"/>
<path d="M161.027 206.173C160.981 212.778 160.484 219.372 159.54 225.909C159.473 226.336 159.248 226.722 158.911 226.992C158.573 227.261 158.146 227.394 157.715 227.364C157.284 227.334 156.88 227.144 156.583 226.831C156.285 226.517 156.116 226.104 156.109 225.672L155.826 206.243C155.892 203.111 154.722 200.078 152.568 197.803L151.557 196.735L152.489 188.575C161.455 194.441 161.027 206.173 161.027 206.173Z" fill="#8294BE"/>
<path d="M160.527 141.447C160.527 141.447 164.216 173.835 151.557 196.736C151.557 196.736 141.977 187.824 135.893 171.789C134.511 168.138 133.805 164.266 133.809 160.363V120.945C133.809 120.945 147.259 117.238 160.527 141.447Z" fill="#FFCACF"/>
<path d="M136.7 120.769C137.105 120.795 137.548 120.841 138.025 120.916C138.826 121.042 139.617 121.225 140.393 121.465C143.347 122.426 146.085 123.954 148.453 125.965C152.219 129.043 156.383 133.882 160.529 141.447C161.111 147.764 161.2 154.116 160.794 160.447C150.81 159.347 139.087 154.124 133.811 142.18V120.945C134.759 120.741 135.733 120.682 136.7 120.769V120.769Z" fill="#E5838B"/>
<path d="M126.059 94.371C126.059 94.371 115.146 97.293 106.479 109.371C98.5245 120.457 85.0695 128.917 75.5315 130.834C75.2798 130.885 75.0462 131.002 74.8548 131.173C74.6634 131.345 74.5212 131.564 74.4427 131.808C74.3643 132.053 74.3524 132.314 74.4085 132.564C74.4645 132.815 74.5864 133.046 74.7615 133.234C77.6798 136.328 81.261 138.722 85.2365 140.234C88.2428 141.404 91.508 141.746 94.6916 141.225C97.8752 140.703 100.861 139.337 103.336 137.269C107.555 133.597 111.036 129.155 113.593 124.181C120.814 110.747 131.125 106.065 131.125 106.065L126.059 94.371Z" fill="#E54C5B"/>
<path d="M196.634 63.9C196.634 63.9 193.324 45.4 180.102 39.527L177.817 47.689C177.817 47.689 166.226 32.67 146.638 32.18V43.117C140.935 42.1114 135.117 41.9255 129.362 42.565C129.362 42.565 122.116 44.645 117.437 46.418L122.206 56.078C122.206 56.078 112.674 58.009 107.777 62.417C107.777 62.417 110.277 66.573 117.377 70.746L121.121 76.418C121.121 76.418 171.7 78.805 196.634 63.9Z" fill="#5B5B81"/>
<path d="M183.083 69.781C156.883 78.104 121.123 76.418 121.123 76.418L117.379 70.746C112.95 69.099 109.142 66.1187 106.479 62.216C111.379 57.809 121.122 55.687 121.122 55.687L115.784 45.729C120.156 44.1001 124.718 43.0378 129.361 42.568C140.185 69.59 172.258 70.339 183.083 69.781Z" fill="#333353"/>
<path d="M202.342 97.021C202.415 85.7297 200.482 74.5153 196.633 63.9C196.633 63.9 152.54 73.27 117.378 70.747C117.378 70.747 114.668 97.618 124.946 106.856L133.461 110.641L202.342 97.021Z" fill="#E54C5B"/>
<path d="M124.947 106.855C113.752 98.183 117.379 70.746 117.379 70.746C120.485 70.969 123.661 71.098 126.87 71.146C127.854 75.1329 129.385 78.9647 131.418 82.533C132.525 84.4678 134.237 85.9847 136.292 86.8498C138.346 87.7148 140.628 87.8801 142.786 87.32C154.579 84.243 179.972 79.101 201.628 84.771C202.163 88.8302 202.402 92.9231 202.343 97.017L133.462 110.64L124.947 106.855Z" fill="#A02A39"/>
<path d="M202.342 97.021C202.342 97.021 161.733 84.847 136.142 104.691C136.142 104.691 134.711 102.366 130.366 101.606C129.265 101.414 128.134 101.459 127.051 101.738C125.968 102.016 124.956 102.523 124.084 103.223C123.212 103.923 122.498 104.801 121.992 105.798C121.485 106.795 121.197 107.889 121.145 109.006C120.845 114.977 123.1 122.655 136.33 123.447C136.33 123.447 141.393 145.947 164.83 145.947C172.691 145.947 185.842 143.129 193.63 132.567C202.359 120.742 202.359 106.593 202.342 97.021Z" fill="#FFCACF"/>
<path d="M236.956 120.741L263.396 123.872L261.051 137.722L230.949 143.12L236.956 120.741Z" fill="#E5838B"/>
<path d="M197.897 132.39C189.545 132.39 182.775 123.079 182.775 111.593C182.775 100.107 189.545 90.796 197.897 90.796C206.248 90.796 213.019 100.107 213.019 111.593C213.019 123.079 206.248 132.39 197.897 132.39Z" fill="#FFB664"/>
<path d="M136.313 104.891L136.144 104.691C160.268 82.572 202.344 97.021 202.344 97.021C202.36 106.377 202.338 120.1 194.192 131.756C189.115 130.139 175.61 123.539 177.714 99.381C177.714 99.381 157.99 95.419 141.714 105.733C140.863 106.269 139.848 106.478 138.855 106.324C137.863 106.169 136.959 105.66 136.313 104.891V104.891Z" fill="#E5838B"/>
<path d="M182.775 111.593C182.775 111.593 186.083 128.912 197.325 130.401C205.604 131.501 213.019 123.079 213.019 111.593C213.019 100.107 206.249 90.793 197.897 90.793C189.545 90.793 182.775 100.107 182.775 111.593Z" fill="#FFB664"/>
<path d="M212.953 113.4C212.287 124.039 205.806 132.393 197.897 132.393C189.545 132.393 182.775 123.081 182.775 111.593C182.775 111.532 182.781 111.472 182.781 111.41C183.947 113.528 186.212 115.118 189.744 115.746C195.089 116.695 196.644 112.316 196.644 112.316L206.414 111.478L212.953 113.4Z" fill="#E87B40"/>
<path d="M165.121 114.246C165.956 114.246 166.764 113.947 167.399 113.403C168.033 112.859 168.452 112.106 168.58 111.28C168.707 110.454 168.535 109.61 168.094 108.9C167.654 108.19 166.973 107.661 166.177 107.409L162.792 106.335C161.907 106.054 160.946 106.137 160.122 106.564C159.298 106.991 158.678 107.729 158.397 108.614C158.116 109.498 158.199 110.459 158.626 111.283C159.053 112.107 159.791 112.727 160.675 113.008L164.062 114.081C164.404 114.19 164.761 114.246 165.121 114.246V114.246Z" fill="#E8808F"/>
<path d="M144.466 212.664H146.266C147.062 212.664 147.825 212.348 148.388 211.785C148.95 211.223 149.266 210.46 149.266 209.664C149.266 208.868 148.95 208.105 148.388 207.543C147.825 206.98 147.062 206.664 146.266 206.664H144.466C143.671 206.664 142.908 206.98 142.345 207.543C141.783 208.105 141.466 208.868 141.466 209.664C141.466 210.46 141.783 211.223 142.345 211.785C142.908 212.348 143.671 212.664 144.466 212.664V212.664Z" fill="#8294BE"/>
<path d="M144.466 225.594H146.266C147.062 225.594 147.825 225.278 148.388 224.715C148.95 224.153 149.266 223.39 149.266 222.594C149.266 221.798 148.95 221.035 148.388 220.473C147.825 219.91 147.062 219.594 146.266 219.594H144.466C143.671 219.594 142.908 219.91 142.345 220.473C141.783 221.035 141.466 221.798 141.466 222.594C141.466 223.39 141.783 224.153 142.345 224.715C142.908 225.278 143.671 225.594 144.466 225.594V225.594Z" fill="#8294BE"/>
<path d="M99.1615 271.705C100.103 272.29 101.09 272.8 102.113 273.23C104.327 274.157 106.626 274.866 108.979 275.346L109.016 275.353C109.599 275.475 110.115 275.813 110.459 276.299C110.803 276.785 110.951 277.383 110.872 277.974C110.794 278.564 110.495 279.103 110.036 279.482C109.577 279.862 108.991 280.053 108.396 280.019C105.647 279.873 102.917 279.458 100.248 278.78C99.6438 278.621 99.0382 278.443 98.4315 278.244C98.6295 276.208 98.8685 274.022 99.1615 271.705Z" fill="#A02A39"/>
<path d="M123.929 279.911C123.951 279.395 124.176 278.908 124.556 278.558C124.937 278.208 125.44 278.023 125.956 278.044H126.015C130.943 278.244 135.872 278.352 140.806 278.102C145.736 277.891 150.662 277.51 155.565 276.909C160.469 276.327 165.349 275.588 170.206 274.691C173.739 274.032 177.306 273.285 180.776 272.448L181.048 279.294C177.756 279.888 174.49 280.394 171.183 280.838C166.159 281.508 161.119 282.008 156.062 282.338C151.011 282.693 145.942 282.824 140.876 282.778C135.81 282.772 130.741 282.405 125.694 281.932C125.198 281.885 124.738 281.649 124.41 281.273C124.081 280.897 123.91 280.41 123.929 279.911V279.911Z" fill="#A02A39"/>
<path d="M205.432 102.161C241.971 97.35 277.276 93.371 277.276 93.371V129.815C277.276 129.815 229.186 126.269 205.069 122.298C203.735 122.075 202.459 121.587 201.316 120.861C200.174 120.136 199.189 119.188 198.421 118.075C197.652 116.961 197.114 115.705 196.841 114.38C196.567 113.055 196.562 111.688 196.826 110.361C196.875 110.113 196.926 109.868 196.984 109.624C197.47 107.67 198.537 105.91 200.046 104.577C201.555 103.244 203.434 102.401 205.432 102.161V102.161Z" fill="#5B5B81"/>
<path d="M196.639 112.316C197.298 113.288 198.142 114.119 199.124 114.763C200.106 115.406 201.206 115.849 202.359 116.065L277.276 121.2V129.814C277.276 129.814 229.186 126.268 205.069 122.297C202.709 121.904 200.565 120.684 199.02 118.856C197.476 117.027 196.632 114.709 196.639 112.316V112.316Z" fill="#333353"/>
<path d="M273.629 98.121C271.405 105.581 269.84 116.715 272.629 125.756C273.718 129.281 277.761 132.374 281.429 132.805C287.45 133.513 297.029 134.562 304.549 135.025V89.27C296.721 89.1105 288.897 89.7154 281.187 91.076C279.425 91.4955 277.802 92.3653 276.477 93.6003C275.152 94.8352 274.171 96.3929 273.629 98.121V98.121Z" fill="#FFB664"/>
<path d="M255.31 83.62C255.31 83.62 265.122 83.151 264.375 94.377C264.368 94.489 264.36 94.601 264.351 94.711C264.058 98.0162 262.566 101.1 260.157 103.382C257.748 105.664 254.588 106.986 251.271 107.1L233.393 107.781C230.509 107.937 227.673 106.992 225.458 105.137C223.015 103.015 220.933 99.393 222.378 93.399C225.165 81.834 255.31 83.62 255.31 83.62Z" fill="#FFCACF"/>
<path d="M287.613 121.909C289.287 122.006 290.962 121.733 292.519 121.109C293.164 120.825 293.727 120.383 294.156 119.823C294.586 119.264 294.867 118.606 294.976 117.909V117.909L304.547 119.482V135.025C296.993 134.56 287.371 133.504 281.355 132.796C277.688 132.364 273.669 129.17 272.596 125.637C272.123 124.057 271.773 122.442 271.548 120.808L287.613 121.909Z" fill="#E87B40"/>
<path d="M294.682 112.147C294.682 124.564 298.631 135.025 304.548 135.025C310.465 135.025 315.26 124.55 315.26 112.133C315.26 99.716 310.46 89.27 304.548 89.27C298.636 89.27 294.682 99.731 294.682 112.147Z" fill="#E87B40"/>
<path d="M299.48 112.147C299.48 119.775 301.587 126.202 304.744 126.202C307.901 126.202 310.459 119.767 310.459 112.139C310.459 104.511 307.899 98.093 304.744 98.093C301.589 98.093 299.48 104.519 299.48 112.147Z" fill="white"/>
<path d="M292.419 93.592C291.624 94.8968 290.98 96.2877 290.5 97.738C290.333 98.2695 290.011 98.7386 289.575 99.0844C289.138 99.4303 288.608 99.6367 288.053 99.677L281.553 100.125C281.265 100.146 280.977 100.096 280.713 99.9804C280.449 99.8647 280.217 99.6865 280.037 99.4611C279.858 99.2357 279.735 98.97 279.681 98.6868C279.628 98.4037 279.643 98.1117 279.728 97.836C280.032 96.8211 280.478 95.8545 281.054 94.965C281.371 94.5123 281.775 94.1272 282.242 93.8321C282.71 93.537 283.231 93.3378 283.777 93.246C286.377 92.7011 289.021 92.3826 291.677 92.294C291.829 92.2924 291.979 92.3315 292.111 92.4073C292.243 92.4831 292.353 92.5928 292.429 92.7251C292.504 92.8574 292.543 93.0076 292.541 93.1599C292.54 93.3123 292.497 93.4615 292.419 93.592V93.592Z" fill="white"/>
<path d="M134.948 114.445C134.178 111.861 132.308 108.075 127.868 107.201C127.735 107.174 127.596 107.195 127.477 107.259C127.357 107.323 127.264 107.426 127.212 107.551C127.16 107.677 127.153 107.816 127.192 107.946C127.232 108.076 127.315 108.188 127.428 108.263C128.179 108.771 128.815 109.431 129.293 110.202C129.603 110.701 129.773 111.274 129.786 111.861C129.799 112.448 129.654 113.028 129.366 113.54C128.912 114.297 128.761 115.197 128.942 116.061C129.098 116.823 129.536 117.498 130.168 117.952L130.243 118.004C130.784 118.351 131.418 118.523 132.061 118.498C132.703 118.473 133.323 118.252 133.835 117.864C134.348 117.476 134.73 116.941 134.928 116.329C135.127 115.718 135.134 115.06 134.948 114.445V114.445Z" fill="#E5838B"/>
<path d="M26.8866 228.081C28.5236 225.607 30.5866 222.658 33.1206 219.318C31.2686 230.19 34.1476 236.902 48.5416 251.262C60.5646 263.255 69.9066 264.15 75.0076 262.862L70.5776 270.917C70.5776 270.917 64.9776 274.94 56.2316 270.917C50.2146 268.149 36.1716 252.968 27.9876 243.758C26.1015 241.632 24.971 238.942 24.7719 236.107C24.5728 233.271 25.3162 230.45 26.8866 228.081Z" fill="#8294BE"/>
</svg>
