<svg width="340" height="340" viewBox="0 0 340 340" fill="none" xmlns="http://www.w3.org/2000/svg">
<g clip-path="url(#clip0_2_134)">
<path d="M187.372 243.732C187.372 243.732 227.072 287.467 230.191 340.762H189.949C189.949 340.762 181.267 304.232 163.005 290.462H142.476C141.028 308.225 135.557 325.426 126.476 340.762H83.3703C89.4639 330.809 94.12 320.045 97.2003 308.789C100.398 297.269 101.016 285.185 99.0093 273.399C97.1519 262.697 96.2437 251.852 96.2953 240.99L187.372 243.732Z" fill="#5B5B81"/>
<path d="M189.708 246.465C184.317 252.174 149.971 284.802 96.5723 252.45C96.3453 248.721 96.2323 244.864 96.2933 240.99L187.372 243.732C187.372 243.732 188.234 244.683 189.708 246.465Z" fill="#333353"/>
<path d="M97.2002 308.789C100.398 297.269 101.016 285.185 99.0092 273.399C97.1519 262.697 96.2437 251.852 96.2952 240.99L110.177 241.408C110.777 245.999 111.592 250.73 112.699 255.587C112.699 255.587 127.984 307.087 99.3992 340.762H83.3702C89.4638 330.809 94.1199 320.045 97.2002 308.789V308.789Z" fill="#333353"/>
<path d="M206.79 158.988C206.79 158.988 214.27 169.047 217.107 189.681C217.107 189.681 224.989 235.788 271.272 233.271L273.388 256.864C273.388 256.864 199.607 268.458 186.995 180.764C186.995 180.762 194.925 166.726 206.79 158.988Z" fill="#FFCACF"/>
<path d="M254.15 231.762C259.748 233.129 265.521 233.637 271.272 233.271L273.388 256.864C262.832 258.053 252.145 257.122 241.954 254.126L254.15 231.762Z" fill="#E5838B"/>
<path d="M253.255 19.238C253.255 19.238 284.686 27.277 287.755 73.861C290.824 120.445 288.965 208.941 288.965 208.941L270.448 210.16C270.448 210.16 278.639 84.569 253.255 19.238Z" fill="#D2E8FF"/>
<path d="M288.963 208.941L270.446 210.16C270.446 210.16 270.833 204.223 271.178 194.268L289.346 182.858C289.183 198.48 288.963 208.941 288.963 208.941Z" fill="#96AEF4"/>
<path d="M206.79 158.988C206.79 158.988 186.129 125.973 132.905 127.37C132.905 127.37 96.0213 178.47 96.2933 240.99C96.2933 240.99 138.634 274.802 187.372 243.732C187.372 243.732 172.129 221.632 183.018 194.994C192.855 170.93 206.79 158.988 206.79 158.988Z" fill="#E9EFFF"/>
<path d="M113.263 184.519C108.06 205.879 107.456 228.102 111.493 249.713C106.104 247.408 101.002 244.481 96.2933 240.99C95.7437 231.908 96.0373 222.795 97.1703 213.768L103.37 185.194C108.423 169.026 115.559 153.585 124.6 139.261L139.554 133.384C139.554 133.384 143.8 160.2 121.24 173.9C117.288 176.252 114.422 180.068 113.263 184.519V184.519Z" fill="#8294BE"/>
<path d="M199.534 135.332L184.113 155.232C183.408 156.153 182.508 156.906 181.478 157.439C180.447 157.972 179.312 158.271 178.153 158.316C176.994 158.36 175.84 158.148 174.772 157.694C173.704 157.241 172.75 156.558 171.976 155.694C171.746 155.43 171.516 155.159 171.289 154.879C168.571 151.462 166.928 147.316 166.569 142.965C166.209 138.614 167.148 134.255 169.268 130.438L177.1 116.091C177.1 116.091 193.157 121.258 199.534 135.332Z" fill="#FFCACF"/>
<path d="M287.926 214.113H272.217V268.206C272.217 270.186 273.004 272.085 274.404 273.485C275.804 274.885 277.703 275.672 279.683 275.672H280.461C281.442 275.672 282.413 275.479 283.318 275.104C284.224 274.728 285.047 274.179 285.741 273.485C286.434 272.792 286.984 271.969 287.359 271.063C287.734 270.157 287.927 269.186 287.927 268.206V214.113H287.926Z" fill="#333353"/>
<path d="M287.6 221.394H273.27C270.984 221.394 268.791 222.302 267.174 223.919C265.557 225.536 264.648 227.728 264.648 230.015V250.609C264.648 253.003 265.6 255.299 267.292 256.992C268.985 258.685 271.281 259.636 273.675 259.636H280.341C283.628 259.645 286.8 258.423 289.232 256.212C291.665 254 293.182 250.959 293.485 247.686C294.196 239.629 294.192 232.245 293.071 225.913C292.834 224.638 292.156 223.486 291.156 222.66C290.156 221.834 288.897 221.386 287.6 221.394V221.394Z" fill="#FFCACF"/>
<path d="M243.995 195.3C245.755 194.81 247.619 194.84 249.362 195.385C256.482 197.666 256.956 206.835 256.956 206.835H278.484V206.826H304.693C304.693 206.826 320.28 206.11 320.28 221.394C320.28 229.483 316.017 232.094 312.972 232.929C311.213 233.419 309.349 233.389 307.605 232.844C300.486 230.563 300.012 221.394 300.012 221.394H278.484V221.403H252.274C252.274 221.403 236.687 222.116 236.687 206.832C236.687 198.743 240.95 196.131 243.995 195.3Z" fill="#FFB664"/>
<path d="M112.7 161.085C115.955 154.108 119.614 147.327 123.658 140.776C141.369 178.632 175.976 181.632 189.719 181.22C187.19 185.661 184.951 190.262 183.019 194.994C182.578 196.074 182.194 197.144 181.836 198.208C142.682 200.658 120.894 174.011 112.7 161.085Z" fill="#7177DB"/>
<path d="M97.1762 213.769C98.9672 204.19 101.365 194.817 103.369 185.196C127.134 223.082 165.754 217.749 179.107 214.52C179.093 219.396 179.732 224.252 181.007 228.959C140.306 246.231 107.946 223.118 97.1762 213.769Z" fill="#7177DB"/>
<path d="M199.534 135.332L193.603 142.986C184.985 139.639 177.143 134.561 170.562 128.067L177.1 116.091C177.1 116.091 193.157 121.258 199.534 135.332Z" fill="#E5838B"/>
<path d="M161.91 82.31C161.91 82.31 161.576 99.51 169.582 110.387L192.261 116.1L212.35 88.024L167.78 78.719L161.91 82.31Z" fill="#FFB664"/>
<path d="M167.78 78.719L212.35 88.024L205.33 97.836L203.085 98.521C194.205 97.5858 185.457 95.667 177 92.8C175.745 92.3526 174.396 92.2397 173.084 92.4726C171.772 92.7054 170.543 93.276 169.519 94.128C167.807 95.5312 165.878 96.6459 163.807 97.428C162.57 92.4851 161.932 87.4113 161.907 82.316L167.78 78.719Z" fill="#E87B40"/>
<path d="M211.418 88.178L197.797 97.678C194.873 101.255 191.382 104.329 187.464 106.778C187.464 106.778 183.312 98.307 175.174 99.636C173.702 99.837 172.312 100.432 171.15 101.358C169.988 102.284 169.098 103.507 168.574 104.897C167.897 106.6 167.653 108.444 167.862 110.265C168.071 112.086 168.728 113.826 169.774 115.331C171.932 118.511 176.103 122.115 183.974 122.39C183.974 122.39 191.614 139.83 214.867 139.83C215.351 139.83 215.827 139.822 216.295 139.805C230.685 139.296 241.94 127.156 241.94 112.757V86.351L211.418 88.178Z" fill="#FFCACF"/>
<path d="M230.557 109.541C230.9 109.541 231.242 109.49 231.57 109.39L235.055 108.337C235.499 108.208 235.914 107.992 236.274 107.701C236.634 107.411 236.933 107.052 237.154 106.645C237.374 106.238 237.512 105.792 237.559 105.332C237.606 104.871 237.561 104.406 237.427 103.963C237.293 103.52 237.073 103.109 236.779 102.751C236.485 102.394 236.123 102.099 235.714 101.883C235.305 101.666 234.857 101.533 234.396 101.491C233.935 101.449 233.471 101.498 233.029 101.637L229.545 102.69C228.741 102.932 228.051 103.456 227.601 104.165C227.151 104.874 226.97 105.722 227.093 106.552C227.216 107.383 227.633 108.142 228.269 108.691C228.905 109.24 229.717 109.541 230.557 109.541V109.541Z" fill="#E8808F"/>
<path d="M217.272 109.985C218.112 109.984 218.924 109.681 219.559 109.131C220.194 108.582 220.611 107.822 220.732 106.99C220.853 106.159 220.671 105.312 220.22 104.604C219.768 103.895 219.077 103.373 218.272 103.132L214.682 102.053C214.237 101.903 213.767 101.844 213.299 101.88C212.831 101.915 212.375 102.045 211.958 102.26C211.541 102.475 211.171 102.773 210.871 103.134C210.572 103.495 210.347 103.913 210.212 104.362C210.077 104.812 210.034 105.284 210.085 105.75C210.136 106.217 210.28 106.668 210.509 107.078C210.739 107.488 211.048 107.847 211.419 108.135C211.79 108.423 212.214 108.633 212.668 108.753L216.259 109.832C216.588 109.933 216.929 109.984 217.272 109.985V109.985Z" fill="#E8808F"/>
<path d="M236.687 206.832C236.687 198.743 240.95 196.132 243.995 195.297C245.755 194.807 247.619 194.837 249.362 195.382C256.482 197.663 256.956 206.832 256.956 206.832H265.893C268.336 213.313 274.115 217.032 278.946 219.086C279.203 219.193 279.414 219.385 279.544 219.63C279.675 219.875 279.717 220.157 279.662 220.43C279.608 220.702 279.46 220.947 279.246 221.122C279.031 221.298 278.762 221.394 278.484 221.394V221.394V221.403H252.274C252.274 221.403 236.687 222.116 236.687 206.832Z" fill="#E87B40"/>
<path d="M307.718 212.076C308.911 212.061 310.094 212.29 311.195 212.75C313.153 213.599 315.523 215.501 315.625 219.75V220.015C315.625 220.777 315.323 221.508 314.784 222.047C314.245 222.585 313.514 222.888 312.752 222.888C312.075 222.888 311.411 222.71 310.825 222.371C310.239 222.033 309.752 221.545 309.414 220.959L305.657 214.444C305.519 214.204 305.446 213.932 305.446 213.656C305.446 213.379 305.519 213.107 305.658 212.867C305.796 212.628 305.995 212.429 306.235 212.29C306.475 212.152 306.746 212.079 307.023 212.079L307.718 212.076Z" fill="white"/>
<path d="M241.942 86.351V96.91C223.88 103.074 197.676 97.826 197.676 97.826C200.147 94.9158 202.19 91.6673 203.741 88.179L241.942 86.351Z" fill="#E5838B"/>
<path d="M167.594 62.344C167.594 62.344 162.112 51.108 144.148 49.25C144.148 49.25 139.479 64.175 154.754 75.632L164.205 76.272L167.594 62.344Z" fill="#3B499B"/>
<path d="M246.165 72.355C246.165 72.355 251.607 75.015 250.459 82.17C249.235 89.794 240.439 90.963 240.439 90.963C240.439 90.963 203.633 98.324 169.893 84.011C167.6 86.8139 164.551 88.9007 161.109 90.0241C157.666 91.1476 153.973 91.2607 150.468 90.35C136.9 87.014 133.9 70.106 133.9 70.106C133.9 70.106 148.622 62.949 162.118 72.355C162.118 72.355 167.843 35.755 205.672 35.755C243.501 35.755 246.165 72.355 246.165 72.355Z" fill="#7177DB"/>
<path d="M246.165 72.355C246.165 72.355 223.842 78.672 203.196 74.082C202.711 73.9754 202.281 73.698 201.984 73.3003C201.687 72.9027 201.542 72.4114 201.577 71.9161C201.612 71.4209 201.824 70.9548 202.175 70.603C202.525 70.2512 202.99 70.0372 203.485 70C215.491 69.232 234.045 67.012 243.258 60.6C244.749 64.3707 245.726 68.3243 246.165 72.355V72.355Z" fill="#3B499B"/>
<path d="M110.992 195.4C109.506 204.312 108.794 213.337 108.865 222.372C104.752 219.813 100.844 216.938 97.1762 213.772C98.3975 204.084 100.47 194.523 103.369 185.199C105.621 188.806 108.171 192.218 110.992 195.4V195.4Z" fill="#3B499B"/>
<path d="M112.7 161.085C115.955 154.108 119.614 147.327 123.658 140.776C126.658 147.301 130.582 153.361 135.308 158.768C132.306 164.745 127.729 169.79 122.071 173.359C118.604 169.542 115.469 165.435 112.7 161.085Z" fill="#3B499B"/>
<path d="M138.475 127.327C138.475 127.327 57.7023 122.4 47.0533 211.485C47.0533 211.485 19.3753 215.453 19.7233 241.091C19.7203 242.87 20.3689 244.589 21.5466 245.922C22.7243 247.255 24.3495 248.111 26.1153 248.328L30.4313 247.328C31.0841 248.156 31.8514 248.887 32.7103 249.499C33.6612 250.16 34.7495 250.597 35.8935 250.777C37.0374 250.957 38.2072 250.875 39.3152 250.538C40.4231 250.202 41.4404 249.618 42.2906 248.832C43.1409 248.046 43.8019 247.077 44.2243 245.999C46.0403 241.532 50.0243 234.91 57.9623 233.559C61.6325 235.496 64.9929 237.97 67.9323 240.9C68.6566 241.676 69.5517 242.274 70.5468 242.644C71.5418 243.015 72.6095 243.149 73.6653 243.035C74.721 242.922 75.7358 242.564 76.6294 241.99C77.5229 241.417 78.2706 240.643 78.8133 239.73C78.9466 239.499 79.0723 239.261 79.1903 239.016C79.6668 238.003 79.883 236.887 79.8193 235.77C79.7555 234.652 79.4139 233.568 78.8253 232.616C76.7669 229.195 74.171 226.129 71.1373 223.534C69.7763 222.396 68.7253 220.932 68.082 219.279C67.4388 217.626 67.2242 215.837 67.4583 214.078C69.2313 201.167 78.2093 172.322 122.372 158.322C122.372 158.322 144.968 151.214 138.475 127.327Z" fill="#FFCACF"/>
<path d="M26.1152 248.32C25.8502 237.262 31.3363 231.292 36.0733 228.21C37.4393 227.321 39.1913 229.199 38.0083 230.32C35.6271 232.468 33.7226 235.091 32.4175 238.02C31.1125 240.949 30.4358 244.119 30.4313 247.326C29.2844 248.028 27.9604 248.385 26.6163 248.357C26.4473 248.354 26.2812 248.336 26.1152 248.32Z" fill="#E5838B"/>
</g>
<defs>
<clipPath id="clip0_2_134">
<rect width="340" height="340" fill="white"/>
</clipPath>
</defs>
</svg>
