<svg width="340" height="340" viewBox="0 0 340 340" fill="none" xmlns="http://www.w3.org/2000/svg">
<g clip-path="url(#clip0_2_166)">
<path d="M108.433 177.655C108.433 177.655 99.6326 193.8 74.0776 201.241C74.0776 201.241 95.5016 226.586 105.471 255.832C105.471 255.832 102.956 272.492 80.6876 273.069C70.6446 273.329 66.2296 270.189 64.4096 266.663C63.9339 265.702 63.6621 264.653 63.6113 263.583C63.5605 262.512 63.7318 261.442 64.1144 260.44C64.497 259.439 65.0827 258.528 65.8347 257.763C66.5866 256.999 67.4884 256.399 68.4836 256C71.4165 254.913 74.0815 253.208 76.2976 251C61.7522 239.836 48.8104 226.726 37.8356 212.038C35.7168 209.203 34.4409 205.828 34.1547 202.3C33.8685 198.772 34.5835 195.235 36.2176 192.096C41.8596 181.291 53.6966 161.455 72.6686 145.13C75.9588 142.255 79.7279 139.979 83.8046 138.407C87.2252 136.98 90.9515 136.444 94.6356 136.848C108.529 139.038 108.433 177.655 108.433 177.655Z" fill="#D17E83"/>
<path d="M276.688 262.9C276.688 262.9 232.381 310.405 169.128 237.568C117.634 178.268 87.5565 106.044 87.5565 106.044L103.107 91.83C103.107 91.83 186.577 233.346 276.688 262.9Z" fill="#D2E8FF"/>
<path d="M247.924 249.781C171.807 266.24 140.524 174.749 140.524 174.749L116.44 162.7C105.437 143.857 95.5181 124.403 86.7306 104.431L103.107 91.834C103.107 91.834 169.58 204.521 247.924 249.781Z" fill="#96AEF4"/>
<path d="M83.616 98.4683L102.394 88.3091L74.1115 36.0324C73.4587 34.8255 72.5746 33.759 71.5096 32.8938C70.4446 32.0286 69.2196 31.3817 67.9046 30.9899C66.5896 30.5982 65.2103 30.4693 63.8454 30.6107C62.4806 30.752 61.157 31.1608 59.9501 31.8137L59.5508 32.0297C58.3441 32.6826 57.2777 33.5668 56.4127 34.6318C55.5476 35.6968 54.9008 36.9217 54.5091 38.2367C54.1175 39.5516 53.9886 40.9309 54.13 42.2956C54.2714 43.6604 54.6802 44.9839 55.333 46.1907L83.616 98.4683Z" fill="#333353"/>
<path d="M128.388 83.646L96.9396 100.66V100.669L70.7696 114.827C64.2436 118.505 52.6696 120.41 47.3346 108.699C47.3346 108.699 44.7996 100.612 49.8516 96.313C52.0582 94.6332 54.7267 93.6703 57.4976 93.554C61.273 93.592 64.8858 95.0963 67.5726 97.749L89.0726 86.12V86.111L119.849 69.461L128.388 83.646Z" fill="#FFB664"/>
<path d="M94.9066 191.424C92.5396 160.524 79.2346 149.83 79.2346 149.83L86.7346 145.674C84.0714 144.339 81.689 142.506 79.7166 140.274C81.0383 139.563 82.4053 138.939 83.8086 138.406C87.2292 136.979 90.9555 136.443 94.6396 136.847C108.533 139.036 108.44 177.653 108.44 177.653C108.44 177.653 104.663 184.563 94.9066 191.424Z" fill="#A34F5E"/>
<path d="M203.169 140.735C203.169 140.735 223.79 155.317 227.292 185.826L252.807 161.963L266.179 171.269C266.179 171.269 261.454 208.722 233.479 232.069C231.298 233.894 228.576 234.95 225.734 235.074C222.893 235.198 220.09 234.382 217.759 232.753C208.089 225.968 191.764 212.453 181.724 192.915C181.722 192.919 188.683 162.258 203.169 140.735Z" fill="#D17E83"/>
<path d="M178.339 226.852L185.539 259.9C186.229 263.068 187.326 266.133 188.804 269.019L190.47 272.275C192.503 276.246 193.813 280.549 194.336 284.98L200.893 340.465H84.1336L87.8766 301.4C88.4615 295.293 90.1377 289.34 92.8256 283.825L93.4996 282.444C93.4996 282.444 101.553 244.536 104.274 218.953L178.339 226.852Z" fill="#5B5B81"/>
<path d="M102.747 231.027C103.347 226.839 103.869 222.756 104.274 218.949L178.339 226.849L180.473 236.649C180.473 236.649 124.786 245.426 102.747 231.027Z" fill="#333353"/>
<path d="M181.722 192.919C181.722 192.919 188.683 162.258 203.169 140.735C207.714 144.279 211.687 148.501 214.948 153.253C211.438 162.311 207.217 171.076 202.325 179.468C199.856 183.59 198.381 188.23 198.014 193.02C197.454 200.464 197.367 207.936 197.754 215.391C191.405 208.671 186.01 201.109 181.722 192.919Z" fill="#A34F5E"/>
<path d="M146.629 111.549C146.629 111.549 171.556 115.628 195.714 126.593C198.051 127.652 200.712 127.739 203.114 126.836L207.276 125.275C209.682 131.455 209.682 138.312 207.276 144.492C204.006 153.281 194.542 169.938 189.989 181.438C188.546 185.084 187.807 188.97 187.809 192.891V213.624C187.32 216.397 186.216 219.025 184.577 221.314C182.938 223.603 180.807 225.496 178.34 226.852C178.34 226.852 165.348 229.352 141.14 229.352C125.947 229.352 116.513 227.84 111.593 226.715C108.986 226.111 106.603 224.784 104.718 222.886L100.659 218.821C100.246 218.408 99.9852 217.869 99.9173 217.289C99.8495 216.71 99.9788 216.125 100.285 215.628L102.478 212.065C104.318 209.075 105.152 205.574 104.857 202.075L103.857 190.154C103.27 183.079 101.876 176.093 99.7006 169.335C97.6176 162.895 94.6186 155.424 90.7276 150.235L97.9656 146.241C97.9656 146.241 89.7296 141.999 86.7346 128.023C86.7346 128.023 102.562 126.723 110.599 123.347C122.334 118.621 134.371 114.68 146.629 111.549V111.549Z" fill="#EAE1E9"/>
<path d="M178.339 226.852L185.354 237.559C186.358 239.09 186.764 240.936 186.496 242.747C186.229 244.557 185.305 246.207 183.901 247.381C173.31 256.246 145.019 275.581 93.5005 282.44L92.0676 269.365C91.8654 267.546 92.3607 265.717 93.4537 264.249C94.5466 262.78 96.1557 261.781 97.9565 261.452C112.915 258.734 150.14 250 178.339 226.852Z" fill="#333353"/>
<path d="M153.872 260.808L149.445 249.318C149.126 248.488 148.643 247.731 148.026 247.091C147.41 246.45 146.671 245.94 145.854 245.589C145.038 245.238 144.159 245.054 143.27 245.048C142.381 245.041 141.499 245.213 140.677 245.552L128.491 250.583C126.975 251.209 125.742 252.372 125.03 253.849C124.317 255.327 124.173 257.015 124.627 258.592L127.882 269.9C128.158 270.854 128.618 271.745 129.238 272.522C129.858 273.298 130.625 273.944 131.495 274.423C132.365 274.903 133.321 275.206 134.308 275.315C135.295 275.425 136.295 275.338 137.248 275.061C141.615 273.823 145.881 272.257 150.011 270.376C151.747 269.567 153.111 268.129 153.828 266.353C154.545 264.577 154.561 262.595 153.872 260.808V260.808Z" fill="#FFB664"/>
<path d="M134.043 110.325V93.745H161.738V110.325C164.548 113.449 167.977 115.955 171.807 117.684C167.047 132.346 158.846 145.656 147.89 156.5C136.516 146.214 128.042 133.123 123.316 118.534C127.962 115.888 131.871 113.183 134.043 110.325Z" fill="#D17E83"/>
<path d="M285.745 178.6L279.811 185.118C278.54 186.517 276.812 187.417 274.937 187.655C273.063 187.894 271.164 187.455 269.585 186.418C260.091 180.178 242.396 165.439 241.567 141.859C241.285 130.584 245.281 119.619 252.752 111.169C262.17 100.319 278.552 81.927 288.044 74.054L296.106 80.529C298.201 82.2137 299.566 84.6427 299.914 87.3091C300.262 89.9756 299.568 92.6735 297.975 94.84L276.579 123.9C273.942 127.468 272.302 131.673 271.828 136.084C271.354 140.495 272.062 144.953 273.881 149C277.095 155.917 281.185 162.393 286.05 168.269C287.241 169.743 287.866 171.596 287.81 173.491C287.754 175.386 287.021 177.198 285.745 178.6V178.6Z" fill="#703A45"/>
<path d="M305.468 62.638L270.099 109.255C269.221 110.412 268.119 111.38 266.859 112.102C265.598 112.824 264.206 113.284 262.764 113.456C261.322 113.629 259.86 113.509 258.466 113.104C257.071 112.699 255.772 112.018 254.647 111.1L253.569 110.221C253.569 110.221 279.769 76.052 296.182 54.755C296.512 54.3251 296.992 54.0361 297.527 53.9457C298.061 53.8554 298.61 53.9705 299.064 54.268C301.442 55.8429 303.579 57.7568 305.405 59.949C305.717 60.3243 305.893 60.7943 305.905 61.2825C305.916 61.7708 305.762 62.2485 305.468 62.638V62.638Z" fill="#DAE5FC"/>
<path d="M286.658 150.521L276.469 139.826C275.262 138.559 273.608 137.813 271.859 137.748C270.11 137.683 268.405 138.304 267.106 139.478L264.235 142.078C262.075 144.02 260.649 146.647 260.198 149.516C259.747 152.386 260.297 155.324 261.757 157.835C263.261 160.393 265.127 162.718 267.298 164.74C269.539 166.786 272.442 167.955 275.476 168.033C278.509 168.11 281.468 167.091 283.81 165.163C284.553 164.563 285.31 163.924 286.071 163.263C286.97 162.48 287.7 161.522 288.218 160.449C288.737 159.375 289.032 158.208 289.087 157.017C289.142 155.827 288.955 154.637 288.538 153.521C288.12 152.404 287.481 151.384 286.658 150.521V150.521Z" fill="#D17E83"/>
<path d="M137.767 340.465V299.976L131.218 297.224C130.787 297.052 130.394 296.795 130.063 296.469C129.732 296.143 129.469 295.754 129.289 295.326C129.11 294.897 129.017 294.437 129.018 293.972C129.018 293.507 129.111 293.047 129.291 292.619C129.471 292.19 129.734 291.802 130.066 291.476C130.397 291.151 130.79 290.895 131.222 290.723C131.654 290.551 132.116 290.466 132.58 290.475C133.045 290.483 133.503 290.584 133.928 290.771L141.267 293.854L148.606 290.771C149.031 290.586 149.489 290.486 149.953 290.479C150.416 290.472 150.877 290.557 151.307 290.73C151.738 290.902 152.13 291.158 152.46 291.483C152.791 291.808 153.054 292.196 153.233 292.623C153.413 293.051 153.506 293.51 153.506 293.973C153.507 294.437 153.416 294.896 153.237 295.324C153.059 295.752 152.798 296.141 152.468 296.467C152.139 296.793 151.747 297.05 151.317 297.224L144.767 299.976V340.465H137.767Z" fill="#333353"/>
<path d="M142.824 176.643L139.742 174.12C139.433 173.872 139.177 173.565 138.987 173.217C138.798 172.869 138.679 172.487 138.638 172.093C138.597 171.699 138.634 171.301 138.748 170.922C138.862 170.542 139.05 170.189 139.3 169.882C139.551 169.576 139.86 169.322 140.21 169.136C140.559 168.949 140.942 168.834 141.336 168.796C141.731 168.758 142.129 168.799 142.507 168.916C142.886 169.033 143.237 169.224 143.542 169.477L147.56 172.766L151.579 169.477C152.195 168.981 152.983 168.749 153.77 168.831C154.557 168.913 155.279 169.302 155.781 169.914C156.282 170.527 156.521 171.312 156.445 172.1C156.37 172.888 155.987 173.614 155.379 174.12L152.296 176.643L155.379 179.166C155.987 179.672 156.37 180.398 156.445 181.186C156.521 181.974 156.282 182.759 155.781 183.372C155.279 183.984 154.557 184.373 153.77 184.455C152.983 184.537 152.195 184.305 151.579 183.809L147.56 180.52L143.542 183.809C142.925 184.305 142.137 184.537 141.35 184.455C140.563 184.373 139.841 183.984 139.339 183.372C138.838 182.759 138.599 181.974 138.675 181.186C138.75 180.398 139.133 179.672 139.742 179.166L142.824 176.643Z" fill="#AA878A"/>
<path d="M139.321 196.264C139.57 195.959 139.877 195.706 140.224 195.52C140.572 195.334 140.952 195.218 141.344 195.178C141.736 195.139 142.132 195.178 142.509 195.292C142.887 195.405 143.238 195.592 143.543 195.842L147.561 199.131L151.58 195.842C152.195 195.338 152.986 195.099 153.778 195.179C154.57 195.258 155.298 195.648 155.802 196.264C156.305 196.88 156.544 197.671 156.465 198.462C156.386 199.254 155.995 199.982 155.38 200.486L152.297 203.009L155.38 205.531C155.995 206.035 156.386 206.763 156.465 207.555C156.544 208.346 156.305 209.137 155.802 209.753C155.298 210.369 154.57 210.759 153.778 210.838C152.986 210.918 152.195 210.679 151.58 210.175L147.561 206.886L143.543 210.175C142.927 210.679 142.136 210.918 141.344 210.838C140.552 210.759 139.824 210.369 139.321 209.753C138.817 209.137 138.578 208.346 138.657 207.555C138.736 206.763 139.127 206.035 139.743 205.531L142.825 203.009L139.743 200.486C139.438 200.237 139.185 199.929 138.999 199.582C138.812 199.235 138.696 198.854 138.657 198.462C138.618 198.07 138.656 197.674 138.77 197.297C138.884 196.92 139.071 196.569 139.321 196.264V196.264Z" fill="#AA878A"/>
<path d="M234.167 179.4C234.758 188.7 232.512 195.5 230.059 200.009C229.86 200.372 229.539 200.652 229.153 200.8C228.767 200.949 228.341 200.956 227.951 200.82C227.56 200.684 227.231 200.414 227.02 200.058C226.81 199.702 226.733 199.283 226.803 198.875C227.602 194.574 227.767 190.179 227.292 185.83L234.167 179.4Z" fill="#A34F5E"/>
<path d="M57.5075 199.751C63.5905 201.263 70.8935 201.884 74.0775 201.241C74.0775 201.241 76.1225 203.662 79.2345 207.856C67.4155 209.389 60.1235 205.641 56.1685 202.346C55.9117 202.126 55.7365 201.826 55.6716 201.494C55.6066 201.163 55.6556 200.819 55.8106 200.518C55.9656 200.218 56.2175 199.979 56.5255 199.839C56.8335 199.7 57.1796 199.669 57.5075 199.751V199.751Z" fill="#A34F5E"/>
<path d="M134.043 93.056H161.738V107.2C158.124 109.166 153.79 110.865 149.589 110.865C144.71 110.865 138.808 108.576 134.043 106.235V93.056Z" fill="#A34F5E"/>
<path d="M180.243 58.346H184.909C186.746 58.346 188.508 59.0758 189.807 60.3749C191.106 61.6739 191.836 63.4358 191.836 65.273V68.849C191.873 72.2927 190.718 75.6432 188.566 78.332C187.062 80.2188 185.115 81.7045 182.899 82.6571C180.682 83.6097 178.264 83.9996 175.861 83.792L180.243 58.346Z" fill="#A34F5E"/>
<path d="M118.934 58.346H114.269C113.359 58.3459 112.458 58.5249 111.617 58.873C110.777 59.2211 110.013 59.7313 109.37 60.3745C108.726 61.0178 108.216 61.7814 107.868 62.6219C107.52 63.4624 107.341 64.3632 107.341 65.273V68.849C107.303 72.2927 108.459 75.6432 110.611 78.332C112.114 80.2187 114.061 81.7044 116.278 82.657C118.494 83.6096 120.912 83.9995 123.316 83.792L118.934 58.346Z" fill="#A34F5E"/>
<path d="M149.589 19.535C180.089 19.535 180.497 48.02 180.497 48.02C180.478 57.0011 179.926 65.9732 178.845 74.889C178.249 80.0231 176.235 84.8896 173.027 88.942C171.358 91.0174 169.551 92.9782 167.619 94.811C162.747 99.4166 156.293 101.975 149.589 101.958V101.958C142.885 101.975 136.431 99.4167 131.56 94.811C129.627 92.9787 127.819 91.0179 126.151 88.942C122.942 84.8898 120.928 80.0231 120.334 74.889C119.251 65.9733 118.699 57.0012 118.681 48.02C118.681 48.02 119.084 19.535 149.589 19.535Z" fill="#D17E83"/>
<path d="M158.951 66.157C159.167 66.157 159.382 66.1373 159.595 66.098L163.212 65.425C164.124 65.2553 164.932 64.7299 165.457 63.9646C165.983 63.1993 166.182 62.2566 166.013 61.344C165.843 60.4314 165.317 59.6236 164.552 59.0983C163.787 58.573 162.844 58.3733 161.932 58.543L158.315 59.216C157.457 59.3755 156.69 59.8495 156.163 60.5451C155.637 61.2406 155.389 62.1077 155.469 62.9764C155.549 63.845 155.95 64.6527 156.594 65.241C157.238 65.8294 158.078 66.156 158.951 66.157V66.157Z" fill="#A34F5E"/>
<path d="M140.53 66.157C141.402 66.156 142.242 65.8294 142.886 65.241C143.53 64.6527 143.931 63.845 144.011 62.9764C144.091 62.1077 143.843 61.2406 143.317 60.5451C142.79 59.8495 142.023 59.3755 141.166 59.216L137.549 58.543C137.097 58.459 136.633 58.4647 136.183 58.56C135.733 58.6553 135.307 58.8382 134.928 59.0983C134.549 59.3584 134.225 59.6906 133.974 60.0759C133.724 60.4612 133.552 60.8921 133.468 61.344C133.383 61.7959 133.389 62.2599 133.485 62.7095C133.58 63.1592 133.763 63.5857 134.023 63.9646C134.283 64.3436 134.615 64.6676 135 64.9182C135.386 65.1687 135.817 65.341 136.269 65.425L139.887 66.098C140.099 66.1373 140.314 66.1571 140.53 66.157V66.157Z" fill="#A34F5E"/>
<path d="M146.935 264.186L131.909 257.345C131.577 257.194 131.21 257.143 130.85 257.197C130.49 257.251 130.154 257.409 129.881 257.65C129.609 257.892 129.413 258.207 129.317 258.558C129.22 258.909 129.228 259.28 129.338 259.627L131.739 267.169C131.957 267.856 132.313 268.492 132.783 269.039C133.253 269.585 133.829 270.032 134.475 270.351C135.122 270.67 135.826 270.855 136.546 270.896C137.266 270.937 137.987 270.832 138.666 270.588L146.789 267.665C147.142 267.539 147.448 267.311 147.67 267.01C147.891 266.709 148.018 266.348 148.034 265.975C148.049 265.601 147.953 265.231 147.758 264.913C147.562 264.594 147.276 264.341 146.935 264.186V264.186Z" fill="#E87B40"/>
<path d="M49.8566 96.313C52.0632 94.6332 54.7318 93.6703 57.5026 93.554C61.2781 93.5917 64.891 95.096 67.5776 97.749L73.8076 94.379C81.6158 98.6495 90.5611 100.38 99.3986 99.329L96.9396 100.66V100.669L70.7696 114.827C64.2436 118.505 52.6696 120.41 47.3346 108.699C47.3396 108.7 44.8046 100.612 49.8566 96.313Z" fill="#E87B40"/>
<path d="M293.723 65.8227L293.724 65.8233C294.684 66.5668 294.86 67.948 294.116 68.9083L288.18 76.5761C287.437 77.5365 286.056 77.7123 285.095 76.9689L285.095 76.9682C284.134 76.2248 283.958 74.8436 284.702 73.8833L290.638 66.2155C291.381 65.2551 292.762 65.0793 293.723 65.8227Z" fill="white"/>
<path d="M281.571 81.5197L281.572 81.5203C282.532 82.2637 282.708 83.6449 281.965 84.6053L280.192 86.8952C279.449 87.8556 278.067 88.0314 277.107 87.288L277.106 87.2874C276.146 86.5439 275.97 85.1627 276.714 84.2024L278.486 81.9124C279.23 80.9521 280.611 80.7763 281.571 81.5197Z" fill="white"/>
<path d="M145.121 146.315C145.928 146.851 146.875 147.137 147.844 147.137C148.813 147.137 149.761 146.851 150.568 146.315C157.098 141.768 162.72 136.039 167.143 129.424C162.351 139.502 155.835 148.665 147.89 156.5C139.515 148.954 132.689 139.852 127.79 129.7C132.562 136.199 138.426 141.82 145.121 146.315Z" fill="#A34F5E"/>
</g>
<defs>
<clipPath id="clip0_2_166">
<rect width="340" height="340" fill="white"/>
</clipPath>
</defs>
</svg>
