<svg width="340" height="340" viewBox="0 0 340 340" fill="none" xmlns="http://www.w3.org/2000/svg">
<path d="M249.887 92.331C251.933 91.9801 253.841 91.0653 255.395 89.6895C256.949 88.3136 258.089 86.5312 258.686 84.543C259.283 82.5547 259.313 80.4393 258.773 78.4349C258.233 76.4305 257.144 74.6165 255.629 73.197C254.115 71.7775 252.234 70.8088 250.199 70.4C248.163 69.9911 246.054 70.1583 244.109 70.8827C242.164 71.607 240.459 72.8599 239.187 74.5003C237.915 76.1407 237.125 78.1035 236.908 80.168L231.37 80.934L220.939 111.351L233.073 125.924C233.707 128.229 235.113 130.247 237.055 131.642C238.997 133.037 241.358 133.724 243.745 133.588C246.132 133.453 248.401 132.504 250.173 130.899C251.945 129.294 253.114 127.13 253.484 124.768C253.868 122.536 253.505 120.24 252.451 118.236C251.398 116.232 249.712 114.631 247.656 113.682C250.118 113.417 252.417 112.323 254.176 110.58C255.934 108.837 257.049 106.548 257.336 104.089C257.603 101.576 257.012 99.047 255.66 96.9124C254.307 94.7777 252.273 93.1632 249.887 92.331Z" fill="#A8B8DB"/>
<path d="M27.392 289.459C26.6178 289.458 25.8657 289.201 25.2534 288.727C24.641 288.254 24.2031 287.59 24.008 286.841C15.121 252.741 28.301 233.405 28.866 232.598C29.4025 231.85 30.2121 231.343 31.1195 231.188C32.0269 231.033 32.959 231.241 33.7138 231.768C34.4686 232.295 34.9854 233.098 35.1522 234.004C35.319 234.909 35.1224 235.844 34.605 236.605C34.43 236.863 22.784 254.385 30.782 285.075C30.9172 285.593 30.9318 286.135 30.8247 286.659C30.7176 287.184 30.4916 287.677 30.1642 288.1C29.8368 288.523 29.4166 288.866 28.936 289.102C28.4554 289.337 27.9272 289.46 27.392 289.459V289.459Z" fill="#DAE5FC"/>
<path d="M261 211.614C261 211.614 244.978 184.605 267.272 163.98L282.861 161.58C282.861 161.58 307.64 205.543 318.892 239.294C320.879 245.239 320.917 251.663 319 257.631C315.768 267.683 309.811 284.277 302.04 297.423L265.353 285.813C265.353 285.813 272.062 269.377 280.453 247.552L261 211.614Z" fill="#567BC6"/>
<path d="M61.1699 277.86L59.516 282.011C58.98 283.341 58.7222 284.767 58.7583 286.2C58.7945 287.634 59.124 289.045 59.7263 290.346C60.3287 291.647 61.1912 292.812 62.2607 293.767C63.3303 294.722 64.5841 295.448 65.945 295.9C71.245 297.622 77.974 298.2 84.321 294.1L87.6729 283.2C87.6729 283.2 70.6 275.555 61.1699 277.86Z" fill="#E5838B"/>
<path d="M41.286 230.723C47.343 234.772 57.91 242.158 68.374 247.482L59.528 265.44C59.528 265.44 42.316 255.406 30.313 245.875C29.0772 244.903 28.1057 243.636 27.4879 242.19C26.8701 240.745 26.626 239.167 26.7779 237.602C26.9297 236.037 27.4728 234.536 28.357 233.236C29.2413 231.936 30.4383 230.879 31.838 230.163L32.117 230.026C33.5744 229.336 35.1861 229.038 36.7938 229.16C38.4014 229.283 39.9495 229.821 41.286 230.723V230.723Z" fill="#E54C5B"/>
<path d="M159.139 150.358L184.03 175L221.93 150.354L227.11 112.554L167.025 106.461C167.025 106.461 161.233 129.092 159.139 150.358Z" fill="#FFCACF"/>
<path d="M167.028 106.463C167.028 106.463 161.311 128.794 159.182 149.937L159.173 150.03V150.045C159.162 150.145 159.151 150.254 159.141 150.358L182.715 173.7L190.045 168.007L177.745 148.429C178.653 145.175 179.826 142.001 181.251 138.938C181.251 138.938 193.565 141.788 198.359 131.27C198.359 131.27 213.383 139.853 220.299 142.262C221.172 142.531 222.087 142.639 222.999 142.579L227.113 112.554L167.028 106.463Z" fill="#E5838B"/>
<path d="M165.129 147.387L182.629 165.36C191.689 159.147 201.217 153.647 211.129 148.91L216.612 161.581L218.439 298.79L148.61 287.512C148.61 287.512 146.243 195.212 165.129 147.387Z" fill="white"/>
<path d="M191.792 275.718C186.171 274.509 180.998 271.754 176.858 267.765C172.717 263.775 169.772 258.709 168.355 253.136C166.883 246.735 166.435 240.141 167.028 233.599C167.753 202.614 173.644 156.135 173.644 156.135L165.129 147.387C146.243 195.212 148.608 287.512 148.608 287.512L218.437 298.79L218.192 280.353C214.113 278.746 209.792 277.836 205.411 277.661C200.83 277.344 196.279 276.694 191.792 275.718Z" fill="#DAE5FC"/>
<path d="M128.3 145.785L111.416 196.262C111.039 197.39 110.432 198.428 109.635 199.31C108.838 200.193 107.867 200.901 106.783 201.391L105.855 201.81C104.569 202.391 103.445 203.278 102.582 204.393C101.718 205.509 101.141 206.82 100.901 208.21V208.21C100.517 210.437 99.2752 212.425 97.442 213.746L63.252 239.346L94.538 264.134C94.538 264.134 127.025 249.973 139.422 222.29C151.819 194.607 144.381 160.17 144.381 160.17L128.3 145.785Z" fill="#567BC6"/>
<path d="M138.4 193.7L134.256 210.731C133.521 213.857 132.334 216.86 130.732 219.643C128.555 223.357 126.354 225.243 123.756 228.051C116.639 235.734 103.622 247.684 87.676 252.796C85.9653 253.342 84.2861 253.983 82.646 254.714L94.54 264.137C94.54 264.137 127.027 249.976 139.424 222.293C142.739 214.893 143.483 203.672 143.396 194.293C143.394 193.674 143.166 193.077 142.754 192.614C142.342 192.152 141.776 191.856 141.161 191.783C140.546 191.71 139.926 191.865 139.417 192.218C138.908 192.571 138.547 193.098 138.4 193.7Z" fill="#38508E"/>
<path d="M174.863 129.974C174.863 129.974 168.925 136.174 167.028 155.668C165.131 175.162 159.728 237.176 159.139 283.685L132.95 278.517C132.95 278.517 136.755 219.264 142.159 180.925C142.724 176.917 142.244 172.831 140.767 169.062L130.367 142.514L174.863 129.974Z" fill="#567BC6"/>
<path d="M169.464 133.606C169.399 132.928 169.234 132.264 168.975 131.634L130.366 142.514L128.299 145.785L124.699 156.533C127.817 158.486 131.451 159.455 135.127 159.314C142.28 159.314 146.366 155.386 148.289 151.231C148.783 150.137 149.609 149.226 150.65 148.628C151.692 148.03 152.895 147.775 154.089 147.9L167.02 149.338C167.02 149.338 169.3 134.369 169.464 133.606Z" fill="#38508E"/>
<path d="M131.648 154.171L132.859 154.332C135.228 154.646 137.634 154.154 139.689 152.935C141.745 151.716 143.33 149.84 144.191 147.611L146.339 142.044L169.15 143.051C169.15 143.051 171.676 133.642 174.863 129.974L140.863 128.298C137.036 128.084 133.24 129.102 130.033 131.202C126.826 133.302 124.377 136.375 123.043 139.969C122.999 140.089 122.957 140.21 122.915 140.332C122.426 141.817 122.271 143.393 122.462 144.945C122.652 146.497 123.184 147.988 124.019 149.31C124.853 150.633 125.97 151.755 127.289 152.595C128.608 153.435 130.097 153.973 131.648 154.171V154.171Z" fill="#FFB664"/>
<path d="M173.644 129.914L140.862 128.3C137.034 128.086 133.239 129.104 130.032 131.204C126.825 133.304 124.375 136.377 123.042 139.971C122.998 140.091 122.956 140.212 122.914 140.334C122.872 140.456 122.842 140.604 122.801 140.734C127.191 134.702 135.123 134.434 135.123 134.434L161.023 135.441C161.023 135.441 171.068 136.041 172.667 133.486L172.674 133.473C172.722 133.395 172.763 133.313 172.795 133.227C173.166 132.147 173.45 131.039 173.644 129.914V129.914Z" fill="#E87B40"/>
<path d="M205.463 157.903L205.411 172.68V289.482L255.423 298.79L260.995 211.614L284.535 177.65L269.704 150.908L236.445 145.785L205.463 157.903Z" fill="#567BC6"/>
<path d="M269.7 150.908L236.441 145.785L218 153L214.106 158.765C228.429 158.095 242.784 158.861 256.954 161.053C257.8 161.191 258.602 161.524 259.296 162.026C259.991 162.529 260.558 163.186 260.954 163.946C263.282 168.457 269.7 177.529 282.44 173.872L269.7 150.908Z" fill="#38508E"/>
<path d="M242.028 138.94C253.598 139.055 266.158 139.534 274.677 141.487C282.332 142.167 288.506 147.403 291.511 154.476C292.646 157.093 293.196 159.925 293.124 162.776C293.124 162.776 292.55 174.013 281.412 174.894C281.412 174.894 265.012 175.199 265.765 157.115C252.244 154.496 238.519 153.079 224.748 152.88L242.028 138.94Z" fill="#FFB664"/>
<path d="M282.842 144.194C280.367 142.671 277.572 141.745 274.677 141.487C266.158 139.534 253.598 139.055 242.028 138.94L233.51 145.81C240.449 145.91 259.371 146.397 268.688 148.796C271.65 149.551 274.439 150.866 276.907 152.669C277.749 153.37 278.789 153.793 279.882 153.878C280.974 153.963 282.067 153.706 283.007 153.143L283.117 153.072C283.841 152.568 284.428 151.891 284.824 151.103C285.22 150.315 285.413 149.44 285.386 148.558C285.359 147.677 285.112 146.816 284.667 146.054C284.223 145.292 283.596 144.652 282.842 144.194V144.194Z" fill="#E87B40"/>
<path d="M242.7 139C240.403 131.178 236.652 123.859 231.645 117.425C225.944 124.052 219.268 129.774 211.845 134.392C209.871 135.648 208.246 137.383 207.122 139.435C205.997 141.487 205.41 143.79 205.414 146.13V163.647C218.437 158.449 233.691 149.536 242.7 139Z" fill="#38508E"/>
<path d="M166.3 163.423L157.967 142.4C156.671 139.317 156.18 135.955 156.541 132.63C157.19 127.23 159.781 124.476 163.88 123.83L181.255 121.099C181.255 121.099 169.677 143 166.3 163.423Z" fill="#38508E"/>
<path d="M177.35 159.942C175.662 172.896 170.878 216.777 171.969 291.285L177.928 292.247C177.793 235.113 182.628 165.36 182.628 165.36L177.35 159.942Z" fill="#DAE5FC"/>
<path d="M159.463 268.919C146.343 266.019 136.832 263.585 134.053 262.863C133.342 272.413 132.953 278.517 132.953 278.517L159.142 283.685C159.2 278.906 159.311 273.962 159.463 268.919Z" fill="#38508E"/>
<path d="M256.482 282.219C241.082 282.329 222.96 280.374 205.411 277.661V289.482L255.423 298.79L256.482 282.219Z" fill="#38508E"/>
<path d="M241.566 80.307C241.273 91.668 238.719 115.995 222.797 126.129C221.225 127.111 219.442 127.704 217.595 127.861C215.748 128.017 213.89 127.732 212.175 127.029C208.136 125.409 204.21 123.52 200.423 121.376L184.03 108.707V68.224L240.5 67.8L240.911 70.42C241.428 73.6891 241.647 76.9983 241.566 80.307Z" fill="#FFCACF"/>
<path d="M184.03 108.707C188.81 113.75 194.342 118.022 200.43 121.372C200.393 118.634 199.513 115.973 197.91 113.753C207.064 101.526 197.91 93.153 197.91 93.153C204.66 91.026 205.416 82.053 205.416 82.053L199.574 71.087L184.8 68.218L184.033 68.224L184.03 108.707Z" fill="#E5838B"/>
<path d="M240.5 67.8L184.029 68.228V81.035C195.893 83.408 217.87 86.224 241.529 81.352C241.542 80.993 241.553 80.644 241.562 80.307C241.643 76.997 241.425 73.6865 240.908 70.416L240.5 67.8Z" fill="#E5838B"/>
<path d="M180.532 133.231C180.532 133.231 150.008 129.767 132.075 115.8C124.846 110.17 128.675 98.573 137.833 98.5C138.3 98.496 138.783 98.509 139.284 98.539C139.284 98.539 136.914 83.827 151.135 80.93C151.135 80.93 148.106 65.919 159.167 63.154L189.979 68.554L186.536 91.86L180.532 133.231Z" fill="white"/>
<path d="M198.844 81.565C198.843 83.0116 198.542 84.4424 197.96 85.7668C197.378 87.0912 196.528 88.2806 195.463 89.2597C194.398 90.2388 193.142 90.9864 191.773 91.4552C190.404 91.924 188.954 92.1039 187.512 91.9834C186.07 91.863 184.669 91.4448 183.398 90.7554C182.126 90.066 181.011 89.1203 180.123 87.978C179.235 86.8358 178.594 85.5218 178.24 84.1192C177.886 82.7166 177.827 81.2557 178.066 79.829C178.066 79.829 183.2 71.1 188.383 71.1C189.757 71.1001 191.118 71.3709 192.387 71.8969C193.656 72.423 194.81 73.1939 195.781 74.1657C196.752 75.1375 197.523 76.2911 198.048 77.5607C198.574 78.8303 198.844 80.1909 198.844 81.565V81.565Z" fill="white"/>
<path d="M188.383 87.721C191.783 87.721 194.539 84.9649 194.539 81.565C194.539 78.1651 191.783 75.409 188.383 75.409C184.983 75.409 182.227 78.1651 182.227 81.565C182.227 84.9649 184.983 87.721 188.383 87.721Z" fill="#A8B8DB"/>
<path d="M196.431 102.832C196.493 104.244 196.268 105.654 195.77 106.977C195.272 108.3 194.512 109.509 193.534 110.53C192.557 111.551 191.383 112.364 190.083 112.919C188.783 113.474 187.384 113.761 185.97 113.761C184.556 113.761 183.157 113.474 181.857 112.919C180.557 112.364 179.383 111.551 178.406 110.53C177.428 109.509 176.668 108.3 176.17 106.977C175.672 105.654 175.447 104.244 175.509 102.832C175.509 96.801 180.82 90.989 186.536 91.867C192.528 92.788 196.431 96.8 196.431 102.832Z" fill="white"/>
<path d="M192.231 102.341C192.231 104.002 191.571 105.594 190.397 106.768C189.223 107.942 187.631 108.602 185.97 108.602C184.309 108.602 182.717 107.942 181.543 106.768C180.369 105.594 179.709 104.002 179.709 102.341C179.709 98.883 182.888 95.551 186.309 96.055C189.9 96.583 192.231 98.883 192.231 102.341Z" fill="#A8B8DB"/>
<path d="M193.69 124.544C193.097 127.441 191.378 129.984 188.91 131.613C186.442 133.242 183.428 133.824 180.531 133.231C177.634 132.639 175.092 130.919 173.462 128.451C171.833 125.984 171.251 122.97 171.844 120.073C172.405 117.211 174.078 114.688 176.496 113.057C178.914 111.426 181.88 110.821 184.744 111.373C186.198 111.646 187.584 112.204 188.822 113.015C190.06 113.826 191.125 114.873 191.957 116.097C192.788 117.322 193.37 118.698 193.667 120.148C193.964 121.597 193.972 123.091 193.69 124.544Z" fill="white"/>
<path d="M80.632 241.079C80.632 241.079 61.017 228.1 50.139 248.545C47.4624 254.085 45.395 259.899 43.973 265.885C43.4951 268.072 43.8858 270.36 45.0628 272.265C46.2398 274.169 48.1109 275.542 50.281 276.093C50.4964 276.146 50.7184 276.194 50.947 276.238L55.164 276.5C56.2522 278.375 57.8331 279.916 59.7353 280.956C61.6375 281.997 63.7882 282.496 65.954 282.4C67.3259 282.291 68.6902 282.101 70.04 281.833C70.04 281.833 81.692 292.012 91.103 277.833C94.1442 273.349 96.3419 268.348 97.588 263.075C98.2416 260.174 97.9794 257.142 96.8374 254.397C95.6954 251.652 93.73 249.328 91.212 247.747L80.632 241.079Z" fill="#FFCACF"/>
<path d="M89.774 298.6C88.6062 298.852 87.3989 298.859 86.2282 298.621C85.0575 298.384 83.9488 297.906 82.972 297.218C81.9953 296.53 81.1717 295.647 80.5533 294.625C79.9349 293.603 79.535 292.463 79.379 291.279C78.51 284.641 79.611 274.152 89.461 261.302C96.427 252.215 103.913 248.715 109.567 247.464C110.83 247.186 112.14 247.196 113.399 247.493C114.658 247.791 115.834 248.368 116.839 249.182C117.845 249.996 118.654 251.026 119.207 252.196C119.759 253.365 120.041 254.644 120.032 255.938C119.978 261.884 118.357 270.615 111.938 281.438C104.974 293.172 96.088 297.252 89.774 298.6Z" fill="#FFB664"/>
<path d="M86.879 289.233C86.8178 290.491 87.0911 291.743 87.6712 292.861C88.2513 293.979 89.1174 294.923 90.1813 295.597C91.2452 296.271 92.4688 296.651 93.7274 296.699C94.986 296.746 96.2346 296.459 97.346 295.866C102.21 293.343 107.469 288.966 111.938 281.433C116.973 272.944 119.057 265.741 119.746 260.16C119.881 259.027 119.718 257.879 119.275 256.828C118.831 255.777 118.122 254.859 117.216 254.165C116.311 253.471 115.241 253.024 114.11 252.869C112.98 252.714 111.829 252.855 110.77 253.279L110.555 253.368C103.687 256.3 92.075 265.988 88.549 279.699C87.6722 282.813 87.1127 286.007 86.879 289.233V289.233Z" fill="#E87B40"/>
<path d="M103.294 277.891C105.103 274.814 107.235 271.938 109.654 269.312C110.239 268.684 110.993 268.237 111.824 268.025C112.656 267.812 113.531 267.842 114.346 268.112C120.085 270.036 134.318 274.644 144.946 276.743L136.88 292.158C136.88 292.158 118.402 288.558 104.571 282.085C104.198 281.909 103.866 281.656 103.596 281.343C103.326 281.031 103.124 280.666 103.004 280.271C102.884 279.876 102.848 279.46 102.897 279.05C102.947 278.64 103.082 278.246 103.294 277.891V277.891Z" fill="#D2E8FF"/>
<path d="M327.028 320.064V297.423C327.028 297.423 230.896 296.208 145.135 274.066C144.101 273.796 143.013 273.811 141.987 274.108C140.961 274.406 140.034 274.976 139.305 275.757C135.979 279.464 133.326 283.723 131.465 288.343C131.143 289.109 130.985 289.934 131.003 290.765C131.021 291.596 131.213 292.414 131.567 293.165C131.921 293.917 132.43 294.586 133.059 295.128C133.689 295.671 134.425 296.075 135.221 296.314C173.077 307.606 239.531 322.09 327.028 320.064Z" fill="#333353"/>
<path d="M16.533 286.466C17.6579 284.807 19.1574 283.435 20.9104 282.463C22.6634 281.49 24.6206 280.944 26.6239 280.868C28.6271 280.792 30.6202 281.188 32.4418 282.025C34.2635 282.862 35.8627 284.116 37.11 285.685C38.7278 287.633 39.6195 290.082 39.633 292.614C39.8 300.656 43.917 310.066 45.687 313.754C45.7819 313.95 45.8311 314.164 45.8308 314.382C45.8305 314.599 45.7808 314.814 45.6855 315.009C45.5901 315.205 45.4516 315.376 45.2803 315.51C45.1091 315.644 44.9097 315.737 44.697 315.783C42.3293 316.306 39.9199 316.617 37.497 316.714C36.4951 316.743 35.5067 316.476 34.6549 315.948C33.8031 315.42 33.1254 314.652 32.706 313.742L29.106 305.942C27.9177 308.907 27.2868 312.066 27.245 315.26C27.2493 315.489 27.2057 315.716 27.117 315.928C27.0283 316.139 26.8965 316.329 26.7299 316.487C26.5634 316.644 26.3658 316.765 26.1499 316.841C25.934 316.918 25.7045 316.948 25.476 316.931L22.322 316.665C15.844 316.265 14.102 312.121 13.558 308.365C12.675 302.325 12.223 292.761 16.533 286.466Z" fill="#FFB664"/>
<path d="M251.2 316.441C251.2 316.441 244.646 328.268 254.359 335.614C258.513 338.621 263.623 340.003 268.726 339.502C277.143 338.915 282.986 331.31 280.203 324.076C280.098 323.804 279.982 323.528 279.857 323.248C275.807 314.311 251.2 316.441 251.2 316.441Z" fill="#E5838B"/>
<path d="M284.535 284.327C284.535 284.327 261.962 274.36 254.317 297.427C252.527 303.626 251.415 310.002 251 316.441C250.891 318.787 251.699 321.083 253.252 322.845C254.804 324.608 256.981 325.697 259.322 325.885C259.599 325.905 259.884 325.916 260.177 325.919L264.444 325.445C265.838 327.121 267.649 328.399 269.694 329.153C271.739 329.906 273.947 330.107 276.095 329.736L280.767 328.336C280.767 328.336 294.611 336.807 301.843 320.484C304.197 315.312 305.588 309.755 305.948 304.084C306.112 300.969 305.306 297.879 303.64 295.242C301.975 292.604 299.531 290.548 296.648 289.358L284.535 284.327Z" fill="#FFCACF"/>
<path d="M56.409 258.569C53.1331 263.903 51.2552 269.976 50.949 276.228C52.3381 276.487 53.7532 276.578 55.164 276.5C55.2891 270.684 56.2883 264.919 58.128 259.4C58.2081 259.177 58.2028 258.932 58.1132 258.712C58.0235 258.493 57.8558 258.314 57.6423 258.211C57.4288 258.108 57.1847 258.087 56.957 258.154C56.7293 258.22 56.5341 258.368 56.409 258.569V258.569Z" fill="#E5838B"/>
<path d="M71.243 264.968C68.2876 270.348 66.4862 276.285 65.954 282.4C67.3333 282.373 68.7046 282.184 70.04 281.838C70.1793 276.368 71.1872 270.954 73.026 265.8C73.1163 265.567 73.1146 265.308 73.0213 265.076C72.928 264.844 72.7501 264.656 72.5235 264.55C72.2969 264.445 72.0385 264.429 71.8008 264.506C71.5631 264.584 71.3637 264.749 71.243 264.968V264.968Z" fill="#E5838B"/>
<path d="M265.65 308.813C262.652 314.069 260.788 319.893 260.176 325.913C261.611 325.921 263.043 325.765 264.442 325.447C264.99 320.102 266.066 314.825 267.654 309.692C267.737 309.433 267.721 309.152 267.609 308.904C267.497 308.656 267.298 308.458 267.048 308.349C266.799 308.24 266.518 308.227 266.26 308.312C266.002 308.398 265.784 308.576 265.65 308.813V308.813Z" fill="#E5838B"/>
<path d="M282.106 311.983C278.801 317.377 276.746 323.443 276.093 329.736C277.706 329.481 279.278 329.01 280.765 328.336C281.416 323.116 282.522 317.963 284.072 312.936C284.16 312.681 284.152 312.403 284.049 312.155C283.946 311.906 283.755 311.703 283.513 311.586C283.27 311.468 282.993 311.444 282.734 311.517C282.475 311.59 282.251 311.756 282.106 311.983Z" fill="#E5838B"/>
<path d="M152.786 238.888C152.686 238.888 152.586 238.888 152.486 238.873L146.686 238.304C146.279 238.27 145.883 238.156 145.521 237.968C145.159 237.78 144.838 237.522 144.577 237.208C144.315 236.895 144.119 236.533 143.999 236.143C143.879 235.753 143.837 235.343 143.877 234.936C143.917 234.53 144.037 234.136 144.23 233.777C144.424 233.418 144.687 233.1 145.004 232.844C145.321 232.587 145.687 232.396 146.078 232.282C146.47 232.167 146.881 232.132 147.286 232.178L153.086 232.747C153.872 232.825 154.598 233.202 155.114 233.8C155.629 234.398 155.895 235.171 155.857 235.96C155.818 236.749 155.478 237.493 154.907 238.038C154.335 238.583 153.576 238.887 152.786 238.888V238.888Z" fill="#FFB664"/>
<path d="M150.539 258.116C150.439 258.116 150.339 258.11 150.239 258.101L144.439 257.532C143.627 257.452 142.879 257.053 142.361 256.423C141.842 255.792 141.596 254.981 141.676 254.169C141.755 253.356 142.154 252.608 142.785 252.09C143.416 251.572 144.227 251.325 145.039 251.405L150.839 251.974C151.627 252.049 152.356 252.425 152.873 253.024C153.391 253.623 153.659 254.398 153.62 255.188C153.582 255.979 153.24 256.724 152.666 257.269C152.092 257.815 151.331 258.118 150.539 258.116V258.116Z" fill="#FFB664"/>
<path d="M154.112 218.691C153.981 218.691 153.85 218.683 153.72 218.667L148.347 217.983C147.537 217.88 146.802 217.459 146.302 216.814C145.802 216.168 145.579 215.351 145.682 214.541C145.785 213.731 146.206 212.995 146.851 212.496C147.497 211.996 148.314 211.773 149.124 211.876L154.497 212.56C155.273 212.659 155.981 213.05 156.479 213.653C156.977 214.256 157.227 215.026 157.178 215.806C157.129 216.586 156.784 217.319 156.215 217.854C155.646 218.39 154.894 218.689 154.112 218.691V218.691Z" fill="#FFB664"/>
<path d="M155.388 199.812C155.307 199.812 155.227 199.812 155.146 199.803L149.606 199.373C149.199 199.347 148.802 199.24 148.437 199.058C148.072 198.877 147.747 198.625 147.48 198.317C147.213 198.01 147.01 197.652 146.882 197.265C146.755 196.878 146.705 196.469 146.737 196.063C146.769 195.657 146.881 195.261 147.066 194.898C147.252 194.535 147.508 194.213 147.819 193.95C148.131 193.687 148.491 193.489 148.88 193.366C149.268 193.244 149.677 193.199 150.083 193.236L155.623 193.666C156.414 193.73 157.15 194.097 157.677 194.691C158.204 195.284 158.482 196.058 158.451 196.852C158.421 197.645 158.085 198.396 157.514 198.947C156.944 199.499 156.182 199.809 155.388 199.812V199.812Z" fill="#FFB664"/>
<path d="M157.437 179.086C157.357 179.086 157.277 179.083 157.197 179.077L152.029 178.677C151.626 178.646 151.233 178.536 150.873 178.353C150.512 178.17 150.191 177.918 149.928 177.611C149.665 177.304 149.465 176.949 149.339 176.564C149.214 176.18 149.165 175.775 149.196 175.372C149.227 174.969 149.337 174.576 149.52 174.216C149.703 173.855 149.955 173.534 150.262 173.271C150.569 173.008 150.924 172.808 151.309 172.682C151.693 172.557 152.098 172.508 152.501 172.539L157.669 172.939C158.462 173 159.201 173.365 159.731 173.959C160.261 174.553 160.54 175.329 160.51 176.124C160.48 176.919 160.143 177.672 159.57 178.224C158.997 178.776 158.233 179.085 157.437 179.086V179.086Z" fill="#FFB664"/>
<path d="M221.932 183.022C221.004 183.046 220.104 182.701 219.43 182.061C218.757 181.422 218.365 180.541 218.341 179.613C218.317 178.685 218.662 177.785 219.302 177.111C219.941 176.438 220.822 176.046 221.75 176.022L225.778 175.809C226.239 175.781 226.701 175.844 227.138 175.996C227.574 176.147 227.976 176.384 228.321 176.691C228.665 176.999 228.946 177.371 229.146 177.788C229.346 178.204 229.461 178.656 229.485 179.118C229.51 179.579 229.443 180.04 229.288 180.476C229.133 180.911 228.894 181.311 228.583 181.653C228.273 181.996 227.898 182.273 227.48 182.47C227.062 182.666 226.609 182.778 226.148 182.799L222.12 183.012C222.057 183.021 222 183.022 221.932 183.022Z" fill="#FFB664"/>
<path d="M221.932 203.734C221.004 203.758 220.104 203.413 219.43 202.773C218.757 202.134 218.365 201.253 218.341 200.325C218.317 199.397 218.662 198.497 219.302 197.823C219.941 197.15 220.822 196.758 221.75 196.734L225.778 196.52C226.239 196.492 226.701 196.555 227.138 196.707C227.574 196.858 227.976 197.095 228.321 197.402C228.665 197.71 228.946 198.082 229.146 198.499C229.346 198.915 229.461 199.367 229.485 199.829C229.51 200.29 229.443 200.751 229.288 201.187C229.133 201.622 228.894 202.022 228.583 202.364C228.273 202.707 227.898 202.984 227.48 203.181C227.062 203.377 226.609 203.489 226.148 203.51L222.12 203.724C222.057 203.732 222 203.734 221.932 203.734Z" fill="#FFB664"/>
<path d="M221.932 223.453C221.004 223.477 220.104 223.132 219.43 222.492C218.757 221.853 218.365 220.972 218.341 220.044C218.317 219.116 218.662 218.216 219.302 217.542C219.941 216.869 220.822 216.477 221.75 216.453L225.778 216.24C226.237 216.216 226.696 216.282 227.13 216.435C227.563 216.589 227.962 216.826 228.304 217.133C228.645 217.441 228.923 217.813 229.121 218.227C229.319 218.642 229.434 219.092 229.458 219.551C229.482 220.01 229.416 220.469 229.263 220.903C229.109 221.336 228.872 221.735 228.565 222.077C228.257 222.418 227.885 222.696 227.471 222.894C227.056 223.092 226.606 223.207 226.147 223.231L222.12 223.444C222.057 223.452 221.994 223.453 221.932 223.453Z" fill="#FFB664"/>
<path d="M221.932 244.852C221.004 244.876 220.104 244.531 219.43 243.891C218.757 243.252 218.365 242.371 218.341 241.443C218.317 240.515 218.662 239.615 219.302 238.941C219.941 238.268 220.822 237.876 221.75 237.852L225.778 237.639C226.239 237.611 226.702 237.674 227.138 237.825C227.575 237.976 227.978 238.213 228.323 238.52C228.668 238.828 228.948 239.201 229.148 239.618C229.348 240.034 229.464 240.486 229.488 240.948C229.513 241.409 229.445 241.871 229.29 242.307C229.135 242.742 228.895 243.142 228.585 243.485C228.274 243.827 227.899 244.104 227.48 244.301C227.062 244.497 226.609 244.609 226.147 244.629L222.12 244.842C222.057 244.85 221.994 244.852 221.932 244.852Z" fill="#FFB664"/>
<path d="M221.932 266.25C221.004 266.274 220.104 265.929 219.43 265.289C218.757 264.65 218.365 263.769 218.341 262.841C218.317 261.913 218.662 261.013 219.302 260.339C219.941 259.666 220.822 259.274 221.75 259.25L225.778 259.037C226.701 258.995 227.602 259.32 228.286 259.94C228.971 260.561 229.382 261.426 229.431 262.348C229.48 263.271 229.162 264.175 228.547 264.864C227.932 265.553 227.07 265.971 226.148 266.027L222.12 266.24C222.057 266.249 222 266.25 221.932 266.25Z" fill="#FFB664"/>
<path d="M231.036 94.052C230.225 94.052 229.443 93.746 228.847 93.195C228.252 92.6441 227.886 91.8887 227.823 91.0798C227.76 90.2708 228.004 89.4678 228.507 88.8311C229.01 88.1944 229.735 87.7708 230.536 87.645L233.83 87.126C234.667 87.0092 235.517 87.2259 236.196 87.7294C236.874 88.233 237.328 88.983 237.459 89.818C237.591 90.653 237.389 91.5061 236.897 92.1935C236.405 92.8809 235.663 93.3475 234.83 93.493L231.536 94.013C231.371 94.0385 231.204 94.0515 231.036 94.052V94.052Z" fill="#E8808F"/>
<path d="M217.57 94.365C217.361 94.3813 217.15 94.3776 216.941 94.354L213.179 93.921C212.748 93.8864 212.328 93.7653 211.945 93.5651C211.561 93.3648 211.222 93.0893 210.947 92.7552C210.673 92.421 210.468 92.035 210.346 91.6201C210.223 91.2052 210.186 90.7699 210.235 90.3401C210.284 89.9104 210.42 89.4949 210.633 89.1186C210.847 88.7423 211.134 88.4128 211.477 88.1498C211.82 87.8867 212.213 87.6955 212.632 87.5874C213.051 87.4794 213.487 87.4568 213.915 87.521L217.677 87.954C218.473 88.0446 219.206 88.4283 219.735 89.0302C220.263 89.6321 220.548 90.4092 220.535 91.2101C220.522 92.0109 220.211 92.778 219.662 93.362C219.114 93.946 218.368 94.305 217.57 94.369V94.365Z" fill="#E8808F"/>
<path d="M188.383 71.1C188.01 71.082 189.197 69.293 189.197 69.293L159.167 63.154C148.106 65.919 151.135 80.93 151.135 80.93C136.914 83.83 139.284 98.539 139.284 98.539C138.772 98.508 138.284 98.496 137.805 98.5C128.605 98.582 124.818 110.144 132.074 115.8C134.664 117.791 137.414 119.563 140.296 121.1C138.775 113.364 140.823 108.826 143.31 106.2C151.76 109.27 160.558 111.281 169.502 112.189C169.806 112.223 170.111 112.141 170.356 111.959C170.602 111.778 170.77 111.51 170.826 111.21C170.882 110.909 170.823 110.599 170.66 110.341C170.497 110.082 170.242 109.895 169.947 109.817C165.815 108.737 161.904 107.527 158.352 106.317C155.646 105.393 153.409 103.445 152.122 100.891C150.835 98.3369 150.6 95.3803 151.467 92.655C152.394 89.772 153.519 87.172 154.739 86.29C159.664 88.1402 164.765 89.4838 169.962 90.3C170.269 90.3559 170.585 90.2915 170.845 90.1201C171.106 89.9488 171.29 89.6836 171.36 89.3799C171.429 89.0762 171.379 88.7573 171.22 88.4895C171.061 88.2216 170.804 88.0256 170.504 87.942C167.553 87.079 164.91 86.23 162.604 85.442C161.14 84.9473 159.902 83.9441 159.114 82.6144C158.326 81.2847 158.041 79.7168 158.311 78.195C158.591 76.7401 159.166 75.3578 160 74.133C167.9 76.676 178.072 79.833 178.072 79.833C182.079 80.567 186.262 80.098 189.984 80.209C189.984 80.209 196.965 80.529 197.374 86.909C198.384 85.3084 198.943 83.4649 198.992 81.573C198.987 75 194.154 71.379 188.383 71.1Z" fill="#A8B8DB"/>
<path d="M276.262 239.8L280.462 247.548C285.43 245.431 290.83 244.523 296.218 244.9C296.64 244.945 297.064 244.841 297.418 244.607C297.772 244.373 298.033 244.023 298.157 243.617C298.281 243.211 298.26 242.775 298.098 242.383C297.935 241.991 297.641 241.668 297.266 241.469C293.305 239.344 286.748 237.767 276.262 239.8Z" fill="#38508E"/>
<path d="M193.545 186.522C195.478 186.522 197.045 184.955 197.045 183.022C197.045 181.089 195.478 179.522 193.545 179.522C191.612 179.522 190.045 181.089 190.045 183.022C190.045 184.955 191.612 186.522 193.545 186.522Z" fill="#DAE5FC"/>
<path d="M192.776 203.012C194.709 203.012 196.276 201.445 196.276 199.512C196.276 197.579 194.709 196.012 192.776 196.012C190.843 196.012 189.276 197.579 189.276 199.512C189.276 201.445 190.843 203.012 192.776 203.012Z" fill="#DAE5FC"/>
<path d="M192.478 219.503C194.411 219.503 195.978 217.936 195.978 216.003C195.978 214.07 194.411 212.503 192.478 212.503C190.545 212.503 188.978 214.07 188.978 216.003C188.978 217.936 190.545 219.503 192.478 219.503Z" fill="#DAE5FC"/>
<path d="M191.637 236.191C193.57 236.191 195.137 234.624 195.137 232.691C195.137 230.758 193.57 229.191 191.637 229.191C189.704 229.191 188.137 230.758 188.137 232.691C188.137 234.624 189.704 236.191 191.637 236.191Z" fill="#DAE5FC"/>
<path d="M191.205 256.868C193.138 256.868 194.705 255.301 194.705 253.368C194.705 251.435 193.138 249.868 191.205 249.868C189.272 249.868 187.705 251.435 187.705 253.368C187.705 255.301 189.272 256.868 191.205 256.868Z" fill="#DAE5FC"/>
<path d="M188.885 123.039C188.895 123.868 188.741 124.69 188.431 125.459C188.121 126.228 187.662 126.927 187.08 127.517C186.497 128.107 185.804 128.575 185.039 128.895C184.274 129.215 183.453 129.379 182.625 129.379C181.796 129.379 180.975 129.215 180.21 128.895C179.446 128.575 178.752 128.107 178.169 127.517C177.587 126.927 177.128 126.228 176.818 125.459C176.508 124.69 176.354 123.868 176.364 123.039C176.364 119.581 179.542 116.249 182.964 116.753C186.549 117.28 188.885 119.581 188.885 123.039Z" fill="#A8B8DB"/>
<path d="M250.258 185.9C248.096 194.469 249 207.221 260.158 224.782L261 211.612C261 211.612 253.8 198.936 254.011 186.373C254.025 185.901 253.863 185.44 253.556 185.081C253.248 184.722 252.818 184.49 252.35 184.431C251.881 184.372 251.407 184.49 251.02 184.761C250.633 185.033 250.362 185.439 250.258 185.9V185.9Z" fill="#38508E"/>
<path d="M32.7 313.742C33.1194 314.652 33.7971 315.42 34.6489 315.948C35.5007 316.476 36.4891 316.743 37.491 316.714C39.9139 316.617 42.3233 316.306 44.691 315.783C44.9037 315.737 45.1031 315.644 45.2743 315.51C45.4456 315.376 45.5841 315.205 45.6794 315.009C45.7748 314.814 45.8245 314.599 45.8248 314.382C45.825 314.164 45.7759 313.95 45.681 313.754C43.911 310.066 39.794 300.654 39.627 292.614C39.6135 290.082 38.7218 287.633 37.104 285.685C36.2061 284.603 35.1446 283.668 33.958 282.914C34.267 289.414 33.042 305.657 13.217 305.648C13.311 306.61 13.423 307.528 13.546 308.371C14.09 312.125 15.832 316.271 22.31 316.671L25.464 316.937C25.6925 316.954 25.922 316.924 26.1379 316.847C26.3538 316.771 26.5514 316.65 26.7179 316.493C26.8845 316.335 27.0163 316.145 27.105 315.934C27.1937 315.722 27.2373 315.495 27.233 315.266C27.2748 312.072 27.9057 308.913 29.094 305.948L32.7 313.742Z" fill="#E87B40"/>
<path d="M265.347 55.232C265.438 57.8436 264.774 60.4262 263.434 62.6698C262.094 64.9134 260.136 66.7228 257.793 67.881C249.301 72.081 236.949 75.409 219.129 75.409C188.378 75.409 152.849 64.884 136.789 57.209L131.371 54.266C131.371 54.266 132.027 43.013 151.831 42.51C171.635 42.007 205.871 18.343 205.871 18.343L235.911 40L261.589 30.267C263.915 38.3915 265.178 46.783 265.347 55.232V55.232Z" fill="#567BC6"/>
<path d="M167.955 38.774C162.197 40.925 156.595 42.394 151.831 42.515C132.031 43.015 131.371 54.271 131.371 54.271L136.789 57.214C145.405 61.1193 154.32 64.3295 163.448 66.814C160.055 55.259 163.542 45.6 167.955 38.774Z" fill="#38508E"/>
<path d="M136.789 57.214C133.255 55.81 129.8 54.2163 126.438 52.44C118.606 48.285 120.917 36.374 129.738 35.477C131.892 35.2752 134.06 35.2752 136.214 35.477C136.214 35.477 160.714 38.045 177.922 27.792C185.713 23.151 192.648 18.592 197.711 15.131C200.328 13.3462 203.428 12.4049 206.596 12.4333C209.763 12.4617 212.846 13.4586 215.431 15.29C220.279 18.715 226.412 23.248 232.179 28.08C233.905 29.5227 236.098 30.2853 238.346 30.2246C240.595 30.1638 242.744 29.2838 244.389 27.75C246.981 25.3602 249.438 22.8279 251.749 20.165C252.314 19.5068 253.044 19.0105 253.864 18.7268C254.684 18.4431 255.564 18.3821 256.415 18.5501C257.266 18.7181 258.058 19.1091 258.708 19.683C259.359 20.257 259.845 20.9934 260.118 21.817C261.526 26.1098 262.446 30.5479 262.859 35.047C257.646 39.9929 251.794 44.2175 245.459 47.608C243.195 48.7901 240.639 49.2933 238.096 49.057C235.553 48.8207 233.133 47.855 231.126 46.276C226.126 42.351 218.904 36.828 212.831 32.721C211.031 31.5033 208.917 30.8338 206.744 30.7937C204.572 30.7536 202.434 31.3446 200.591 32.495C192.306 37.666 176.755 46.571 164.548 48.895C164.096 48.981 163.658 49.095 163.219 49.147C146.619 50.929 141.786 52.073 136.789 57.214Z" fill="#FFB664"/>
<path d="M136.214 35.477C134.06 35.2752 131.892 35.2752 129.738 35.477C120.917 36.377 118.606 48.285 126.438 52.44C129.8 54.2163 133.255 55.81 136.789 57.214C142.57 52.803 146.833 52.246 163.218 49.145C166.864 35.894 177.918 27.792 177.918 27.792C160.71 38.045 136.214 35.477 136.214 35.477Z" fill="#E87B40"/>
</svg>
