<svg width="340" height="340" viewBox="0 0 340 340" fill="none" xmlns="http://www.w3.org/2000/svg">
<g clip-path="url(#clip0_2_272)">
<path d="M139.142 24.27C127.024 34.493 107.554 50.019 89.7879 60.221C88.0166 61.2413 86.5261 62.685 85.4497 64.4228C84.3734 66.1606 83.7448 68.1383 83.6203 70.1786C83.4959 72.2189 83.8794 74.2583 84.7366 76.114C85.5937 77.9698 86.8978 79.5839 88.5319 80.812C96.7319 86.926 109.396 93.622 128.154 97.423H174.76C174.76 97.423 190.905 96.48 205.422 88.288C208.464 86.55 210.91 83.9333 212.439 80.781C213.968 77.6288 214.509 74.088 213.991 70.623C212.504 60.393 209.073 44.648 201.274 31.787C200.4 30.3253 199.227 29.0647 197.832 28.0879C196.437 27.1112 194.851 26.4403 193.179 26.1193C191.507 25.7983 189.785 25.8343 188.128 26.2251C186.47 26.6159 184.914 27.3527 183.561 28.387L183.336 28.552C181.625 29.8044 179.56 30.4796 177.44 30.4796C175.32 30.4796 173.255 29.8044 171.544 28.552C169.562 27.094 167.115 25.306 164.344 23.306C160.637 20.6328 156.144 19.2757 151.577 19.4504C147.01 19.625 142.633 21.3215 139.142 24.27V24.27Z" fill="#5B5B81"/>
<path d="M204.862 282.07C204.862 282.07 202.277 270.903 214.682 265.891C227.087 260.879 237.166 278.816 237.166 278.816L245.788 292.892C247.728 296.059 248.395 299.844 247.657 303.483C246.918 307.123 244.828 310.348 241.807 312.508V312.508C238.98 314.539 235.521 315.496 232.052 315.21C228.583 314.923 225.329 313.41 222.874 310.942C214.737 302.826 208.574 292.947 204.862 282.07V282.07Z" fill="#FFB664"/>
<path d="M241.049 285.156C228.427 294.056 216.949 293.656 208.486 290.905C212.182 298.309 217.039 305.074 222.874 310.942C225.416 313.487 228.803 315.011 232.393 315.224C235.984 315.438 239.528 314.327 242.353 312.101C245.179 309.875 247.089 306.69 247.722 303.149C248.355 299.609 247.667 295.959 245.788 292.892L241.049 285.156Z" fill="#E87B40"/>
<path d="M90.1769 154.912C90.1769 154.912 54.7309 192.745 34.7339 230.633C32.9221 234.092 32.3867 238.078 33.2217 241.893C34.0567 245.707 36.2087 249.105 39.2999 251.491L87.8999 288.461L99.8309 262.805L77.4999 234.75C84.8349 223.759 96.2449 213.593 110.261 203.95C110.263 203.954 105.473 183.514 90.1769 154.912Z" fill="#A3AED3"/>
<path d="M110.263 203.954C110.263 203.954 107.318 191.391 98.6771 172.183C98.1479 172.1 97.607 172.133 97.092 172.281C96.577 172.428 96.1002 172.685 95.6948 173.036C95.2894 173.386 94.9651 173.82 94.7444 174.308C94.5238 174.796 94.4121 175.326 94.4171 175.862V184.462C94.4165 188.157 93.6569 191.812 92.1853 195.2C90.7136 198.589 88.5614 201.639 85.8621 204.162C78.1531 211.376 67.0681 222.707 60.6101 233.636L95.5351 268.228L97.4871 267.861L99.8381 262.806L77.5001 234.75C84.8371 223.759 96.2471 213.593 110.263 203.954Z" fill="#586381"/>
<path d="M222.346 157C222.346 157 230.754 175.038 238.978 196.126C243.362 207.421 250.821 217.263 260.51 224.538L293.738 249.407L264.9 268.436L231.575 247.415C226.095 243.959 221.629 239.113 218.63 233.37L202.166 201.837C202.166 201.837 208.633 177.276 222.346 157Z" fill="#A3AED3"/>
<path d="M283.083 241.432C266.321 241.411 260.544 252.423 260.544 252.423L237.988 238.031C232.373 234.448 227.696 229.575 224.345 223.818L224.084 223.368C220.669 217.499 218.87 210.831 218.87 204.041V179.505C218.875 177.907 218.325 176.357 217.316 175.119C216.306 173.881 214.899 173.03 213.333 172.713C208.754 182.071 205.017 191.817 202.165 201.837L218.629 233.37C221.628 239.113 226.094 243.959 231.574 247.415L264.9 268.436L293.739 249.407L283.083 241.432Z" fill="#586381"/>
<path d="M99.8379 262.805C99.8379 262.805 79.5569 286.4 84.6589 302.068C91.0229 321.61 107.742 314.744 107.742 314.744L116.128 278.419L99.8379 262.805Z" fill="#FFCACF"/>
<path d="M99.761 262.728C99.761 262.728 97.942 264.849 95.535 268.228L97.935 270.946C99.0743 272.231 99.8357 273.807 100.135 275.498C100.434 277.19 100.259 278.931 99.629 280.529C96.98 287.215 92.852 299.659 92.291 313.279C99.408 318.047 107.665 314.668 107.665 314.668L116.051 278.343L99.761 262.728Z" fill="#E5838B"/>
<path d="M268.065 265.279L230.218 277.718C228.898 278.119 227.688 278.82 226.683 279.767C225.678 280.713 224.906 281.878 224.426 283.172C223.946 284.466 223.772 285.853 223.917 287.226C224.061 288.598 224.522 289.919 225.261 291.084C225.319 291.172 225.379 291.26 225.44 291.349C226.562 292.953 228.176 294.148 230.037 294.752C231.899 295.357 233.907 295.338 235.757 294.698L276.579 280.136L268.065 265.279Z" fill="#333353"/>
<path d="M103.783 300.01C100.832 313.371 98.8268 326.923 97.783 340.566H216.47C216.47 340.566 215.561 317.566 209.561 296.899L153.875 286.455L103.783 300.01Z" fill="#38508E"/>
<path d="M114.045 267.4C108.33 276.079 103.885 285.53 100.845 295.467C100.176 297.69 100.364 300.083 101.371 302.174C102.379 304.266 104.133 305.904 106.288 306.767L117.588 311.325C121.728 312.994 126.289 313.315 130.622 312.242C134.955 311.169 138.839 308.756 141.722 305.348L153.869 293.348L151.47 272.2L114.045 267.4Z" fill="#A3AED3"/>
<path d="M151.47 272.2L114.045 267.4C114.045 267.4 122.498 275.855 142.634 280.776C143.775 287.277 145.261 293.713 147.084 300.056L153.875 293.346L151.47 272.2Z" fill="#586381"/>
<path d="M149.457 274.805L149.545 281.991L149.965 284.573C150.826 289.873 153.289 303.723 165.817 314.35C168.831 316.894 172.655 318.278 176.599 318.25C189.745 318.237 202.365 313.082 211.76 303.887C213.298 302.36 214.392 300.443 214.926 298.342C215.459 296.241 215.412 294.035 214.789 291.959C212.364 283.756 208.997 275.861 204.755 268.432L149.457 274.805Z" fill="#A3AED3"/>
<path d="M149.545 281.991C153.818 282.48 185.107 285.391 204.755 268.436L148.339 274.571L149.545 281.991Z" fill="#586381"/>
<path d="M114.045 245.61C113.681 252.868 113.681 260.141 114.045 267.399C114.045 267.399 151.663 288.042 204.755 268.436L204.655 247.206L114.045 245.61Z" fill="#75212C"/>
<path d="M166.761 276.889C174.69 276.889 180.338 278.989 183.447 284.189C184.025 285.162 184.835 285.977 185.805 286.56C186.775 287.143 187.874 287.476 189.005 287.53C190.135 287.583 191.261 287.355 192.282 286.866C193.303 286.378 194.186 285.643 194.853 284.729L195.019 284.49C196.532 282.238 197.31 279.573 197.247 276.86C197.183 274.148 196.282 271.522 194.666 269.343C190.527 263.651 182.335 256.543 166.766 254.817L161.925 258.78L166.761 276.889Z" fill="#BC5E66"/>
<path d="M141.763 252.423L140.989 275.512C147.917 278.444 157.389 279.054 166.761 276.889V252.423H141.763Z" fill="#FCA751"/>
<path d="M166.65 129.771C166.65 129.771 200.268 143.571 222.35 157L203.859 230.693C205.571 233.196 206.619 236.094 206.904 239.113C207.108 242.373 206.059 245.588 203.972 248.1C201.885 250.612 198.917 252.233 195.675 252.63C180.783 254.588 137.508 258.806 114.049 245.61C114.049 245.61 102.712 240.538 114.049 226.81L90.1809 154.91C90.1809 154.91 115.334 139.876 166.65 129.771Z" fill="#A3AED3"/>
<path d="M152.716 132.776C138.997 135.929 125.501 139.984 112.316 144.914C111.359 148.892 110.673 152.929 110.263 157C110.263 157 126.563 160.888 136.117 148.833L152.717 148.047L152.716 132.776Z" fill="#586381"/>
<path d="M151.06 178.069L152.309 166.081C152.309 166.081 146.951 172.026 142.297 177.341C137.364 182.974 137.73 193.956 137.73 193.956C137.82 216.344 143.218 243.119 145.654 254.085C148.004 254.311 150.364 254.485 152.716 254.603C146.272 230.836 144.644 205.172 144.234 193.283C144.086 188.998 145.509 184.806 148.234 181.496L151.06 178.069Z" fill="#586381"/>
<path d="M129.077 128.786C131.864 143.722 140.217 160.486 151.06 178.069C151.06 178.069 168.96 159.002 172.774 131.005L129.077 128.786Z" fill="#FFCACF"/>
<path d="M129.077 128.786C131.377 141.096 137.457 154.65 145.594 168.879C143.138 158.058 143.531 151.232 143.531 151.232C157.358 152.395 169.631 147.019 172.031 135.881L172.778 131.005L129.077 128.786Z" fill="#E5838B"/>
<path d="M122.232 125.63C122.232 125.63 109.195 132.03 107.754 150.502C107.754 150.502 130.875 157.428 136.391 128.614L137.171 123.691L122.232 125.63Z" fill="#A02A39"/>
<path d="M134.365 126.809L126.352 129.518C116.881 131.718 102.126 131.59 99.9819 110.528C99.9819 110.528 120.531 109.181 133.668 118.089L134.365 126.809Z" fill="#E54C5B"/>
<path d="M133.668 118.089C130.689 116.124 127.45 114.587 124.044 113.521C123.013 115.655 121.45 121.11 126.352 129.521C129.107 128.889 131.792 127.982 134.365 126.813L133.668 118.089Z" fill="#A02A39"/>
<path d="M133.051 128.786C133.051 128.786 136.619 144.325 155.263 144.286C169.382 144.257 174.877 135.825 174.877 122.23L133.051 128.786Z" fill="#A02A39"/>
<path d="M133.859 102.973C131.498 105.102 129.684 107.769 128.571 110.747C125.65 118.436 129.571 127.256 137.502 129.447C137.799 129.529 138.099 129.601 138.402 129.664C147.254 131.503 164.331 133.183 174.875 122.233V108.635L133.859 102.973Z" fill="#E54C5B"/>
<path d="M128.641 85.4L150.364 61.03C150.364 61.03 169.391 56.284 183.446 64.976L185.458 71.126C186.177 79.275 186.586 93.71 182.081 104.103C179.181 110.788 173.95 115.703 166.123 116.978C160.523 117.888 151.06 117.956 143.852 115.405C138.634 113.558 135.922 108.605 134.7 105.535C134.432 104.828 133.977 104.206 133.385 103.736C132.793 103.266 132.085 102.964 131.335 102.863C124.948 102.113 122.886 97.832 122.58 94.093C122.321 92.1486 122.799 90.1777 123.921 88.5686C125.043 86.9595 126.727 85.8291 128.641 85.4V85.4Z" fill="#FFCACF"/>
<path d="M185.457 71.126C185.121 67.314 184.717 64.873 184.717 64.873C170.662 56.181 151.06 60.25 151.06 60.25L139.865 72.806C163.061 63.367 180.088 68.851 185.457 71.126Z" fill="#E5838B"/>
<path d="M151.06 60.25C151.06 60.25 147.369 82.65 128.641 85.397C128.641 85.397 125.998 81.983 127.914 74.128C128.298 72.1655 129.125 70.3165 130.332 68.7221C131.539 67.1278 133.094 65.8301 134.879 64.928C139.972 62.4728 145.442 60.8914 151.06 60.25V60.25Z" fill="#333353"/>
<path d="M282.691 248.059L271 254.333C268.168 255.833 265.876 258.182 264.446 261.049C263.015 263.917 262.518 267.16 263.023 270.325C263.319 272.082 263.747 273.814 264.304 275.507C264.954 277.49 266.123 279.262 267.69 280.64C269.257 282.018 271.164 282.951 273.213 283.343C275.262 283.735 277.379 283.571 279.343 282.868C281.308 282.165 283.048 280.949 284.384 279.346C284.467 279.246 284.551 279.146 284.634 279.038L282.691 248.059Z" fill="#E5838B"/>
<path d="M296.288 249.116C294.304 247.472 291.892 246.431 289.336 246.114C286.78 245.797 284.186 246.218 281.861 247.327C276.648 249.811 270.937 254.966 271.961 265.562C272.456 270.767 273.737 275.867 275.761 280.688C281.861 295.16 303.098 293.934 306.794 278.67C306.874 278.337 306.948 278 307.015 277.659C307.027 277.561 309.259 259.721 296.288 249.116Z" fill="#FFCACF"/>
<path d="M157.792 197.946C157.036 197.946 156.307 197.66 155.752 197.146C155.198 196.631 154.858 195.926 154.801 195.172C154.744 194.417 154.974 193.669 155.446 193.077C155.917 192.486 156.594 192.094 157.342 191.98L161.426 191.355C162.211 191.238 163.01 191.437 163.649 191.908C164.287 192.379 164.713 193.084 164.833 193.869C164.953 194.653 164.757 195.453 164.289 196.094C163.82 196.734 163.117 197.163 162.333 197.286L158.249 197.91C158.098 197.934 157.945 197.946 157.792 197.946Z" fill="#586381"/>
<path d="M159.305 221.035C158.549 221.035 157.82 220.749 157.265 220.235C156.711 219.72 156.371 219.015 156.314 218.261C156.257 217.506 156.487 216.758 156.958 216.166C157.43 215.575 158.107 215.183 158.855 215.069L162.939 214.445C163.332 214.377 163.734 214.389 164.123 214.479C164.511 214.568 164.878 214.734 165.201 214.967C165.525 215.201 165.799 215.496 166.007 215.836C166.215 216.176 166.353 216.554 166.413 216.948C166.473 217.342 166.455 217.744 166.358 218.131C166.261 218.518 166.088 218.881 165.849 219.2C165.61 219.519 165.31 219.787 164.966 219.989C164.622 220.191 164.241 220.322 163.846 220.375L159.763 221C159.612 221.023 159.458 221.035 159.305 221.035V221.035Z" fill="#586381"/>
<path d="M162.852 244.122C162.097 244.12 161.37 243.833 160.817 243.319C160.264 242.804 159.925 242.1 159.868 241.347C159.812 240.594 160.041 239.847 160.511 239.256C160.981 238.664 161.657 238.272 162.403 238.157L166.486 237.532C167.271 237.415 168.07 237.614 168.709 238.085C169.347 238.556 169.773 239.261 169.893 240.046C170.013 240.83 169.817 241.63 169.349 242.271C168.88 242.911 168.177 243.34 167.393 243.463L163.31 244.087C163.158 244.11 163.005 244.122 162.852 244.122V244.122Z" fill="#586381"/>
<path d="M163.957 85.457C163.747 85.4571 163.537 85.435 163.331 85.391L158.907 84.453C158.137 84.2802 157.465 83.8106 157.039 83.1461C156.612 82.4815 156.465 81.6756 156.629 80.9032C156.793 80.1307 157.254 79.454 157.914 79.0198C158.574 78.5857 159.378 78.4291 160.152 78.584L164.577 79.522C165.302 79.6755 165.945 80.0922 166.382 80.6918C166.818 81.2913 167.017 82.0312 166.94 82.7687C166.863 83.5062 166.515 84.189 165.964 84.6854C165.414 85.1819 164.699 85.4567 163.957 85.457V85.457Z" fill="#E8808F"/>
<path d="M176.132 85.971C175.389 85.9713 174.673 85.6959 174.121 85.1982C173.569 84.7004 173.222 84.0157 173.146 83.2766C173.071 82.5375 173.272 81.7966 173.711 81.1974C174.151 80.5982 174.797 80.1833 175.524 80.033L178.908 79.333C179.683 79.1817 180.486 79.3419 181.143 79.7788C181.801 80.2156 182.26 80.894 182.42 81.6669C182.581 82.4397 182.43 83.2447 182.002 83.9074C181.573 84.5701 180.9 85.037 180.129 85.207L176.745 85.907C176.544 85.9493 176.338 85.9708 176.132 85.971Z" fill="#E8808F"/>
<path d="M133.265 95.5C132.624 93.346 131.065 90.191 127.365 89.462C127.254 89.4401 127.139 89.4572 127.039 89.5106C126.94 89.5639 126.861 89.6501 126.818 89.7546C126.775 89.859 126.769 89.9752 126.802 90.0834C126.835 90.1916 126.904 90.2851 126.998 90.348C127.624 90.771 128.154 91.3217 128.553 91.964C128.811 92.3798 128.953 92.8574 128.964 93.3468C128.974 93.8362 128.853 94.3195 128.613 94.746C128.235 95.3768 128.109 96.1265 128.26 96.846C128.39 97.4812 128.755 98.044 129.282 98.422C129.302 98.437 129.323 98.452 129.345 98.466C129.796 98.7548 130.325 98.8983 130.86 98.8773C131.395 98.8563 131.911 98.6718 132.338 98.3487C132.765 98.0255 133.083 97.5792 133.249 97.0698C133.415 96.5605 133.42 96.0126 133.265 95.5V95.5Z" fill="#E5838B"/>
<path d="M149.61 271.491L160.682 261.677C160.926 261.461 161.227 261.321 161.549 261.273C161.871 261.224 162.201 261.271 162.497 261.406C162.793 261.541 163.044 261.759 163.219 262.034C163.394 262.309 163.485 262.628 163.482 262.954L163.409 270.048C163.402 270.694 163.265 271.332 163.007 271.924C162.748 272.517 162.372 273.05 161.902 273.494C161.432 273.938 160.878 274.282 160.272 274.506C159.666 274.731 159.021 274.831 158.375 274.8L150.646 274.434C150.311 274.418 149.989 274.303 149.721 274.103C149.452 273.903 149.249 273.627 149.138 273.311C149.027 272.995 149.012 272.653 149.096 272.329C149.18 272.005 149.359 271.713 149.61 271.491V271.491Z" fill="#E87B40"/>
</g>
<defs>
<clipPath id="clip0_2_272">
<rect width="340" height="340" fill="white"/>
</clipPath>
</defs>
</svg>
