<svg width="340" height="340" viewBox="0 0 340 340" fill="none" xmlns="http://www.w3.org/2000/svg">
<g clip-path="url(#clip0_2_313)">
<path d="M219.345 246.574C219.345 246.574 213.514 250.96 207.545 256.583C205.322 258.678 203.562 261.215 202.377 264.03C201.191 266.845 200.608 269.877 200.663 272.932C200.718 275.986 201.411 278.995 202.697 281.765C203.983 284.536 205.834 287.007 208.131 289.021C212.058 292.487 216.652 295.114 221.631 296.739C228.931 299.082 235.456 291.254 231.651 284.602C231.032 283.539 230.273 282.564 229.396 281.702L228.25 280.31C226.982 278.77 226.324 276.818 226.401 274.825C226.477 272.831 227.283 270.935 228.665 269.497L235.829 262.039L219.345 246.574Z" fill="#FFCACF"/>
<path d="M228.661 269.5C227.85 270.345 227.232 271.357 226.849 272.464C221.147 265.103 218.465 255.846 219.349 246.577L235.829 262.042L228.661 269.5Z" fill="#E5838B"/>
<path d="M77.3129 127.585C77.3129 127.585 277.623 24.117 320.783 107.813C320.783 107.813 225.6 66.025 84.5679 145.105L77.3129 127.585Z" fill="#D2E8FF"/>
<path d="M87.611 129.551C87.611 129.551 218.217 65.854 283.574 87.214C283.859 87.3097 284.098 87.5076 284.245 87.7694C284.392 88.0312 284.437 88.3382 284.371 88.6311C284.304 88.9241 284.132 89.182 283.886 89.3551C283.641 89.5281 283.34 89.604 283.042 89.568C258.376 86.426 191.172 84.568 90.942 132.849L87.611 129.551Z" fill="#96AEF4"/>
<path d="M107.894 132.908C100.266 136.617 92.494 140.66 84.568 145.108L77.313 127.588C77.313 127.588 82.6401 124.837 91.7381 120.596C97.0371 124.607 103.283 129.378 107.894 132.908Z" fill="#96AEF4"/>
<path d="M88.2381 141.466L74.7651 114.751C73.1555 112.041 70.9281 109.749 68.2645 108.064C65.6008 106.378 62.5765 105.346 59.4381 105.051C57.8375 104.873 56.2184 105.124 54.7464 105.777C53.2745 106.43 52.0024 107.463 51.0605 108.769C50.1186 110.075 49.5405 111.608 49.3855 113.211C49.2304 114.814 49.5039 116.429 50.1781 117.892C50.2141 117.968 50.2511 118.044 50.2901 118.12L72.0351 146.414C72.0351 146.414 82.3081 171.876 100.116 167.341L103.007 155.795C103.007 155.795 92.6351 150.749 88.2381 141.466Z" fill="#FFB664"/>
<path d="M50.1781 117.891C49.7706 117.034 49.5029 116.117 49.3851 115.175C56.6461 113.441 63.3421 116.218 70.1991 127.585C75.4871 136.349 81.7991 136.277 85.1801 135.403L88.2381 141.466C92.6381 150.749 103.007 155.794 103.007 155.794L100.116 167.34C82.3081 171.875 72.0351 146.413 72.0351 146.413L50.2901 118.119C50.2511 118.043 50.2141 117.967 50.1781 117.891Z" fill="#E87B40"/>
<path d="M202.542 230C198.564 234.341 196.415 240.05 196.542 245.936C196.542 256.218 199.042 271.628 199.042 271.628C199.042 271.628 183.001 290.228 151.129 301.883C139.929 291.609 125.161 279.266 123.829 274.722C123.829 274.722 132.962 267.611 132.962 259.729V243.877C132.962 243.877 132.962 231.731 126.888 225.571L202.542 230Z" fill="#333353"/>
<path d="M145.27 226.646L171.891 228.2V246.85C171.349 249.324 171.349 251.886 171.891 254.36V269.703C171.251 272.403 171.251 275.214 171.891 277.914V292.33C165.242 296.069 158.301 299.261 151.135 301.876L145.27 296.041V284.479C145.659 282.521 145.659 280.505 145.27 278.547V265.09C145.853 262.206 145.853 259.235 145.27 256.351V244.594C146.111 243.299 145.691 240.857 145.27 238.415V226.646Z" fill="#5B5B81"/>
<path d="M171.891 277.918L145.27 284.478V278.547L165.833 273.479L145.27 265.09V256.351L164.996 250.417L145.27 244.594V238.415L171.891 246.854V254.364L150.245 260.876L171.891 269.707V277.918Z" fill="#333353"/>
<path d="M221.595 310.952C221.595 310.952 225.64 327.627 225.64 340.052H90.5499C91.5883 332.931 93.2104 325.907 95.3999 319.052L107.195 308.094L205.876 302.694L221.595 310.952Z" fill="#5B5B81"/>
<path d="M95.4001 319.05L107.2 308.092L192.725 303.414C172.918 314.556 139.682 327.656 92.9641 327.614C93.6271 324.851 94.4371 321.9 95.4001 319.05Z" fill="#333353"/>
<path d="M209.6 284.282C209.6 284.282 218.82 297.882 221.6 310.952C221.6 310.952 146.907 326.67 105.221 298.628C105.221 298.628 114.603 283.96 123.844 274.719C123.844 274.719 138.92 291.927 156.429 294.996L209.6 284.282Z" fill="#BC5E66"/>
<path d="M207.681 93.605C207.681 93.605 223.428 96.476 223.225 117.362C225.27 117.246 227.315 117.598 229.204 118.391C231.093 119.184 232.776 120.398 234.125 121.94C234.125 121.94 239.812 128.559 236.905 138.912C235.082 145.402 223.627 155.551 211.162 153.212C191.091 149.44 179.823 139.312 179.823 139.312L175.923 120.669L180.852 103.349L207.681 93.605Z" fill="#333353"/>
<path d="M72.8901 141.777C71.5271 136.377 67.9651 131.415 64.3741 126.455L23.5741 153.197C21.4994 154.527 20.0252 156.613 19.4649 159.013C18.9047 161.413 19.3026 163.936 20.5741 166.047C21.8479 168.162 23.8979 169.695 26.2866 170.32C28.6752 170.944 31.2133 170.61 33.3591 169.389L44.4591 163.077L64.8311 151.205L72.8901 141.777Z" fill="#333353"/>
<path d="M227.553 200.911L222.078 203.922C220.436 204.815 219.028 206.081 217.965 207.618C216.903 209.155 216.216 210.92 215.961 212.771C215.223 218.821 212.195 224.357 207.5 228.243C202.887 231.983 197.115 233.996 191.177 233.938H143.947C139.944 233.953 135.991 233.045 132.395 231.285C128.799 229.525 125.658 226.96 123.214 223.789C120.912 220.725 119.012 217.38 117.559 213.834C117.559 213.834 108.687 239.252 91.159 253.277C89.5556 254.557 87.6443 255.395 85.6161 255.705C83.5879 256.015 81.5137 255.788 79.601 255.045C76.5145 253.828 73.5011 252.433 70.5759 250.867C68.0976 249.585 65.4974 248.555 62.8139 247.791C56.9669 246.076 45.2009 240.798 36.2829 225.035L74.94 174.756C79.5748 182.555 83.5513 190.728 86.828 199.188C86.828 199.188 92.2839 194.305 94.0079 187.988C95.7319 181.671 94.0079 170.183 101.762 161.567L163.8 193.444L237.03 153.812C237.03 153.812 268.894 185.675 285.885 211.538C287.432 213.88 288.409 216.551 288.736 219.339C289.064 222.126 288.734 224.951 287.773 227.588C285.2 234.607 281.876 241.328 277.86 247.633C275.564 251.191 274.095 255.219 273.56 259.42L273.521 259.726C273.132 262.62 272.079 265.384 270.445 267.804C268.811 270.223 266.64 272.233 264.101 273.674C261.562 275.116 258.724 275.951 255.809 276.115C252.894 276.279 249.98 275.766 247.296 274.618C238.259 270.733 225.528 262.631 219.347 246.574C228.514 238.374 238.368 230.975 248.8 224.46C248.8 224.46 237.6 207.516 227.553 200.911Z" fill="#F7F2FA"/>
<path d="M101.764 161.566L163.8 193.444L237.03 153.812C237.03 153.812 239.601 156.383 243.666 160.651C242.297 167.623 238.025 173.93 231.796 175.612C231.089 175.809 230.438 176.171 229.899 176.668C229.359 177.166 228.945 177.784 228.691 178.473C225.885 186.273 219.6 191.711 210.991 193.79C208.956 194.328 207.143 195.496 205.812 197.127C201.271 202.527 194.531 205.377 186.32 205.377C185.795 205.377 185.261 205.364 184.732 205.34C184.623 205.34 184.515 205.333 184.407 205.333C182.929 205.352 181.483 205.772 180.224 206.546C174.829 209.772 169.593 211.408 164.661 211.408C160.141 211.434 155.738 209.968 152.135 207.238C150.682 206.11 148.897 205.491 147.057 205.479H146.943C137.397 205.479 130.318 200.522 127.522 191.879C127.398 191.51 127.162 191.187 126.848 190.957C126.534 190.726 126.156 190.598 125.766 190.59C116.49 190.59 109.461 185.725 106.483 177.25C106.123 176.225 105.068 175.927 104.023 175.356C101.297 173.924 98.9576 171.855 97.204 169.324C98.1999 166.464 99.7494 163.828 101.764 161.566Z" fill="#B29A95"/>
<path d="M186.366 121.1L189.652 131.311C190.474 137.178 192.657 144.02 198.16 147.327C198.16 147.327 218.405 133.064 233.129 148.938C233.129 148.938 206.672 196.79 159.28 194.029L105.216 154.919C105.216 154.919 112.808 137.895 130.523 138.125L167.792 110.285L186.366 121.1Z" fill="#FFCACF"/>
<path d="M202.525 145.318C202.525 145.318 201.058 161.765 179.425 166.364L179.288 168.487C179.194 169.958 178.535 171.336 177.447 172.331C176.359 173.326 174.929 173.861 173.455 173.824V173.824C172.681 173.805 171.918 173.629 171.215 173.306C170.511 172.983 169.88 172.52 169.361 171.945C168.842 171.37 168.446 170.696 168.197 169.962C167.947 169.229 167.849 168.453 167.91 167.681L167.986 166.701C167.986 166.701 149.047 162.531 143.053 147.849L150.958 148.335L163.468 157.492L176.152 159.751L187.272 157.939L199.046 144.374L202.525 145.318Z" fill="#E5838B"/>
<path d="M159.774 116.274L167.792 110.285L189.314 121.1C189.074 124.506 189.189 127.928 189.656 131.311C185.066 131.645 169.456 131.687 160.83 118.038C160.447 117.428 160.1 116.845 159.774 116.274Z" fill="#E5838B"/>
<path d="M129.836 156.149C122.019 153.409 118.299 147.483 116.536 142.09C120.702 139.411 125.571 138.03 130.523 138.122L167.792 110.285L179.427 116.13C177.389 120.879 176.392 126.01 176.504 131.177C176.504 131.177 177.17 152.777 153.004 152.213C153 152.213 146 161.816 129.836 156.149Z" fill="#E5838B"/>
<path d="M214.6 80.535C214.6 80.535 216.991 120.306 192.956 124.318C186.015 125.477 178.771 124.696 175.401 122.083L167.259 108.037V76.064L214.6 80.535Z" fill="#FFCACF"/>
<path d="M186.718 102.032C186.718 102.032 177.85 110.544 175.4 122.083C166.261 116.891 167.258 108.037 167.258 108.037V76.064L194.683 78.505C195.213 85.821 194.044 94.291 186.718 102.032Z" fill="#E5838B"/>
<path d="M173.526 170.881C174.291 170.88 175.028 170.587 175.584 170.062C176.14 169.536 176.475 168.818 176.519 168.054L176.883 161.717C176.908 161.322 176.855 160.926 176.727 160.552C176.599 160.178 176.397 159.833 176.135 159.536C175.873 159.24 175.555 158.999 175.199 158.826C174.843 158.653 174.456 158.553 174.061 158.53C173.666 158.508 173.271 158.563 172.897 158.694C172.524 158.825 172.18 159.028 171.886 159.292C171.591 159.557 171.352 159.876 171.181 160.234C171.011 160.591 170.913 160.978 170.893 161.373L170.529 167.709C170.483 168.503 170.755 169.283 171.284 169.877C171.813 170.472 172.557 170.831 173.351 170.877C173.41 170.88 173.468 170.881 173.526 170.881Z" fill="#B23241"/>
<path d="M166.214 178.622C166.389 185.061 167.281 195.155 170.783 203.499H159.027C159.027 203.499 160.027 189.631 163.856 178.147C164.343 176.684 166.172 177.05 166.214 178.622Z" fill="#E5838B"/>
<path d="M173.888 164.545C174.098 164.545 174.307 164.523 174.512 164.48C195.581 160 202.251 145.916 202.525 145.318C202.849 144.597 202.875 143.777 202.598 143.036C202.321 142.296 201.762 141.695 201.044 141.364C200.326 141.033 199.506 140.999 198.763 141.269C198.02 141.539 197.414 142.092 197.076 142.807C196.833 143.321 191.327 154.555 173.826 158.488C171.188 157.976 158.569 155.028 152.178 144.538C151.973 144.201 151.704 143.909 151.386 143.676C151.068 143.444 150.707 143.276 150.324 143.183C149.941 143.09 149.544 143.073 149.154 143.134C148.765 143.194 148.392 143.331 148.055 143.536C147.719 143.741 147.426 144.01 147.193 144.328C146.961 144.646 146.793 145.007 146.7 145.39C146.607 145.773 146.59 146.17 146.651 146.56C146.711 146.949 146.848 147.322 147.053 147.659C155.675 161.812 172.74 164.411 173.462 164.515C173.603 164.535 173.746 164.545 173.888 164.545V164.545Z" fill="#E54C5B"/>
<path d="M148.055 143.536C148.734 143.122 149.55 142.995 150.324 143.182C151.097 143.37 151.764 143.857 152.178 144.536C153.934 147.375 156.209 149.859 158.884 151.857C156.938 152.147 154.97 152.265 153.003 152.211C152.615 152.703 152.184 153.158 151.713 153.571C149.931 151.791 148.367 149.806 147.053 147.657C146.64 146.978 146.513 146.162 146.701 145.389C146.889 144.616 147.376 143.95 148.055 143.536V143.536Z" fill="#B23241"/>
<path d="M193.324 36.574C193.324 36.574 213.7 32.029 218.981 50.356C219.284 51.7375 219.399 53.1537 219.322 54.566C218.922 61.646 209.675 64.253 205.741 58.354L205.641 58.199H142.05C142.05 58.199 153.15 31.589 175.081 29.977C175.081 29.977 185.847 29.1 193.324 36.574Z" fill="#333353"/>
<path d="M191.471 80.528C191.309 84.1861 190.418 87.7751 188.852 91.085C187.287 94.395 185.076 97.3595 182.351 99.805C177.618 103.988 174.551 110.685 172.72 115.98C171.516 119.546 170.718 123.236 170.341 126.98C169.677 133.138 166.322 146.748 149.616 146.095C149.616 146.095 143.048 154.01 131.259 147.442C119.47 140.874 121.659 131.78 121.659 131.78C121.659 131.78 114.081 130.938 112.228 121.17C110.375 111.402 119.807 106.35 119.807 106.35C119.807 106.35 114.897 90.416 134.951 77.416L191.471 80.528Z" fill="#333353"/>
<path d="M235.084 145.4C233.569 145.037 231.991 145.023 230.469 145.359C228.948 145.694 227.522 146.371 226.3 147.337C222.426 150.319 214.558 157.357 202.758 172.478C189.58 189.364 162.985 189.589 162.985 189.589C152.059 186.391 142.297 180.089 134.885 171.448C122.419 156.666 114.606 148.98 105.216 150.048C105.216 150.048 97.2411 150.882 97.0051 159.132C97.0051 159.132 97.4771 167.398 104.968 168.418C106.792 168.644 108.517 169.372 109.951 170.522C111.385 171.671 112.471 173.196 113.088 174.927C114.567 179.134 117.973 183.586 125.769 183.588C127.638 183.597 129.457 184.194 130.968 185.295C132.478 186.396 133.603 187.945 134.183 189.722C135.558 193.969 138.919 198.5 147.011 198.475C150.394 198.479 153.681 199.597 156.365 201.656C159.965 204.387 166.499 206.593 176.633 200.534C179.163 198.992 182.091 198.23 185.052 198.344C189.405 198.544 196.064 197.837 200.452 192.616C202.74 189.839 205.856 187.865 209.344 186.982C213.822 185.9 219.57 183.131 222.1 176.099C222.733 174.348 223.779 172.776 225.147 171.514C226.516 170.253 228.169 169.339 229.965 168.851C235.15 167.451 241.455 163.856 241.254 154.651C241.123 148.484 238.086 146.171 235.084 145.4Z" fill="#F7F2FA"/>
<path d="M74.9419 174.756C74.9419 174.756 75.3799 215.036 36.2849 225.035C36.2849 225.035 30.0219 198.593 74.9419 174.756Z" fill="#B29A95"/>
<path d="M75.1809 175.148C74.1063 172.637 73.1663 170.07 72.3649 167.459C71.9383 166.01 71.8387 164.483 72.073 162.991C72.3073 161.498 72.8697 160.076 73.7199 158.827C75.0859 156.787 76.1879 153.374 74.9419 147.967C74.471 145.839 73.7831 143.765 72.8889 141.777C72.4622 140.842 71.833 140.013 71.0468 139.35C70.2606 138.688 69.337 138.208 68.3429 137.947C67.3487 137.685 66.3088 137.647 65.2982 137.836C64.2877 138.026 63.3319 138.437 62.4999 139.041L59.9359 140.907C59.0836 141.524 58.4207 142.367 58.0221 143.34C57.6236 144.314 57.5052 145.38 57.6803 146.417C57.8555 147.454 58.3172 148.422 59.0133 149.211C59.7095 150 60.6123 150.578 61.6199 150.881L61.7869 150.927C61.9843 150.985 62.1603 151.1 62.2931 151.257C62.4259 151.414 62.5095 151.607 62.5337 151.811C62.5579 152.015 62.5215 152.222 62.4291 152.406C62.3367 152.59 62.1923 152.743 62.0139 152.845L44.4559 163.077L63.1139 208.277C63.1139 208.277 74.4559 197.03 75.1809 175.148Z" fill="#FFCACF"/>
<path d="M105.216 298.628C105.216 298.628 114.598 283.96 123.838 274.719C123.838 274.719 138.915 291.927 156.424 294.996L176.635 290.924L209.6 284.282C209.6 284.282 211 286.349 212.87 289.637C207.92 293.899 192.633 305.83 166.961 315.198C138.775 315.515 111.932 303.414 105.216 298.628Z" fill="#75212C"/>
<path d="M46.034 122.5L39.597 126.645C38.2334 127.612 37.0739 128.838 36.1846 130.253C35.2954 131.668 34.6939 133.245 34.4147 134.893C34.1354 136.541 34.1838 138.228 34.557 139.857C34.9303 141.486 35.6211 143.026 36.59 144.388V144.388C39.956 149.119 46.462 150.622 51.157 147.205L62 139.943C63.9921 138.385 65.3369 136.145 65.7751 133.654C66.2133 131.164 65.7138 128.599 64.373 126.455C64.287 126.318 64.1996 126.179 64.111 126.039C63.1847 124.587 61.9732 123.338 60.5499 122.368C59.1265 121.398 57.521 120.727 55.8307 120.396C54.1404 120.066 52.4005 120.081 50.7165 120.443C49.0325 120.805 47.4395 121.504 46.034 122.5Z" fill="#FFCACF"/>
<path d="M199.048 271.625C199.048 271.625 160.037 298.909 105.216 298.625C105.216 298.625 98.2161 308.64 95.4001 319.047C95.4001 319.047 163.47 321.127 209.6 284.279C206.453 279.766 202.923 275.532 199.048 271.625Z" fill="#BC5E66"/>
<path d="M162.185 309.746C154.916 311.975 147.537 313.827 140.078 315.297C139.757 315.359 139.426 315.355 139.107 315.285C138.787 315.215 138.486 315.079 138.221 314.888C137.956 314.696 137.733 314.452 137.565 314.171C137.398 313.89 137.291 313.577 137.249 313.253L135.212 297.726C135.134 297.119 135.292 296.505 135.652 296.01C136.012 295.515 136.547 295.176 137.149 295.063C143.603 293.819 149.696 292.303 155.378 290.632C155.953 290.46 156.571 290.51 157.111 290.773C157.65 291.035 158.071 291.491 158.29 292.05C159.89 296.15 161.975 301.816 163.725 306.642C163.835 306.947 163.882 307.27 163.863 307.593C163.845 307.916 163.761 308.233 163.617 308.523C163.473 308.812 163.272 309.07 163.026 309.281C162.78 309.491 162.494 309.649 162.185 309.746V309.746Z" fill="#FFB664"/>
<path d="M245.642 219.978C251.405 217.352 258.464 215.952 263.276 215.249C263.476 215.219 263.679 215.262 263.85 215.37C264.02 215.478 264.145 215.645 264.202 215.838C264.259 216.032 264.244 216.24 264.16 216.423C264.076 216.606 263.928 216.753 263.744 216.836C258.605 219.057 253.614 221.603 248.8 224.46C248.8 224.46 247.6 222.645 245.642 219.978Z" fill="#B29A95"/>
<path d="M91.1661 253.274C89.5614 254.556 87.6484 255.393 85.6184 255.704C83.5884 256.014 81.5124 255.786 79.5981 255.043C76.5132 253.827 73.5015 252.432 70.5781 250.867C68.0998 249.585 65.4995 248.555 62.8161 247.791C55.5633 245.519 49.0582 241.331 43.9871 235.67C50.7661 239.429 58.5871 240.746 63.5441 241.195C67.3421 241.55 71.0572 242.519 74.5441 244.066L79.1811 246.107C80.9138 246.874 82.8326 247.12 84.7027 246.813C86.5727 246.507 88.3129 245.662 89.7101 244.382C98.7281 236.059 104.349 225.7 107.19 219.435C108.585 216.37 109.429 213.082 109.683 209.724C109.985 205.353 110.618 201.012 111.575 196.737C111.669 196.332 111.905 195.974 112.241 195.729C112.578 195.484 112.991 195.368 113.405 195.404C113.82 195.439 114.208 195.622 114.498 195.921C114.788 196.219 114.96 196.612 114.984 197.027C115.406 202.687 116.267 208.307 117.558 213.834C117.558 213.834 108.688 239.248 91.1661 253.274Z" fill="#B29A95"/>
<path d="M91.784 193.04C96.17 205.034 93.511 213.959 90.552 219.292C90.4033 219.554 90.1676 219.755 89.8858 219.861C89.6041 219.967 89.2941 219.971 89.0097 219.872C88.7254 219.774 88.4846 219.578 88.3292 219.32C88.1737 219.063 88.1136 218.759 88.159 218.461C89.459 209.456 86.83 199.188 86.83 199.188C88.7483 197.369 90.4144 195.301 91.784 193.04V193.04Z" fill="#B29A95"/>
<path d="M196.495 97.173C197.231 97.1729 197.941 96.9026 198.49 96.4134C199.039 95.9241 199.39 95.25 199.475 94.5193C199.56 93.7886 199.373 93.0521 198.951 92.4499C198.528 91.8477 197.899 91.4217 197.183 91.253L194.434 90.603C193.66 90.4197 192.844 90.5516 192.167 90.9695C191.49 91.3874 191.007 92.0572 190.824 92.8315C190.64 93.6058 190.772 94.4212 191.19 95.0983C191.608 95.7754 192.278 96.2587 193.052 96.442L195.801 97.092C196.028 97.1458 196.261 97.173 196.495 97.173V97.173Z" fill="#E8808F"/>
<path d="M206.593 97.173C206.826 97.173 207.059 97.1458 207.286 97.092L210.035 96.442C210.418 96.3513 210.78 96.1859 211.1 95.9553C211.419 95.7248 211.69 95.4336 211.897 95.0983C212.104 94.763 212.243 94.3903 212.306 94.0013C212.369 93.6124 212.354 93.2149 212.264 92.8315C212.173 92.4481 212.007 92.0863 211.777 91.7669C211.546 91.4474 211.255 91.1764 210.92 90.9695C210.585 90.7626 210.212 90.6237 209.823 90.5608C209.434 90.4979 209.036 90.5123 208.653 90.603L205.904 91.253C205.188 91.4218 204.559 91.8478 204.136 92.4501C203.714 93.0524 203.527 93.789 203.612 94.5198C203.697 95.2506 204.048 95.9247 204.598 96.4139C205.147 96.903 205.857 97.1732 206.593 97.173Z" fill="#E8808F"/>
<path d="M210.344 58.2H142.05C139.535 60.6911 137.597 63.7027 136.37 67.0231C135.143 70.3436 134.659 73.8923 134.95 77.42C134.95 77.42 197.457 81.92 214.598 80.536C214.598 80.536 215.687 69.396 213.398 60.517C213.217 59.8474 212.819 59.2568 212.266 58.8375C211.714 58.4183 211.038 58.1941 210.344 58.2V58.2Z" fill="#E54C5B"/>
<path d="M134.951 77.419C134.756 74.7407 134.993 72.0484 135.651 69.445C140.195 70.067 144.702 70.593 149.131 71.037C152.411 71.3678 155.713 70.6694 158.579 69.0388C161.445 67.4082 163.732 64.9261 165.123 61.937C165.682 60.7255 166.157 59.4773 166.546 58.201H187.546C188.834 59.16 191.166 62.165 192.857 66.674C193.559 68.6004 194.84 70.2624 196.524 71.4319C198.208 72.6014 200.213 73.2211 202.263 73.206C207.973 73.122 212.32 72.953 214.85 72.833C214.899 75.4022 214.817 77.9722 214.603 80.533C210.296 80.881 203.123 80.857 194.803 80.627C176.966 80.8 134.951 77.419 134.951 77.419Z" fill="#B23241"/>
<path d="M187.241 57.841C187.241 57.841 193.101 68.598 191.471 80.528L153.554 91.435C153.554 91.435 154.237 85.173 160.698 76.635C162.941 73.668 165.168 71.816 166.451 67.68C166.869 66.2699 167.059 64.8021 167.015 63.332C166.988 61.849 166.84 59.258 166.662 57.846L187.241 57.841Z" fill="#333353"/>
<path d="M153.854 307.332L140.362 301.509C140.176 301.429 139.972 301.4 139.771 301.425C139.571 301.45 139.38 301.528 139.22 301.651C139.059 301.774 138.934 301.938 138.858 302.126C138.782 302.313 138.758 302.518 138.787 302.718L139.871 310.11C139.919 310.434 140.032 310.744 140.204 311.023C140.375 311.301 140.601 311.542 140.869 311.731C141.136 311.919 141.439 312.052 141.759 312.12C142.079 312.188 142.409 312.19 142.73 312.127C146.752 311.338 150.52 310.433 153.738 309.465C153.961 309.397 154.158 309.262 154.302 309.079C154.445 308.895 154.529 308.672 154.542 308.439C154.555 308.206 154.495 307.975 154.372 307.777C154.249 307.579 154.068 307.424 153.854 307.332V307.332Z" fill="#E87B40"/>
<path d="M74.9419 174.756H75.0129C75.1189 175.007 75.1809 175.148 75.1809 175.148C74.4559 197.03 63.1139 208.274 63.1139 208.274L58.6639 197.494C70.8689 189.79 74.9419 174.756 74.9419 174.756Z" fill="#E5838B"/>
<path d="M59.9909 162.64C60.0932 163.048 60.0547 163.478 59.8817 163.861C59.7088 164.243 59.4114 164.557 59.038 164.749C58.6646 164.942 58.237 165.003 57.8247 164.922C57.4125 164.841 57.0397 164.623 56.7669 164.303L56.1399 163.569C55.6595 163.007 54.9927 162.637 54.2617 162.527C53.5308 162.417 52.7846 162.574 52.1599 162.969L46.0149 166.854L44.4559 163.078L62.0139 152.846C60.9748 154.228 60.2545 155.823 59.9047 157.516C59.5549 159.21 59.5844 160.959 59.9909 162.64V162.64Z" fill="#E5838B"/>
</g>
<defs>
<clipPath id="clip0_2_313">
<rect width="340" height="340" fill="white"/>
</clipPath>
</defs>
</svg>
