<svg width="340" height="340" viewBox="0 0 340 340" fill="none" xmlns="http://www.w3.org/2000/svg">
<path d="M256.769 272.833L241.475 263.1L206.992 318.014C206.472 318.841 206.136 319.77 206.006 320.738C205.877 321.707 205.956 322.691 206.24 323.626C206.523 324.561 207.004 325.424 207.649 326.157C208.295 326.89 209.09 327.477 209.982 327.876V327.876C211.313 328.473 212.801 328.627 214.227 328.317C215.653 328.006 216.942 327.247 217.906 326.151C225.65 317.351 244.946 294.531 256.769 272.833Z" fill="#E54C5B"/>
<path d="M209.982 327.878C209.09 327.479 208.295 326.892 207.649 326.159C207.004 325.426 206.523 324.563 206.24 323.628C205.956 322.693 205.877 321.709 206.006 320.741C206.136 319.772 206.472 318.843 206.992 318.016L213.198 308.133C217.784 309.833 222.705 311.575 222.705 311.575L238.366 288.094C239.524 286.357 240.113 284.303 240.05 282.217C239.988 280.13 239.276 278.115 238.016 276.451L235.323 272.9L241.474 263.1L256.768 272.831C244.945 294.531 225.649 317.349 217.905 326.151C216.942 327.247 215.653 328.007 214.227 328.317C212.801 328.628 211.313 328.474 209.982 327.878V327.878Z" fill="#A02A39"/>
<path d="M310.856 47.7C311.773 65.9386 305.86 83.8642 294.27 97.977C294.27 97.977 308.113 164.819 242.331 255.836L261.658 268.008C280.57 238.645 297.917 208.303 313.624 177.108C333.676 136.893 341.236 87.918 310.856 47.7Z" fill="#D2E8FF"/>
<path d="M242.332 255.836C247.648 248.48 252.432 241.286 256.762 234.269L281.697 235.535C270.051 255.25 261.659 268.008 261.659 268.008L242.332 255.836Z" fill="#96AEF4"/>
<path d="M202.063 289.291L209.078 292.662C210.389 293.293 211.89 293.406 213.282 292.98C214.673 292.554 215.853 291.619 216.587 290.362V290.362C217.594 288.635 219.2 287.336 221.099 286.712C222.999 286.087 225.061 286.179 226.898 286.97L236.758 291.221C238.191 291.839 239.484 292.739 240.561 293.868C241.638 294.997 242.477 296.331 243.026 297.792C243.576 299.252 243.825 300.808 243.759 302.367C243.693 303.926 243.314 305.456 242.644 306.865L239.582 313.3C238.877 314.783 237.865 316.1 236.614 317.163C235.362 318.227 233.899 319.012 232.321 319.467C230.743 319.923 229.087 320.038 227.461 319.805C225.835 319.573 224.277 318.998 222.891 318.118L209.876 309.872L198.903 304.659L202.063 289.291Z" fill="#D9E5FC"/>
<path d="M235.622 247.819L274.406 273.406L276.482 270.259C277.729 268.4 279.66 267.11 281.855 266.669C284.049 266.228 286.328 266.672 288.197 267.904C290.065 269.137 291.37 271.058 291.828 273.248C292.287 275.439 291.86 277.722 290.642 279.6L288.084 283.477C287.262 284.724 286.201 285.797 284.964 286.634C283.727 287.471 282.336 288.056 280.873 288.356C279.409 288.656 277.901 288.665 276.434 288.382C274.967 288.099 273.57 287.53 272.323 286.707L268.385 284.107L232.274 257.368L235.622 247.819Z" fill="#FFB664"/>
<path d="M211.729 245.682C213.39 243.164 215.984 241.408 218.94 240.803C221.896 240.197 224.971 240.79 227.49 242.451L235.625 247.819C235.996 252.442 238.225 259.101 246.779 264.58L266.772 276.193C266.772 276.193 269.659 278.411 268.386 284.111L225.406 255.754L223.33 258.901C222.721 259.842 221.933 260.654 221.009 261.289C220.085 261.924 219.045 262.369 217.948 262.6C216.851 262.83 215.72 262.841 214.619 262.631C213.518 262.421 212.469 261.996 211.534 261.378C210.598 260.761 209.794 259.965 209.168 259.035C208.542 258.105 208.107 257.061 207.887 255.961C207.668 254.862 207.668 253.731 207.888 252.632C208.108 251.533 208.544 250.488 209.171 249.559L211.729 245.682Z" fill="#E87B40"/>
<path d="M206.779 308.4L198.902 304.658L202.062 289.289L209.077 292.661C209.25 292.737 209.427 292.804 209.607 292.861L206.779 308.4Z" fill="#6C7CA2"/>
<path d="M35.9376 288.706C35.9376 288.706 34.5756 295.515 33.6626 301.026C33.1679 304.031 33.6835 307.116 35.1286 309.797L39.3186 317.591C39.8647 318.607 40.1961 319.724 40.2921 320.874C40.3881 322.023 40.2467 323.18 39.8766 324.272V324.272C39.4601 325.503 38.764 326.621 37.8431 327.537C36.9222 328.454 35.8013 329.145 34.5686 329.556L34.0816 329.718L32.8816 333.799C32.5541 334.905 32.003 335.932 31.2625 336.816C30.522 337.7 29.6078 338.423 28.5766 338.94C27.5453 339.456 26.419 339.756 25.2674 339.819C24.1158 339.883 22.9634 339.709 21.8816 339.309C20.6823 338.871 19.5165 338.346 18.3936 337.738C14.841 335.747 12.0347 332.651 10.4006 328.921C8.76647 325.19 8.39362 321.028 9.33859 317.067L10.4116 312.378C11.206 308.776 13.0231 305.48 15.6446 302.886C18.8756 299.743 23.2026 293.796 24.2986 283.881L35.9376 288.706Z" fill="#D9E5FC"/>
<path d="M18.8994 299.025C21.9437 294.511 23.801 289.303 24.2994 283.881L35.9404 288.706C35.9404 288.706 34.5784 295.515 33.6654 301.026C33.5255 301.889 33.4689 302.763 33.4964 303.636C28.4716 302.658 23.5745 301.111 18.8994 299.025V299.025Z" fill="#6C7CA2"/>
<path d="M213.801 151.234C214.596 151.234 215.359 150.918 215.922 150.355C216.484 149.793 216.801 149.03 216.801 148.234V83.954C216.801 83.1584 216.484 82.3953 215.922 81.8327C215.359 81.2701 214.596 80.954 213.801 80.954C213.005 80.954 212.242 81.2701 211.679 81.8327C211.117 82.3953 210.801 83.1584 210.801 83.954V148.234C210.801 148.628 210.878 149.018 211.029 149.382C211.18 149.746 211.401 150.077 211.679 150.355C211.958 150.634 212.289 150.855 212.652 151.006C213.016 151.156 213.407 151.234 213.801 151.234V151.234Z" fill="#333353"/>
<path d="M213.8 138.374C209.372 138.374 205.781 134.784 205.781 130.355C205.781 125.926 209.372 122.336 213.8 122.336C218.229 122.336 221.819 125.926 221.819 130.355C221.819 134.784 218.229 138.374 213.8 138.374Z" fill="#FFB664"/>
<path d="M213.8 119.119C209.372 119.119 205.781 115.529 205.781 111.1C205.781 106.671 209.372 103.081 213.8 103.081C218.229 103.081 221.819 106.671 221.819 111.1C221.819 115.529 218.229 119.119 213.8 119.119Z" fill="#E54C5B"/>
<path d="M166.634 236.25C166.634 236.25 164.522 260.175 191.239 274.571L161.223 308.164C161.223 308.164 150.123 270.4 166.634 236.25Z" fill="#A02A39"/>
<path d="M200.941 271.819L194.748 268.969C192.958 268.146 190.942 267.954 189.029 268.424C187.117 268.895 185.42 270 184.217 271.56L164.733 296.811C163.325 298.629 162.695 300.931 162.981 303.213C163.267 305.495 164.445 307.571 166.259 308.985C172.053 313.559 178.634 317.035 185.678 319.244C187.78 319.85 190.035 319.637 191.987 318.647C193.938 317.657 195.442 315.963 196.195 313.908C199.095 306.122 203.583 293.062 205.856 281.361C206.223 279.45 205.938 277.471 205.047 275.741C204.156 274.011 202.71 272.63 200.941 271.819V271.819Z" fill="#333353"/>
<path d="M158.163 132.328C158.163 132.328 166.023 145.9 188.603 162.643C189.33 163.182 189.849 163.956 190.072 164.833C190.295 165.711 190.207 166.638 189.825 167.459C182.788 182.44 152.607 253.775 171.27 339.831C139.402 332.214 108.635 332.615 92.4255 300.393C92.4255 300.393 75.4665 245.75 145.862 121.706L158.163 132.328Z" fill="#A02A39"/>
<path d="M155.635 226.25L158.162 230.65C158.249 235.755 156.384 240.7 152.947 244.476C150.575 247.04 147.465 248.805 144.047 249.527C143.13 249.736 142.171 249.652 141.304 249.287C140.438 248.923 139.707 248.296 139.215 247.495C138.722 246.693 138.494 245.758 138.56 244.82C138.627 243.882 138.986 242.989 139.586 242.265C141.135 240.394 142.346 238.267 143.164 235.98L146.49 227.321L155.635 226.25Z" fill="#D9E5FC"/>
<path d="M143.159 235.976C144.281 232.765 144.809 229.376 144.718 225.976L156.939 222.85C157.765 225.365 158.177 227.996 158.159 230.643C156.191 232.561 153.832 234.03 151.243 234.95C148.654 235.871 145.896 236.221 143.159 235.976V235.976Z" fill="#6C7CA2"/>
<path d="M133.822 280.149C129.55 283.815 121.022 288.088 105.666 285.296V310.945C105.666 310.945 115.034 314.793 122.895 303.457C126.565 298.034 132.156 294.206 138.538 292.747C138.9 292.669 139.269 292.597 139.643 292.53C141.491 292.222 143.149 291.214 144.272 289.715C145.394 288.215 145.895 286.341 145.67 284.481C145.655 284.381 145.638 284.281 145.619 284.173C145.377 282.932 144.811 281.778 143.98 280.825C143.149 279.873 142.081 279.157 140.885 278.749C139.689 278.34 138.406 278.255 137.166 278.501C135.926 278.747 134.773 279.315 133.822 280.149V280.149Z" fill="#D9E5FC"/>
<path d="M158.439 207.024L161.222 212.2C161.257 216.236 160.069 220.187 157.815 223.535C156.622 225.398 154.979 226.929 153.037 227.989C151.096 229.049 148.918 229.602 146.706 229.597C145.866 229.616 145.039 229.376 144.339 228.91C143.639 228.444 143.099 227.774 142.792 226.991C142.485 226.208 142.425 225.35 142.621 224.532C142.817 223.714 143.26 222.976 143.888 222.418C145.514 220.975 146.882 219.267 147.934 217.365C147.934 217.365 152.394 214.401 151.867 210.193L158.439 207.024Z" fill="#D9E5FC"/>
<path d="M158.769 203.02C160.349 205.824 161.193 208.982 161.222 212.2C157.583 215.506 152.847 217.345 147.93 217.362C149.647 214.17 150.294 210.512 149.777 206.925L158.769 203.02Z" fill="#6C7CA2"/>
<path d="M156.903 191.336L161.959 193.054C162.999 197.571 162.515 203.144 156.816 207.887C154.254 209.823 151.25 211.092 148.075 211.578C147.095 211.742 146.089 211.57 145.218 211.091C144.347 210.612 143.663 209.854 143.277 208.938C142.89 208.023 142.823 207.004 143.087 206.046C143.351 205.087 143.931 204.246 144.731 203.658C146.002 202.716 147.122 201.586 148.053 200.307L152.163 196.543L156.903 191.336Z" fill="#D9E5FC"/>
<path d="M157.902 184.488C159.811 187.044 161.189 189.957 161.955 193.055C160.417 195.318 158.341 197.165 155.915 198.43C153.488 199.695 150.786 200.339 148.05 200.304C149.098 198.855 149.737 197.15 149.898 195.369C150.06 193.588 149.738 191.796 148.968 190.182L157.902 184.488Z" fill="#6C7CA2"/>
<path d="M119.591 216.309C119.591 216.309 116.666 236.652 120.591 251.033C121.216 253.307 122.17 255.477 123.423 257.474C125.329 260.519 128.538 267.007 124.618 271.345C119.344 277.181 108.646 270.372 108.646 270.372C108.646 270.372 107.755 236.936 119.591 216.309Z" fill="#D9E5FC"/>
<path d="M148.748 162.116C148.748 162.116 156.62 167.786 159.549 175.322C161.974 181.567 162.03 187.071 155.948 191.75C154.141 193.108 152.079 194.088 149.885 194.632C148.952 194.878 147.966 194.825 147.066 194.48C146.166 194.135 145.397 193.515 144.869 192.708C144.341 191.902 144.08 190.949 144.123 189.986C144.167 189.023 144.512 188.098 145.11 187.342C148.69 182.703 148.06 176.942 139.399 171.268L148.748 162.116Z" fill="#D9E5FC"/>
<path d="M120.056 78.759C120.056 78.759 116.986 82.34 116.123 89.364C115.657 92.7173 114.235 95.8654 112.028 98.4327C109.821 101 106.922 102.878 103.676 103.842C94.1014 106.842 83.1484 113.942 84.9454 130.759C84.9454 130.759 53.5044 123.999 54.4214 158.388C54.4214 158.388 29.8054 177.644 51.6704 198.067L136.722 135.981L148.056 104.314L139.395 77.114L120.056 78.759Z" fill="#333353"/>
<path d="M153.614 126.216L146.881 136.525L135.498 151.411L124.623 141.152L136.458 124.386L144.928 114.086C148.894 117.243 151.902 121.444 153.614 126.216V126.216Z" fill="#D9E5FC"/>
<path d="M144.322 113.245C148.636 116.994 152.01 121.703 154.172 126.993L146.882 136.525C144.89 132.483 142.021 128.938 138.482 126.148C137.806 125.611 137.131 125.013 136.457 124.386L144.322 113.245Z" fill="#6C7CA2"/>
<path d="M132.75 77.706C132.75 77.706 190.75 74.373 206.75 83.484C206.75 83.484 209.194 98.15 195.639 116.373C195.639 116.373 187.962 126.79 186.039 135.526C185.879 136.268 185.47 136.933 184.88 137.41C184.289 137.888 183.554 138.149 182.794 138.15H180.275C180.087 138.15 179.899 138.113 179.725 138.041C179.55 137.969 179.392 137.863 179.258 137.729C179.124 137.596 179.018 137.437 178.946 137.263C178.874 137.088 178.836 136.901 178.836 136.712V128.7C178.85 128.016 178.604 127.352 178.147 126.843C177.69 126.333 177.057 126.016 176.375 125.956C176.022 125.937 175.669 125.99 175.337 126.112C175.006 126.234 174.702 126.423 174.446 126.666C174.189 126.91 173.985 127.203 173.846 127.528C173.707 127.853 173.635 128.202 173.635 128.556V136.718C173.635 137.099 173.484 137.465 173.214 137.735C172.945 138.004 172.579 138.156 172.197 138.156H169.022C168.65 138.156 168.292 138.012 168.024 137.753C167.756 137.495 167.599 137.142 167.585 136.77L167.285 128.556C167.285 128.215 167.218 127.876 167.088 127.561C166.957 127.246 166.765 126.959 166.524 126.718C166.282 126.476 165.996 126.285 165.68 126.154C165.365 126.023 165.027 125.956 164.685 125.956C164.344 125.956 164.006 126.023 163.69 126.154C163.375 126.285 163.088 126.476 162.847 126.718C162.606 126.959 162.414 127.246 162.283 127.561C162.153 127.876 162.085 128.215 162.085 128.556L162.311 136.678C162.317 136.87 162.284 137.061 162.214 137.241C162.144 137.42 162.039 137.583 161.905 137.721C161.771 137.859 161.61 137.968 161.433 138.043C161.256 138.118 161.066 138.156 160.873 138.156H156.713C156.014 138.156 155.339 137.898 154.817 137.431C154.296 136.964 153.965 136.322 153.888 135.626L153.597 133.001C152.224 128.539 149.525 124.602 145.859 121.712C138.927 116.202 131.853 104.294 131.573 89.4L132.75 77.706Z" fill="#D9E5FC"/>
<path d="M150.509 155.451C142.561 150.351 123.309 137.551 109.24 124.597C108.913 124.294 108.523 124.068 108.098 123.935C107.673 123.802 107.223 123.765 106.782 123.827C106.341 123.889 105.92 124.049 105.548 124.294C105.176 124.54 104.864 124.865 104.634 125.246L95.2785 140.639C95.2785 140.639 46.0105 237.598 47.3395 301.223C47.4041 304.565 48.2526 307.846 49.8165 310.8C54.7225 320.048 68.9385 337.835 106.232 339.842C106.232 339.842 101.921 225.759 151.498 161.134C151.828 160.704 152.066 160.21 152.196 159.684C152.326 159.157 152.345 158.609 152.252 158.075C152.159 157.541 151.956 157.032 151.656 156.58C151.356 156.128 150.965 155.744 150.509 155.451V155.451Z" fill="#E54C5B"/>
<path d="M74.9224 268.527C76.0058 269.533 76.6519 270.923 76.7224 272.4C77.0106 280.976 76.3286 289.557 74.6894 297.98C74.2808 300.186 73.1577 302.196 71.4935 303.7C69.8292 305.205 67.7162 306.12 65.4804 306.304C59.6615 306.77 53.8124 306.709 48.0044 306.122C47.5942 304.52 47.3697 302.876 47.3354 301.222C46.7354 272.67 56.3354 237.409 67.0914 207.205L80.7994 197.438C81.9036 196.65 83.2331 196.241 84.5891 196.272C85.9451 196.303 87.2546 196.772 88.3217 197.61C89.3888 198.447 90.1561 199.607 90.5088 200.917C90.8615 202.226 90.7807 203.615 90.2784 204.875C83.7784 221.229 75.6134 244.522 73.1514 263.607C73.0352 264.509 73.1351 265.425 73.4431 266.281C73.751 267.136 74.2581 267.906 74.9224 268.527V268.527Z" fill="#A02A39"/>
<path d="M95.2784 140.639C95.2784 140.639 102.71 142.096 106.983 152.694C108.317 156.058 108.859 159.684 108.566 163.291C108.273 166.898 107.154 170.389 105.294 173.494C95.1424 190.628 70.6014 234.694 61.7004 274.366L18.0574 256.366C18.0574 256.366 43.2964 173.344 95.2784 140.639Z" fill="#E54C5B"/>
<path d="M61.4724 268.966C53.3224 266.466 38.0985 261.292 24.6365 253.866C23.6088 253.29 22.4664 252.948 21.2911 252.865C20.1158 252.782 18.9367 252.96 17.8382 253.386C16.7397 253.812 15.7491 254.476 14.9373 255.33C14.1255 256.184 13.5125 257.206 13.1424 258.325C11.4693 263.399 10.09 268.566 9.01145 273.799C8.71981 275.217 8.81921 276.688 9.29902 278.054C9.77883 279.421 10.621 280.631 11.7355 281.555C24.7124 292.106 41.2203 297.32 57.9034 296.136C59.5467 296.026 61.1141 295.404 62.3848 294.356C63.6555 293.308 64.5654 291.888 64.9864 290.296C66.0753 286.025 66.7781 281.665 67.0864 277.269C67.2333 275.453 66.7574 273.641 65.7369 272.132C64.7165 270.623 63.2124 269.506 61.4724 268.966V268.966Z" fill="#5B5B81"/>
<path d="M134.11 307.306C133.891 307.477 133.674 307.657 133.46 307.849C132.243 308.978 131.372 310.429 130.947 312.034C130.522 313.638 130.561 315.331 131.06 316.914C131.39 318.001 132.36 319.185 132.86 320.414C133.781 322.655 134.932 325.014 134.789 327.435V339.835H148.056C149.259 331.076 149.357 322.2 148.349 313.416C147.498 306.614 139.522 303.107 134.11 307.306Z" fill="#D9E5FC"/>
<path d="M147.333 101.444C147.16 104.269 147.651 107.094 148.766 109.695C149.253 110.744 149.954 111.679 150.823 112.441C151.692 113.203 152.711 113.775 153.815 114.121C154.918 114.466 156.081 114.577 157.23 114.447C158.379 114.317 159.488 113.948 160.485 113.364C164.374 111.206 167.441 107.824 169.209 103.744C169.658 102.669 169.873 101.512 169.843 100.348C169.812 99.1846 169.536 98.0403 169.032 96.9908C168.528 95.9412 167.808 95.01 166.919 94.2583C166.03 93.5066 164.992 92.9513 163.873 92.629C161.903 92.0567 159.867 91.7387 157.815 91.683C155.136 91.6046 152.533 92.5851 150.571 94.4121C148.609 96.2391 147.446 98.7655 147.333 101.444V101.444Z" fill="#6C7CA2"/>
<path d="M196.305 104.328C195.899 107.128 194.842 109.795 193.219 112.113C192.529 113.04 191.652 113.813 190.646 114.381C189.639 114.95 188.525 115.302 187.374 115.415C186.224 115.528 185.062 115.399 183.964 115.037C182.866 114.675 181.856 114.088 180.998 113.313C177.632 110.406 175.319 106.469 174.419 102.113C174.2 100.97 174.225 99.7928 174.492 98.6596C174.759 97.5264 175.263 96.4626 175.97 95.5378C176.678 94.6131 177.573 93.8484 178.596 93.2938C179.62 92.7392 180.749 92.4074 181.91 92.32C183.957 92.1616 186.015 92.2654 188.034 92.629C190.675 93.0988 193.024 94.5903 194.572 96.7802C196.12 98.9701 196.743 101.682 196.305 104.328V104.328Z" fill="#6C7CA2"/>
<path d="M129.245 160.8L131.984 162.586C132.373 162.836 132.708 163.159 132.971 163.539C133.233 163.919 133.418 164.347 133.515 164.798C133.611 165.249 133.618 165.715 133.533 166.169C133.449 166.623 133.276 167.056 133.024 167.443C132.772 167.829 132.445 168.162 132.064 168.422C131.683 168.682 131.254 168.864 130.802 168.958C130.35 169.051 129.883 169.055 129.43 168.967C128.977 168.88 128.545 168.704 128.16 168.449L125.421 166.663C125.033 166.413 124.698 166.09 124.435 165.71C124.173 165.33 123.988 164.902 123.891 164.451C123.794 164 123.788 163.534 123.872 163.08C123.957 162.626 124.13 162.193 124.382 161.806C124.634 161.42 124.96 161.087 125.342 160.827C125.723 160.567 126.152 160.385 126.604 160.291C127.056 160.198 127.522 160.194 127.976 160.282C128.429 160.369 128.86 160.545 129.245 160.8Z" fill="#A02A39"/>
<path d="M113.023 182.845C113.238 182.439 113.532 182.08 113.887 181.787C114.241 181.495 114.65 181.275 115.09 181.141C115.529 181.007 115.991 180.96 116.449 181.004C116.906 181.048 117.351 181.182 117.757 181.398L120.643 182.934C121.052 183.148 121.416 183.44 121.712 183.795C122.008 184.15 122.23 184.56 122.367 185.001C122.504 185.442 122.552 185.906 122.509 186.366C122.465 186.826 122.331 187.273 122.114 187.681C121.897 188.089 121.602 188.45 121.245 188.743C120.887 189.036 120.476 189.255 120.033 189.389C119.591 189.522 119.127 189.566 118.667 189.519C118.207 189.472 117.762 189.334 117.356 189.114L114.47 187.578C113.65 187.142 113.037 186.399 112.766 185.511C112.495 184.624 112.587 183.665 113.023 182.845V182.845Z" fill="#A02A39"/>
<path d="M104.405 203.505C104.614 203.096 104.903 202.732 105.253 202.435C105.603 202.137 106.009 201.911 106.446 201.77C106.884 201.63 107.345 201.576 107.803 201.614C108.261 201.651 108.708 201.778 109.117 201.988L112.023 203.48C112.436 203.687 112.804 203.974 113.105 204.325C113.407 204.675 113.636 205.082 113.78 205.521C113.924 205.96 113.979 206.424 113.942 206.885C113.906 207.346 113.778 207.795 113.567 208.206C113.356 208.617 113.066 208.983 112.713 209.281C112.36 209.58 111.951 209.805 111.51 209.945C111.07 210.085 110.606 210.136 110.145 210.095C109.685 210.054 109.237 209.923 108.828 209.708L105.919 208.216C105.093 207.792 104.47 207.057 104.186 206.174C103.902 205.291 103.981 204.331 104.405 203.505V203.505Z" fill="#A02A39"/>
<path d="M96.5434 228.781C96.6164 228.327 96.7781 227.892 97.0192 227.501C97.2603 227.109 97.5762 226.769 97.9487 226.5C98.3213 226.231 98.7433 226.037 99.1905 225.931C99.6378 225.825 100.102 225.808 100.555 225.881L103.783 226.402C104.653 226.541 105.437 227.003 105.981 227.695C106.526 228.386 106.789 229.258 106.719 230.135C106.649 231.013 106.252 231.832 105.605 232.429C104.959 233.026 104.111 233.358 103.23 233.358C103.043 233.358 102.856 233.343 102.67 233.313L99.4415 232.792C98.5254 232.644 97.7055 232.139 97.1621 231.386C96.6186 230.634 96.3961 229.697 96.5434 228.781Z" fill="#A02A39"/>
<path d="M97.4965 257.811L94.2325 257.617C93.769 257.596 93.3143 257.484 92.8947 257.286C92.4752 257.088 92.0992 256.808 91.7886 256.464C91.478 256.119 91.239 255.716 91.0856 255.278C90.9321 254.841 90.8672 254.377 90.8946 253.913C90.9221 253.45 91.0413 252.997 91.2454 252.581C91.4495 252.164 91.7344 251.792 92.0835 251.487C92.4326 251.181 92.839 250.948 93.279 250.801C93.719 250.654 94.1838 250.596 94.6465 250.63L97.9105 250.824C98.8161 250.881 99.6641 251.288 100.276 251.958C100.887 252.628 101.215 253.51 101.189 254.417C101.163 255.324 100.786 256.186 100.137 256.82C99.4878 257.454 98.6179 257.812 97.7105 257.817C97.6375 257.817 97.5665 257.815 97.4965 257.811Z" fill="#A02A39"/>
<path d="M94.2326 284.351L90.9686 284.157C90.5051 284.136 90.0504 284.024 89.6308 283.826C89.2113 283.628 88.8353 283.348 88.5247 283.004C88.2141 282.659 87.9751 282.256 87.8217 281.818C87.6682 281.381 87.6033 280.917 87.6307 280.453C87.6582 279.99 87.7774 279.537 87.9815 279.121C88.1856 278.704 88.4705 278.332 88.8196 278.027C89.1687 277.721 89.5751 277.488 90.0151 277.341C90.4551 277.194 90.9199 277.136 91.3826 277.17L94.6466 277.364C95.5522 277.421 96.4002 277.828 97.0118 278.498C97.6234 279.168 97.9508 280.05 97.9248 280.957C97.8989 281.864 97.5217 282.726 96.8728 283.36C96.2239 283.994 95.354 284.352 94.4466 284.357C94.3752 284.357 94.3039 284.355 94.2326 284.351Z" fill="#A02A39"/>
<path d="M88.9584 305.318L92.2274 305.282C93.1556 305.272 94.05 305.63 94.7138 306.279C95.3776 306.928 95.7564 307.814 95.7669 308.743C95.7773 309.671 95.4186 310.565 94.7697 311.229C94.1207 311.893 93.2346 312.272 92.3064 312.282L89.0364 312.318H88.9964C88.0681 312.323 87.1759 311.959 86.5159 311.306C85.856 310.654 85.4824 309.765 85.4774 308.837C85.4723 307.909 85.8362 307.017 86.489 306.357C87.1419 305.697 88.0301 305.323 88.9584 305.318V305.318Z" fill="#A02A39"/>
<path d="M206.75 83.484C207.047 86.1282 206.978 88.8007 206.544 91.426C199.086 90.163 163.958 84.782 131.582 89.394C131.511 85.4656 131.903 81.5425 132.75 77.706C132.75 77.706 190.75 74.373 206.75 83.484Z" fill="#6C7CA2"/>
<path d="M240.597 87.821L239.342 93.974C239.342 93.974 179.769 71.384 96.6424 87.225C96.6424 87.225 95.0184 85.752 93.2484 81.266C92.662 79.7541 92.3915 78.1381 92.4536 76.5177C92.5156 74.8973 92.9089 73.3067 93.6091 71.8441C94.3094 70.3814 95.3018 69.0777 96.5252 68.0133C97.7486 66.9488 99.177 66.1463 100.722 65.655C109.973 62.709 123.409 57.182 131.353 46.59C146.334 26.618 170.753 23.449 181.217 24.275C191.681 25.101 215.102 29.158 224.469 59.087C227.255 65.7626 231.497 71.7313 236.885 76.557C238.439 77.9434 239.599 79.7142 240.251 81.6915C240.903 83.6688 241.022 85.7829 240.597 87.821V87.821Z" fill="#5B5B81"/>
<path d="M176.07 59.686C177.386 58.634 178.759 57.572 180.107 56.549C178.954 55.5154 177.741 54.5505 176.474 53.659C176.15 53.4347 175.874 53.1488 175.66 52.8176C175.447 52.4864 175.301 52.1164 175.23 51.7287C175.16 51.341 175.166 50.9432 175.25 50.5581C175.333 50.1729 175.491 49.808 175.715 49.484C175.94 49.16 176.226 48.8834 176.557 48.6699C176.888 48.4565 177.258 48.3103 177.646 48.2398C178.033 48.1693 178.431 48.1759 178.816 48.2592C179.201 48.3424 179.566 48.5007 179.89 48.725C181.694 49.9981 183.409 51.3931 185.022 52.9C187.547 51.064 189.373 49.788 189.522 49.683C190.175 49.2276 190.982 49.0501 191.765 49.1896C192.549 49.329 193.244 49.7739 193.7 50.4265C194.155 51.0791 194.333 51.8858 194.193 52.6692C194.054 53.4527 193.609 54.1486 192.956 54.604C192.924 54.627 191.456 55.655 189.322 57.196C191.312 59.338 192.622 60.959 192.738 61.103C193.231 61.7239 193.458 62.5145 193.37 63.3021C193.281 64.0897 192.885 64.8104 192.267 65.3067C191.649 65.8029 190.86 66.0345 190.071 65.9508C189.283 65.8672 188.56 65.475 188.06 64.86C188.032 64.824 186.596 63.048 184.46 60.783C182.916 61.945 181.321 63.172 179.822 64.371C179.201 64.868 178.408 65.0978 177.617 65.0099C176.826 64.9219 176.102 64.5234 175.605 63.902C175.108 63.2806 174.879 62.4872 174.967 61.6964C175.054 60.9055 175.453 60.182 176.074 59.685L176.07 59.686Z" fill="white"/>
<path d="M173.422 120.072L172.079 118.804C171.883 118.619 171.625 118.514 171.355 118.51C171.086 118.506 170.824 118.603 170.622 118.782L169.16 120.082C168.995 120.23 168.789 120.323 168.569 120.35C168.349 120.376 168.126 120.334 167.931 120.229C167.736 120.124 167.578 119.962 167.478 119.764C167.379 119.566 167.342 119.342 167.374 119.123C167.796 116.078 168.858 113.157 170.489 110.552C170.585 110.409 170.712 110.291 170.862 110.206C171.011 110.122 171.178 110.073 171.35 110.065C171.521 110.056 171.692 110.088 171.849 110.158C172.006 110.227 172.144 110.332 172.253 110.465C174.003 112.647 175.02 115.219 175.243 119.215C175.256 119.431 175.204 119.646 175.093 119.832C174.983 120.019 174.819 120.167 174.623 120.26C174.427 120.352 174.208 120.383 173.994 120.35C173.78 120.316 173.581 120.22 173.422 120.072V120.072Z" fill="#6C7CA2"/>
<path d="M133.259 339.831L133.473 327.531C133.623 325.111 133.226 322.689 132.312 320.444C131.812 319.216 131.393 318.001 131.063 316.914L135.775 322.674C137.554 324.848 138.526 327.571 138.526 330.38V339.831H133.259Z" fill="#6C7CA2"/>
<path d="M313.335 101.72C313.336 101.427 313.448 101.144 313.647 100.929C313.847 100.715 314.121 100.583 314.414 100.562C314.706 100.54 314.996 100.63 315.226 100.813C315.455 100.996 315.607 101.259 315.65 101.549C318.061 116.999 318.567 147.171 298.643 186.024L259.18 258.624L254.626 255.589L292.045 184.489C292.045 184.489 313.199 147.533 313.335 101.72Z" fill="#96AEF4"/>
</svg>
