<svg width="340" height="340" viewBox="0 0 340 340" fill="none" xmlns="http://www.w3.org/2000/svg">
<path d="M100.671 153.791C111.671 156.506 143.417 167.747 144.524 207.211C144.733 217.959 142.385 228.603 137.674 238.266C134.155 245.493 131.816 253.237 130.745 261.203L110.261 283.194L94.161 249.953L85.131 221.626C84.808 211.505 87.217 199.266 95.68 185.905C98.1033 182.168 99.7682 177.991 100.58 173.612C101.456 168.589 101.605 162.125 98.78 156.173C98.6359 155.887 98.5767 155.566 98.6092 155.248C98.6418 154.93 98.7648 154.628 98.9637 154.377C99.1626 154.127 99.4291 153.938 99.7316 153.834C100.034 153.731 100.36 153.715 100.671 153.791V153.791Z" fill="#9EE5FE"/>
<path d="M132.306 281.1C130.393 274.653 129.862 267.874 130.749 261.208C117.725 259.102 107.232 246.934 103.835 242.563C98.2856 235.003 92.0236 227.993 85.135 221.63C86.121 252.295 110.258 283.199 110.258 283.199L123.7 281.919L132.306 281.1Z" fill="#4DB7D5"/>
<path d="M168.361 189.475C168.361 189.475 199.608 201.443 219.427 183.591L195.087 156.11L172.4 179.017L168.361 189.475Z" fill="#E87B40"/>
<path d="M219.2 132.659C222.7 132.815 226.147 133.581 229.384 134.922C231.47 135.781 233.723 136.158 235.976 136.027C238.228 135.896 240.422 135.259 242.395 134.164C248.797 130.519 254.77 126.166 260.2 121.188C254.256 113.801 247.721 106.91 240.66 100.582L242.715 83.649C242.715 83.649 262.343 96.972 277.815 113.366C279.779 115.438 280.871 118.186 280.865 121.041C280.858 123.897 279.752 126.64 277.778 128.702C269.518 137.309 254.626 151.481 237.744 161.27C237.744 161.27 210.707 156.451 219.2 132.659Z" fill="#F2919E"/>
<path d="M178.768 218.6C178.768 218.6 170.279 232.26 169.013 245.235C167.533 260.407 169.136 273.969 181.268 283.199L196.301 291.944C181.153 292.664 166 290.628 151.579 285.936C151.579 285.936 147.899 329.362 220.394 336.688C276.976 342.406 303.361 323.657 316.161 307.258C324.435 296.658 326.507 272.223 326.507 272.223C324.576 261.606 318.725 252.103 310.114 245.6C303.627 240.856 296.29 237.4 288.5 235.421C281.532 233.578 274.332 232.766 267.128 233.011C256.645 233.282 236.805 232.272 231.128 221.337L178.768 218.6Z" fill="#A6E2D0"/>
<path d="M209.467 259.558C211.767 258.346 213.779 256.652 215.366 254.593C216.954 252.534 218.079 250.158 218.667 247.625C220.934 238.733 215.253 233.851 215.253 233.851C210.129 229.534 205.352 224.821 200.965 219.757L181.265 218.726L209.467 259.558Z" fill="#6BAC97"/>
<path d="M272.764 277.708C264.426 276.408 252.205 275.876 235.319 278.224C225.201 279.631 216.776 280.844 209.573 281.684C204.175 282.369 198.705 281.186 194.073 278.332C190.75 276.232 186.417 271.924 186.942 267.855C187.974 259.855 193.978 257.877 199.226 259.609C204.226 261.258 209.67 261.002 212.985 256.749C214.584 254.607 215.353 251.958 215.151 249.293C214.949 246.627 213.789 244.125 211.885 242.249L204.858 235.155L178.053 219.065C174.226 222.709 171.129 227.049 168.926 231.852L168.916 231.866C166.972 235.878 165.685 240.176 165.105 244.596C161.665 272.888 178.825 283.296 180.595 284.642C185.245 288.178 190.604 290.668 196.306 291.942C196.306 291.942 218.999 293.351 237.749 286.436C249.749 282.011 262.81 281.019 272.52 281.078C272.95 281.081 273.365 280.92 273.681 280.629C273.996 280.337 274.19 279.936 274.221 279.507C274.252 279.078 274.118 278.654 273.848 278.32C273.577 277.986 273.19 277.767 272.764 277.708Z" fill="#6BAC97"/>
<path d="M242.715 83.649C242.715 83.649 252.79 79.717 252.79 62.517C252.79 52.878 248.236 47.097 244.233 43.877C242.382 42.3506 240.162 41.3385 237.795 40.9423C235.429 40.5461 233 40.7798 230.753 41.62C229.597 42.0629 228.498 42.6441 227.481 43.351C227.481 43.351 222.645 36.298 209.481 36.298C209.481 36.298 179.937 38.069 178.031 74.556V99.356C178.031 99.356 178.518 113.632 166.031 120.43C166.031 120.43 138.008 137.938 145.903 167.436C152.817 193.264 181.532 190.914 181.532 190.914L219.132 98.88L242.715 83.649Z" fill="#FFB664"/>
<path d="M202.854 83.74L201.932 84.13C200.34 84.8029 198.996 85.9529 198.086 87.4215C197.175 88.8902 196.742 90.6051 196.847 92.33C197.38 101.718 196.307 111.127 193.676 120.154C193.286 121.505 192.521 122.717 191.47 123.651C190.419 124.585 189.125 125.201 187.738 125.429C181.076 126.486 168.605 131.173 164.629 151.175C161.476 167.034 152.605 168.068 145.576 166.039C145.684 166.505 145.776 166.966 145.902 167.439C152.816 193.267 181.531 190.917 181.531 190.917L215.7 107.268L202.854 83.74Z" fill="#E87B40"/>
<path d="M188.11 165.439L191.772 184.249L192.577 187.167C193.746 191.401 193.355 195.914 191.477 199.884L183.587 216.553L211.109 230.227H211.443C215.176 230.28 218.874 229.511 222.276 227.974C225.678 226.438 228.701 224.171 231.129 221.336C231.129 221.336 224.822 207.497 230.085 193.147C230.085 193.147 237.746 194.305 243.434 186.583C244.995 184.412 246.071 181.93 246.587 179.307C247.104 176.683 247.049 173.979 246.427 171.378C245.04 165.634 241.5 160.642 236.538 157.433C232.851 154.959 229.418 152.128 226.288 148.979C223.323 145.893 221.603 141.821 221.456 137.544C221.109 129.116 221.874 120.678 223.733 112.45L202.856 92.31C202.856 92.31 206.464 115.021 196.182 131.986L188.11 165.439Z" fill="#FFCACF"/>
<path d="M189.163 204.769L183.585 216.553C183.585 216.553 188.785 230.085 211.107 230.222C202.961 222.491 195.61 213.964 189.163 204.769V204.769Z" fill="#F2919E"/>
<path d="M223.731 112.451L202.854 92.311C203.732 99.1376 203.674 106.052 202.68 112.863C207.572 118.876 214.247 123.18 221.742 125.156C222.097 120.878 222.761 116.632 223.731 112.451V112.451Z" fill="#F2919E"/>
<path d="M227.609 58.618C227.609 58.618 230.543 65.532 240.521 74.689C241.834 75.9075 242.876 77.3881 243.58 79.0349C244.284 80.6818 244.634 82.4582 244.608 84.249C244.533 92.449 243.416 106.805 237.001 114.185C235.96 115.363 234.652 116.274 233.186 116.843C231.721 117.412 230.14 117.621 228.577 117.454C223.502 116.931 218.589 115.366 214.145 112.859C210.673 110.779 207.805 107.828 205.824 104.298C203.844 100.768 202.82 96.7823 202.854 92.735V90L203.704 84.077C203.704 84.077 221.254 75.46 227.609 58.618Z" fill="#FFCACF"/>
<path d="M226.454 161.228C227.879 165.835 228.634 170.622 228.696 175.444L233.039 174.244C233.039 174.244 233.55 165.544 227.992 159.611C227.153 158.714 226.033 159.9 226.454 161.228Z" fill="#F2919E"/>
<path d="M230.083 193.148C230.083 193.148 237.744 194.306 243.432 186.584C244.691 184.859 245.629 182.922 246.2 180.864L243.276 180.242H201.33C201.33 180.242 204.104 201.358 228.178 201.567C228.456 198.692 229.096 195.863 230.083 193.148V193.148Z" fill="#F2919E"/>
<path d="M227.628 168.683C232.95 168.736 238.234 167.767 243.191 165.829C243.979 165.515 244.829 165.386 245.675 165.45C246.521 165.514 247.342 165.77 248.074 166.199C248.806 166.629 249.431 167.219 249.9 167.926C250.37 168.633 250.671 169.438 250.783 170.279C251.446 175.705 250.901 182.727 244.849 186.225C242.237 187.679 239.204 188.186 236.261 187.661C232.703 187.078 227.789 185.249 225.482 179.754L227.628 168.683Z" fill="#A6ACF7"/>
<path d="M223.78 91.236C223.625 91.2359 223.471 91.2238 223.318 91.2L221.057 90.851C220.668 90.7909 220.294 90.6546 219.957 90.45C219.621 90.2455 219.327 89.9766 219.095 89.6587C218.862 89.3409 218.694 88.9803 218.6 88.5975C218.507 88.2148 218.49 87.8174 218.55 87.428C218.61 87.0386 218.746 86.6649 218.951 86.3282C219.156 85.9915 219.424 85.6984 219.742 85.4656C220.06 85.2328 220.421 85.0649 220.804 84.9714C221.186 84.878 221.584 84.8609 221.973 84.921L224.234 85.271C224.981 85.3861 225.657 85.7789 226.127 86.3708C226.597 86.9627 226.826 87.7101 226.768 88.4637C226.711 89.2172 226.371 89.9214 225.817 90.4354C225.263 90.9493 224.536 91.2353 223.78 91.236V91.236Z" fill="#E8808F"/>
<path d="M235.562 91.236C234.806 91.2353 234.079 90.9493 233.525 90.4354C232.971 89.9214 232.631 89.2172 232.574 88.4637C232.516 87.7101 232.745 86.9627 233.215 86.3708C233.685 85.7789 234.361 85.3861 235.108 85.271L236.879 84.921C237.268 84.8609 237.666 84.878 238.049 84.9714C238.431 85.0649 238.792 85.2328 239.11 85.4656C239.428 85.6984 239.696 85.9915 239.901 86.3282C240.106 86.6649 240.242 87.0386 240.302 87.428C240.362 87.8174 240.345 88.2148 240.252 88.5975C240.158 88.9803 239.99 89.3409 239.757 89.6587C239.525 89.9766 239.232 90.2455 238.895 90.45C238.558 90.6546 238.184 90.7909 237.795 90.851L236.024 91.2C235.871 91.2238 235.717 91.2358 235.562 91.236V91.236Z" fill="#E8808F"/>
<path d="M217.894 216.583C217.231 216.583 216.595 216.32 216.126 215.851C215.657 215.382 215.394 214.746 215.394 214.083V212.452C215.394 211.789 215.657 211.153 216.126 210.684C216.595 210.215 217.231 209.952 217.894 209.952C218.557 209.952 219.193 210.215 219.662 210.684C220.131 211.153 220.394 211.789 220.394 212.452V214.083C220.394 214.746 220.131 215.382 219.662 215.851C219.193 216.32 218.557 216.583 217.894 216.583Z" fill="#F2919E"/>
<path d="M200.215 250.592C201.866 251.858 203.935 252.451 206.006 252.252C208.077 252.053 209.995 251.076 211.374 249.518L211.509 249.364C212.781 247.911 213.51 246.062 213.573 244.132C213.635 242.202 213.028 240.31 211.853 238.777C211.853 238.777 203.726 231.532 196.053 223.267C190.994 218.627 186.643 213.27 183.138 207.367C181.576 204.701 181.121 201.529 181.872 198.531C183.272 192.959 185.983 182.72 189.739 171.237C191.189 166.809 192.224 162.256 192.831 157.637L196.182 131.989C196.182 131.989 177.022 127.825 172.406 150.759C172.406 150.759 167.355 178.414 164.88 197.249C163.985 203.989 165.489 210.828 169.129 216.571C177.454 229.617 187.971 241.127 200.215 250.592V250.592Z" fill="#FFCACF"/>
<path d="M241.031 182.611C233.517 181.182 232.448 168.449 232.448 168.449C230.849 168.643 229.238 168.722 227.628 168.683L225.482 179.754C226.448 182.235 228.236 184.31 230.548 185.63V185.63C232.307 186.662 234.245 187.352 236.26 187.664C239.203 188.189 242.236 187.682 244.848 186.228C246.315 185.369 247.582 184.206 248.562 182.816C249.542 181.427 250.213 179.843 250.53 178.173C248.6 180.938 245.57 183.475 241.031 182.611Z" fill="#6B73C1"/>
<path d="M208.045 168.533C213.401 168.863 218.777 168.39 223.993 167.128C224.897 166.909 225.84 166.905 226.746 167.115C227.652 167.326 228.497 167.745 229.212 168.34C229.927 168.934 230.494 169.688 230.866 170.541C231.238 171.393 231.406 172.321 231.356 173.25C231.261 174.973 231.036 176.686 230.683 178.375C228.515 182.438 227.561 186.804 216.33 188.611C213.083 188.416 209.942 187.379 207.217 185.603C204.491 183.826 202.275 181.371 200.786 178.479C200.733 178.192 200.687 177.9 200.646 177.603C200.573 177.052 200.516 176.481 200.474 175.89C200.42 174.891 200.581 173.893 200.946 172.962C201.31 172.03 201.87 171.188 202.587 170.491C203.305 169.794 204.163 169.259 205.104 168.921C206.045 168.583 207.048 168.451 208.045 168.533V168.533Z" fill="#A6ACF7"/>
<path d="M230.73 178.15C229.707 181.306 225.75 185.759 216.947 185.63C213.905 185.637 210.895 185.004 208.113 183.772C205.331 182.539 202.84 180.735 200.802 178.476C203.786 194.618 229.058 194.5 230.73 178.15Z" fill="#6B73C1"/>
<path d="M202.051 180.237C208.359 181.171 214.784 180.936 221.007 179.544C221.155 179.506 221.312 179.524 221.446 179.596C221.581 179.668 221.684 179.787 221.735 179.931C221.786 180.075 221.781 180.233 221.721 180.373C221.661 180.514 221.551 180.627 221.412 180.69C217.032 182.732 212.28 183.855 207.449 183.99C205.24 183.465 203.312 182.125 202.051 180.237V180.237Z" fill="#6B73C1"/>
<path d="M233.554 175.839C237.495 175.514 241.391 174.783 245.181 173.656C245.306 173.616 245.441 173.623 245.562 173.675C245.682 173.727 245.78 173.82 245.837 173.938C245.894 174.056 245.907 174.191 245.874 174.317C245.84 174.444 245.761 174.554 245.653 174.628C242.409 176.852 238.664 178.235 234.753 178.652L233.554 175.839Z" fill="#6B73C1"/>
<path d="M197.34 158.136C197.772 156.001 197.674 153.793 197.055 151.704C197.002 151.497 196.877 151.315 196.702 151.191C196.527 151.068 196.314 151.011 196.101 151.031C195.887 151.05 195.688 151.145 195.539 151.299C195.389 151.452 195.299 151.653 195.285 151.867C195.101 153.566 194.806 155.251 194.402 156.912L188.902 173.834L191.775 184.249C193.337 176.842 196.437 162.2 197.34 158.136Z" fill="#F2919E"/>
<path d="M244.049 79.919C243.403 77.7515 242.184 75.7983 240.521 74.265C230.543 65.109 227.609 58.194 227.609 58.194C220.835 76.294 202.854 83.74 202.854 83.74V89.572C212.858 86.0552 221.2 78.9485 226.262 69.63C226.454 69.2618 226.73 68.944 227.068 68.7025C227.405 68.4611 227.795 68.3027 228.206 68.2404C228.617 68.178 229.036 68.2134 229.43 68.3437C229.824 68.4739 230.182 68.6954 230.475 68.99C231.911 70.4265 233.452 71.7538 235.085 72.961C238.788 75.731 242.058 77.555 244.049 79.919Z" fill="#F2919E"/>
<path d="M97.844 243.582C97.844 243.582 88.478 220.876 100.297 201.567C104.202 195.435 106.964 188.648 108.451 181.532C108.514 181.209 108.694 180.92 108.957 180.722C109.22 180.524 109.546 180.429 109.875 180.457C110.203 180.485 110.509 180.633 110.734 180.873C110.96 181.113 111.089 181.428 111.096 181.757C111.244 189.334 109.607 196.839 106.318 203.666C97.175 223.29 108.718 252.41 108.718 252.41L97.844 243.582Z" fill="#4DB7D5"/>
<path d="M114.815 262.76C114.815 262.76 107.879 233.068 115.683 216.583C118.411 211.024 120.363 205.118 121.483 199.028C121.534 198.714 121.695 198.428 121.938 198.222C122.18 198.016 122.489 197.904 122.807 197.905C123.126 197.906 123.433 198.022 123.674 198.23C123.915 198.438 124.073 198.725 124.121 199.04C125.21 205.384 124.918 211.888 123.267 218.11C119.026 232.661 118.795 248.088 122.598 262.76H114.815Z" fill="#4DB7D5"/>
<path d="M231.367 326.549C182.089 327.574 159.48 299.273 151.58 285.929C142.813 283.127 134.432 279.233 126.637 274.339C125.337 273.503 123.829 273.047 122.284 273.022C120.739 272.997 119.217 273.404 117.891 274.197L117.491 274.439C115.661 275.551 114.336 277.331 113.796 279.403C113.256 281.474 113.543 283.675 114.596 285.539C122.685 299.985 148.352 331.368 220.847 338.694C277.429 344.412 304.831 324.68 317.631 308.281C321.578 303.241 324.409 297.42 325.938 291.203C327.466 284.987 327.656 278.517 326.495 272.221C320.8 302.393 292.329 325.28 231.367 326.549Z" fill="#6BAC97"/>
<path d="M13.808 221.315C13.526 221.428 13.2799 221.616 13.0961 221.858C12.9124 222.1 12.7977 222.387 12.7645 222.689C12.7312 222.992 12.7806 223.297 12.9073 223.573C13.034 223.849 13.2333 224.086 13.484 224.258C20.752 229.101 25.8578 236.575 27.727 245.107C30.027 255.849 31.82 277.826 44.913 293.193C44.913 293.193 61.82 304.835 75.6 306.955C116.811 313.295 133.037 307.817 133.037 307.817C123.631 298.825 116.17 287.999 111.114 276.008C109.987 273.328 107.498 264.617 107.498 264.617C94.972 240.665 65.032 200.545 13.808 221.315Z" fill="#9EE5FE"/>
<path d="M44.916 293.189C51.494 300.91 60.916 306.964 74.701 309.084C115.912 315.424 136.059 309.511 136.059 309.511C136.059 309.511 120.523 294.387 112.166 274.502C111.039 271.823 109.485 268.423 107.496 264.618C100.56 297.652 63.632 296.184 44.916 293.189Z" fill="#4DB7D5"/>
<path d="M44.3491 249.454C45.8491 264.785 52.9111 286.584 78.6121 301.103L89.3371 296.781C89.3371 296.781 64.1641 290.055 49.6701 248.319C49.4546 247.683 49.0132 247.149 48.4297 246.817C47.8462 246.486 47.1612 246.38 46.5048 246.52C45.8484 246.66 45.2662 247.036 44.8688 247.577C44.4715 248.118 44.2865 248.786 44.3491 249.454Z" fill="#4DB7D5"/>
<path d="M67.878 254.53C71.858 263.665 79.734 276.824 94.968 289.402L99.682 281.972C89.333 273.029 79.7924 263.191 71.171 252.572C70.8818 252.202 70.4674 251.949 70.0056 251.863C69.5437 251.776 69.0661 251.86 68.6621 252.101C68.2582 252.341 67.9557 252.72 67.8114 253.167C67.667 253.614 67.6907 254.099 67.878 254.53V254.53Z" fill="#4DB7D5"/>
</svg>
